<?xml version="1.0" encoding="UTF-8"?>
<svg width="500px" height="500px" viewBox="0 0 500 500" version="1.1" xmlns="http://www.w3.org/2000/svg" xmlns:xlink="http://www.w3.org/1999/xlink">
    <!-- Generator: Sketch 60.1 (88133) - https://sketch.com -->
    <title>Messy Middle 02 Copy 4</title>
    <desc>Created with Sketch.</desc>
    <g id="Messy-Middle-02-Copy-4" stroke="none" stroke-width="1" fill="none" fill-rule="evenodd">
        <path d="M264.02,37 L264.02,86.91 L299.494879,51.4362959 L318.769241,70.7106581 L281.499,107.98 L335,107.98 L335,135.02 L282.852,135.02 L318.769241,170.937342 L299.494879,190.211704 L264.02,154.737 L264.02,206 L236.98,206 L236.98,152.499 L199.268195,190.211704 L179.993833,170.937342 L215.91,135.02 L166,135.02 L166,107.98 L217.262,107.979 L179.993833,70.7106581 L199.268195,51.4362959 L236.98,89.148 L236.98,37 L264.02,37 Z" id="Combined-Shape" fill="#000000" fill-rule="nonzero" transform="translate(250.500000, 121.500000) rotate(-315.000000) translate(-250.500000, -121.500000) "></path>
        <path d="M393.02,166 L393.02,215.91 L428.494879,180.436296 L447.769241,199.710658 L410.5,236.979 L464,236.98 L464,264.02 L411.852,264.02 L447.769241,299.937342 L428.494879,319.211704 L393.02,283.737 L393.02,335 L365.98,335 L365.98,281.499 L328.268195,319.211704 L308.993833,299.937342 L344.91,264.02 L295,264.02 L295,236.98 L346.262,236.979 L308.993833,199.710658 L328.268195,180.436296 L365.98,218.148 L365.98,166 L393.02,166 Z" id="Combined-Shape-Copy" fill="#000000" fill-rule="nonzero" transform="translate(379.500000, 250.500000) rotate(-315.000000) translate(-379.500000, -250.500000) "></path>
        <path d="M135.02,166 L135.02,215.91 L170.494879,180.436296 L189.769241,199.710658 L152.499,236.98 L206,236.98 L206,264.02 L153.852,264.02 L189.769241,299.937342 L170.494879,319.211704 L135.02,283.737 L135.02,335 L107.98,335 L107.98,281.499 L70.2681953,319.211704 L50.9938331,299.937342 L86.91,264.02 L37,264.02 L37,236.98 L88.263,236.98 L50.9938331,199.710658 L70.2681953,180.436296 L107.98,218.148 L107.98,166 L135.02,166 Z" id="Combined-Shape-Copy" fill="#000000" fill-rule="nonzero" transform="translate(121.500000, 250.500000) rotate(-315.000000) translate(-121.500000, -250.500000) "></path>
        <path d="M264.02,295 L264.02,344.91 L299.494879,309.436296 L318.769241,328.710658 L281.5,365.979 L335,365.98 L335,393.02 L282.852,393.02 L318.769241,428.937342 L299.494879,448.211704 L264.02,412.737 L264.02,464 L236.98,464 L236.98,410.499 L199.268195,448.211704 L179.993833,428.937342 L215.91,393.02 L166,393.02 L166,365.98 L217.262,365.979 L179.993833,328.710658 L199.268195,309.436296 L236.98,347.148 L236.98,295 L264.02,295 Z" id="Combined-Shape-Copy" fill="#000000" fill-rule="nonzero" transform="translate(250.500000, 379.500000) rotate(-315.000000) translate(-250.500000, -379.500000) "></path>
    </g>
</svg>