<?xml version="1.0" encoding="UTF-8"?>
<svg width="533px" height="346px" viewBox="0 0 533 346" version="1.1" xmlns="http://www.w3.org/2000/svg" xmlns:xlink="http://www.w3.org/1999/xlink">
    <title>Group 40</title>
    <g id="Archive" stroke="none" stroke-width="1" fill="none" fill-rule="evenodd">
        <g id="Desktop-HD-Copy-10" transform="translate(-167.000000, -445.000000)" fill="#FFFFFF">
            <g id="Group-40" transform="translate(167.000000, 445.000000)">
                <path d="M266.500373,2 C412.481576,2 531,78.8466677 531,173.5 C531,268.153332 412.481576,345 266.500373,345 C120.518424,345 2,268.153332 2,173.5 C2,78.8466677 120.518424,2 266.500373,2 Z" id="Fill-1" fill-opacity="0"></path>
                <path d="M266.500374,0 C178.352377,0 100.173205,27.8237973 51.7181841,70.5593294 C19.1687483,99.2673102 0,134.707769 0,173 C0,211.292231 19.1687483,246.733436 51.7181841,275.440671 C100.173205,318.176203 178.352377,346 266.500374,346 C354.647623,346 432.827542,318.176203 481.281816,275.440671 C513.831252,246.733436 533,211.292231 533,173 C533,134.707769 513.831252,99.2673102 481.281816,70.5593294 C432.827542,27.8237973 354.647623,0 266.500374,0 Z M266.500374,3.73073174 C353.617937,3.73073174 430.919858,31.1187796 478.808477,73.3558859 C510.488135,101.296082 529.263839,135.730732 529.263839,173 C529.263839,210.269264 510.488135,244.703918 478.808477,272.644114 C430.919858,314.88122 353.617937,342.269268 266.500374,342.269268 C179.38281,342.269268 102.080142,314.88122 54.1915228,272.644114 C22.5118653,244.703918 3.73616113,210.269264 3.73616113,173 C3.73616113,135.730732 22.5118653,101.296082 54.1915228,73.3558859 C102.080142,31.1187796 179.38281,3.73073174 266.500374,3.73073174 Z" id="Fill-2"></path>
                <path d="M80.3700282,124.249405 C78.5382833,126.44106 76.576998,127.976802 74.485415,128.858138 C72.3938319,129.739475 70.2211915,130.110405 67.9659787,129.971683 L67.8182573,125.740665 C69.9022649,125.780623 71.7234042,125.476038 73.2816752,124.827664 C74.8399463,124.17929 76.2429205,123.107965 77.492113,121.613689 C78.9700842,119.845739 79.6905099,118.135087 79.6541477,116.482487 C79.617028,114.829887 78.8481193,113.3816 77.3466642,112.13838 C76.1201981,111.1236 74.8785811,110.696125 73.6225707,110.857465 C72.3658028,111.01805 70.9029825,111.818717 69.2333522,113.259464 L66.3410436,115.731579 C63.9631084,117.766418 61.6935022,118.784215 59.532225,118.786476 C57.3717053,118.787984 55.3657249,118.022752 53.5135262,116.489272 C51.1363485,114.521532 49.9651832,112.224328 50.0007879,109.599167 C50.035635,106.973252 51.1984673,104.290793 53.4877697,101.551789 C55.1740659,99.5342903 56.9694486,98.0709251 58.8731604,97.1609396 C60.7768722,96.2509542 62.7411876,95.8755004 64.7668642,96.036086 L64.9767043,100.191711 C63.3101042,100.160047 61.7806199,100.431459 60.3890089,101.007456 C58.9973979,101.5827 57.6982074,102.592957 56.4906799,104.037474 C55.075585,105.730786 54.3559168,107.326088 54.3324329,108.82338 C54.3081914,110.321425 54.9975578,111.649838 56.3982594,112.810126 C57.5747275,113.783441 58.7974059,114.195083 60.0662945,114.045053 C61.3351832,113.894268 62.8373958,113.084554 64.5744476,111.614404 L67.3728206,109.25387 C69.7507558,107.219785 72.0127866,106.185402 74.1589129,106.149967 C76.3057968,106.115287 78.3292007,106.885043 80.2313974,108.459235 C81.8328485,109.785386 82.9312894,111.29474 83.5267202,112.988806 C84.1221509,114.682872 84.1554829,116.49078 83.6282313,118.414038 C83.1009796,120.336543 82.0146594,122.281665 80.3700282,124.249405 Z" id="Fill-3"></path>
                <path d="M92.2134409,111 L72,83.832748 L81.8820934,76.3583 C84.3791976,74.4702488 86.8238888,73.7160853 89.2176646,74.0950543 C91.6114403,74.4747783 93.7446487,75.922712 95.6172897,78.4396103 C97.4704629,80.9308413 98.2424313,83.3873461 97.9339435,85.8106345 C97.6254556,88.2339229 96.223034,90.3892152 93.7266785,92.2772663 L87.5112476,96.9781438 L95.8808521,108.226429 L92.2134409,111 Z M85.1661411,93.8256042 L91.0723354,89.3587514 C92.4365704,88.3267779 93.232499,87.2072337 93.4608698,86.000874 C93.6892407,84.7945142 93.3395712,83.5677716 92.4133589,82.322911 L90.9937159,80.415232 C90.0675036,79.1703714 88.99753,78.48868 87.7845439,78.3724225 C86.5715577,78.2554102 85.2829471,78.7128908 83.9194608,79.7448644 L78.0132665,84.2117171 L85.1661411,93.8256042 Z" id="Fill-4"></path>
                <polygon id="Fill-5" points="115.655292 93 100 63.6414533 118.344708 54 120.160957 57.4062973 105.841449 64.932937 110.843199 74.3129923 124.653979 67.053658 126.470972 70.4606937 112.660192 77.7192896 117.863499 87.4774121 132.183007 79.9515109 134 83.3585467"></polygon>
                <path d="M152.845669,77.0957265 C149.001618,78.5415763 145.584434,78.2535909 142.591875,76.2317702 C139.600064,74.2099495 137.10016,70.5823693 135.09291,65.3482894 C133.084913,60.1149498 132.521986,55.758152 133.403382,52.2793767 C134.284777,48.7998611 136.647127,46.3375485 140.491178,44.8909584 C143.193676,43.8744956 145.550793,43.7279118 147.564023,44.4504665 C149.576506,45.1737616 151.44022,46.4715469 153.155167,48.3445627 L149.981694,51.2229365 C148.723518,49.8244674 147.478799,48.8635288 146.246789,48.3401208 C145.015526,47.8167128 143.543543,47.8774192 141.832335,48.5214998 C139.520073,49.3913787 138.114624,50.9231059 137.616737,53.1181621 C137.118849,55.3132182 137.462736,57.9576501 138.649143,61.0499771 L140.633966,66.2240909 C141.820374,69.3164179 143.335716,71.5196176 145.179994,72.83369 C147.024271,74.1477624 149.102541,74.3698592 151.414803,73.4999802 C153.126011,72.8558997 154.266817,71.9334579 154.836472,70.7319145 C155.406875,69.5303711 155.693197,67.9934616 155.696935,66.1211861 L160,66.1863345 C159.973087,68.7145357 159.449782,70.9103322 158.429336,72.7744642 C157.409639,74.6385962 155.548167,76.0792638 152.845669,77.0957265 Z" id="Fill-6"></path>
                <polygon id="Fill-7" points="160 38.3164856 164.473551 37 174 69.6835144 169.526449 71"></polygon>
                <path d="M201.199385,62.4760983 L196.53386,53.9885947 L185.316072,56.382468 L184.657978,66.006135 L180,67 L182.725204,32.2984724 L188.809556,31 L206,61.4518467 L201.199385,62.4760983 Z M186.922063,36.1931486 L186.494151,36.2850496 L185.478332,52.3884794 L194.699196,50.4207601 L186.922063,36.1931486 Z" id="Fill-8"></path>
                <polygon id="Fill-9" points="213.130016 61 209 27.5758143 213.530767 27 217.181801 56.5447398 232.521018 54.5941595 233 58.4728566"></polygon>
                <path d="M262,56.9456676 L262.388604,23 L274.531756,23.1463956 C277.59864,23.1833718 279.952346,24.0874023 281.592875,25.8577326 C283.232667,27.6288175 284.0349,30.0866033 283.998836,33.2310902 C283.962773,36.3438832 283.105341,38.7654474 281.425068,40.4965376 C279.744796,42.2268732 277.370482,43.0743075 274.303598,43.0373313 L266.666933,42.9452681 L266.50575,57 L262,56.9456676 Z M266.711828,39.0061701 L273.969457,39.092951 C275.645314,39.1133256 276.930358,38.7156428 277.825326,37.8991477 C278.720293,37.0834073 279.176609,35.8971502 279.194273,34.341131 L279.222241,31.9580522 C279.239904,30.4012784 278.81082,29.2044567 277.934989,28.367587 C277.059157,27.5299627 275.782944,27.1013406 274.107088,27.0809659 L266.849459,26.9934304 L266.711828,39.0061701 Z" id="Fill-10"></path>
                <path d="M295.476282,57.4115691 L291,57.0085673 L294.009658,24 L306.199627,25.0955458 C309.279018,25.3725635 311.574281,26.4371658 313.085416,28.2893529 C314.597292,30.1422768 315.213764,32.5971246 314.934831,35.6553698 C314.695957,38.2723024 313.828001,40.331516 312.330961,41.8337473 C310.833921,43.3367154 308.818333,44.1169326 306.284197,44.1751358 L313.142538,59 L308.095036,58.5461626 L301.683285,44.0948301 L296.730739,43.6498337 L295.476282,57.4115691 Z M304.451844,40.5775902 C306.103187,40.7256768 307.416991,40.4383446 308.395483,39.7163306 C309.373232,38.9935798 309.931098,37.8751947 310.069081,36.3619122 L310.280506,34.0448364 C310.418489,32.5315539 310.072048,31.3321265 309.240442,30.4472909 C308.408836,29.5617185 307.167732,29.0445207 305.517131,28.8964341 L298.136532,28.2326232 L297.071245,39.9137793 L304.451844,40.5775902 Z" id="Fill-11"></path>
                <path d="M329.531634,62.7805536 C325.478861,62.0842372 322.732802,60.0932546 321.292703,56.8068521 C319.853358,53.5204497 319.615979,49.0689984 320.580567,43.4524982 C321.545154,37.835998 323.255035,33.7191403 325.708704,31.1011714 C328.162372,28.4839562 331.415593,27.52313 335.468366,28.2194464 C339.521139,28.9157628 342.267198,30.9067454 343.707297,34.1931479 C345.146642,37.4795503 345.384021,41.9310016 344.419433,47.5475018 C343.454093,53.164002 341.744965,57.2816133 339.291296,59.8988286 C336.837628,62.5160438 333.584407,63.47687 329.531634,62.7805536 Z M330.197802,58.9033372 C332.654485,59.3253472 334.608527,58.7081576 336.059929,57.0517686 C337.510578,55.3961332 338.526409,52.8761309 339.107422,49.4932691 L340.061459,43.940824 C340.642472,40.5579621 340.525666,37.8435339 339.710289,35.7982928 C338.895665,33.7530518 337.259635,32.5186727 334.802198,32.0966628 C332.344762,31.6746528 330.390719,32.2918424 328.940071,33.9482314 C327.489422,35.6046204 326.473591,38.1238691 325.892578,41.5067309 L324.938541,47.0599296 C324.357528,50.4420379 324.474334,53.1564661 325.288958,55.2017072 C326.104335,57.2477018 327.740365,58.4813273 330.197802,58.9033372 Z" id="Fill-12"></path>
                <path d="M375,38.1914317 L368.729194,62.0795419 C368.258437,63.8727872 367.432939,65.3497962 366.251957,66.5105691 C365.071719,67.6713419 363.643088,68.4280766 361.964576,68.7800288 C360.286064,69.1327252 358.50418,69.061293 356.618922,68.5657323 C354.05393,67.8915912 352.111408,66.6705474 350.791355,64.901857 C349.471303,63.1339106 348.880812,60.9782959 349.019882,58.4365009 L353.42328,58.6515416 C353.381633,60.1947742 353.676135,61.494691 354.306785,62.5535242 C354.937435,63.6116133 356.056691,64.351978 357.663808,64.7746184 C359.363887,65.2210695 360.799211,65.0692761 361.970526,64.3192383 C363.142583,63.5699445 363.98816,62.2052923 364.507257,60.2260258 L369.609724,40.7912653 L358.066145,37.7576301 L359.05228,34 L375,38.1914317 Z" id="Fill-13"></path>
                <polygon id="Fill-14" points="376 73.5326652 387.809839 42 407 49.4673348 405.629485 53.1263514 390.6495 47.2975838 386.876534 57.3713208 401.325094 62.9937671 399.954579 66.6527837 385.506019 61.0310877 381.580692 71.5114655 396.560676 77.3409834 395.190897 81"></polygon>
                <path d="M412.109636,89.4794869 C408.525433,87.5370491 406.519283,84.7565496 406.090448,81.1372359 C405.661613,77.5186745 406.757688,73.1974652 409.378674,68.1743603 C411.99966,63.1512555 414.901123,59.8095404 418.084539,58.1484627 C421.268694,56.487385 424.652134,56.6280651 428.236338,58.5712551 C430.756204,59.936679 432.399948,61.6240872 433.166094,63.631975 C433.93224,65.6398628 434.170645,67.9200831 433.880573,70.4718835 L429.657177,69.9949255 C429.888201,68.1066534 429.799629,66.5208057 429.391461,65.2381347 C428.983293,63.9547115 427.980956,62.8811799 426.385188,62.0160353 C424.229204,60.8469616 422.165483,60.8085943 420.194761,61.9009334 C418.224778,62.9925202 416.465152,65.022977 414.915885,67.9907992 L412.325161,72.9567293 C410.776631,75.9253038 410.109391,78.5470681 410.322701,80.8227746 C410.536011,83.0984811 411.720659,84.8204951 413.876643,85.9895687 C415.473149,86.8547133 416.907273,87.1007153 418.179016,86.728327 C419.450758,86.3559387 420.790406,85.5442073 422.197221,84.293133 L424.945897,87.5957285 C423.032009,89.2673384 421.044312,90.34087 418.982804,90.8163234 C416.920559,91.2910245 414.629503,90.8456631 412.109636,89.4794869 Z" id="Fill-15"></path>
                <polygon id="Fill-16" points="455.833889 82.4443251 437.71676 106 434 103.220304 452.11713 79.6646291 443.32884 73.0926813 445.706662 70 467 85.9250785 464.622179 89.0170164"></polygon>
                <path d="M464.573989,121.78328 L459.37869,126 L455,120.925269 L460.195299,116.708549 L464.573989,121.78328 Z M479,110.074731 L473.804701,114.290718 L469.426011,109.21672 L474.62131,105 L479,110.074731 Z" id="Fill-17"></path>
                <polygon id="Fill-18" points="482 246.675731 478.392889 249.845355 465.046805 240.109233 455.091957 232.886975 455.020248 232.9501 460.790579 243.849953 468.364838 258.657623 464.505253 262.049299 450.762528 252.662221 440.586577 245.697663 440.478266 245.792722 446.397244 256.498001 454.333037 270.98856 450.905946 274 435 243.388026 438.823731 240.028284 453.361231 249.803024 463.109916 256.504685 463.181625 256.440817 457.761622 245.936053 449.825829 230.359742 453.649561 227"></polygon>
                <path d="M414.710501,255.631072 C418.222841,253.635539 421.529958,253.470943 424.632586,255.13804 C427.735215,256.804382 430.633355,260.135556 433.327743,265.130807 C436.022131,270.126813 437.233613,274.416114 436.962924,278.000222 C436.692234,281.583574 434.801087,284.373395 431.289483,286.368928 C427.777878,288.364461 424.470761,288.529057 421.368133,286.86196 C418.264768,285.194863 415.366628,281.863689 412.67224,276.868438 C409.978588,271.873187 408.766371,267.583886 409.03706,263.999778 C409.307749,260.415671 411.198896,257.626605 414.710501,255.631072 Z M416.570754,259.079275 C414.441283,260.288826 413.329838,261.99594 413.236421,264.19986 C413.143004,266.40378 413.90726,269.010129 415.529924,272.018907 L418.193418,276.957531 C419.816083,279.966309 421.562323,282.014694 423.431403,283.102686 C425.301218,284.191434 427.300494,284.130276 429.429229,282.920725 C431.558701,281.710419 432.670145,280.00406 432.763562,277.799385 C432.857715,275.595465 432.093459,272.989116 430.470795,269.981093 L427.806565,265.042469 C426.183901,262.033691 424.438396,259.985306 422.568581,258.897314 C420.699501,257.808566 418.700225,257.869724 416.570754,259.079275 Z" id="Fill-19"></path>
                <path d="M393.571093,265.666906 L397.769699,264 L410,295.54543 L398.565499,300.083664 C395.677096,301.230839 393.1356,301.30089 390.941754,300.293816 C388.747908,299.287496 387.084098,297.323062 385.95107,294.400515 C384.981073,291.899779 384.828464,289.622753 385.492499,287.568685 C386.156534,285.514616 387.611902,283.885372 389.859347,282.680198 L377,272.244144 L381.734598,270.364825 L394.024454,280.661531 L398.66972,278.817615 L393.571093,265.666906 Z M393.131133,285.136493 C391.582711,285.751132 390.53306,286.610571 389.982179,287.715565 C389.431298,288.821312 389.436509,290.096537 389.997067,291.542746 L390.855399,293.757253 C391.415958,295.203462 392.269823,296.142745 393.416251,296.573594 C394.562679,297.005197 395.910104,296.914056 397.458526,296.299417 L404.381759,293.550867 L400.054366,282.387943 L393.131133,285.136493 Z" id="Fill-20"></path>
                <polygon id="Fill-21" points="366.620863 292.013325 369.552297 285.565039 366.749709 275.218562 371.147605 274 380 306.677487 375.602104 307.896049 371.137923 291.416847 370.952474 291.46806 368.30331 298.039858 362.407671 311.550981 357.175627 313 364.512405 296.171346 348 280.412135 353.092026 279.001526"></polygon>
                <polygon id="Fill-22" points="326 319.360595 321.530632 320 317 286.640153 321.469368 286"></polygon>
                <polygon id="Fill-23" points="305.108761 315.570891 305.444749 315.544871 303.319811 288.315215 307.397959 288 310 321.344379 303.8111 321.823148 290.909905 295.66775 290.573917 295.69377 292.680189 322.684042 288.602041 323 286 289.655621 292.1889 289.176852"></polygon>
                <path d="M257,289.276362 L255.01962,323 L242.962365,322.255025 C239.916021,322.066528 237.620098,321.05195 236.073865,319.21054 C234.527631,317.36913 233.846029,314.886381 234.029058,311.762292 C234.210624,308.670495 235.17702,306.30565 236.927515,304.667756 C238.678741,303.030614 241.076429,302.305915 244.122772,302.494412 L251.706053,302.962274 L252.526026,289 L257,289.276362 Z M251.476168,306.876397 L244.269196,306.431064 C242.605091,306.32818 241.309242,306.660114 240.38238,307.426868 C239.454787,308.194372 238.945232,309.350886 238.85445,310.896409 L238.715347,313.264258 C238.624565,314.810531 238.995016,316.021116 239.825971,316.896762 C240.656925,317.772408 241.904454,318.262049 243.568559,318.364183 L250.775531,318.809515 L251.476168,306.876397 Z" id="Fill-24"></path>
                <path d="M223.57751,287.485941 L228,288.115732 L223.329031,321 L211.284787,319.28487 C208.242574,318.851474 206.018057,317.669415 204.612711,315.738694 C203.206628,313.808712 202.719992,311.319818 203.152803,308.273488 C203.522941,305.666462 204.489577,303.649357 206.052712,302.221436 C207.615108,300.793515 209.655293,300.114994 212.173267,300.185135 L206.12202,285 L211.109303,285.710269 L216.737323,300.498923 L221.630228,301.195902 L223.57751,287.485941 Z M213.808659,303.878976 C212.177691,303.646404 210.858612,303.867163 209.850685,304.541254 C208.843496,305.214607 208.232252,306.305113 208.018427,307.812773 L207.690316,310.121516 C207.476491,311.628438 207.759625,312.846674 208.539717,313.774749 C209.319809,314.702824 210.52534,315.283148 212.156308,315.51572 L219.448476,316.553805 L221.101565,304.917061 L213.808659,303.878976 Z" id="Fill-25"></path>
                <path d="M189.344799,280.374143 C193.274231,281.296223 195.853959,283.440946 197.083984,286.809066 C198.314748,290.177187 198.305144,294.644856 197.055911,300.210563 C195.80594,305.777024 193.909559,309.8014 191.365291,312.284445 C188.821023,314.766735 185.584542,315.547595 181.655849,314.625516 C177.726418,313.704191 175.14669,311.559468 173.915926,308.190592 C172.685162,304.822472 172.694766,300.355558 173.944737,294.789096 C175.19397,289.22339 177.09109,285.198259 179.635358,282.715969 C182.178887,280.232924 185.415368,279.452819 189.344799,280.374143 Z M188.481935,284.217275 C186.099454,283.658439 184.153576,284.167433 182.643563,285.743502 C181.133551,287.320326 180.00178,289.785247 179.249728,293.137509 L178.013793,298.640535 C177.261742,301.992797 177.228498,304.715235 177.9148,306.807095 C178.601841,308.898955 180.136233,310.224303 182.517975,310.783139 C184.900456,311.341975 186.846334,310.832981 188.356346,309.256157 C189.867098,307.680088 190.99813,305.215167 191.75092,301.862905 L192.986117,296.359879 C193.738907,293.007617 193.771412,290.285179 193.08511,288.193319 C192.398807,286.101459 190.864416,284.776111 188.481935,284.217275 Z" id="Fill-26"></path>
                <path d="M154.111485,274.7067 L154.343781,274.783152 C155.456675,273.506923 156.72747,272.609171 158.156165,272.088385 C159.584102,271.568355 161.304305,271.64178 163.316018,272.308659 C166.720746,273.438039 168.823555,275.711939 169.625203,279.131871 C170.426852,282.551046 169.942523,286.914904 168.172216,292.222687 C166.319163,297.777995 163.939269,301.667998 161.031775,303.891181 C158.124282,306.115121 154.721071,306.579892 150.820627,305.286253 C147.973105,304.342327 145.974298,302.91622 144.822687,301.009445 C143.671077,299.101913 143.063767,296.90371 143,294.414835 L147.409825,294.180935 C147.462206,296.083168 147.803817,297.636444 148.433901,298.839249 C149.063984,300.042054 150.245201,300.930721 151.97907,301.506009 C154.362,302.296272 156.442794,301.983649 158.221451,300.568139 C159.999349,299.152629 161.429563,296.824986 162.509815,293.584453 L164.19358,288.538577 C165.315584,285.174659 165.641254,282.368619 165.16983,280.121971 C164.699165,277.874565 163.256805,276.35081 160.84275,275.550707 C158.892528,274.903508 157.151827,274.9951 155.620649,275.823968 C154.08947,276.652836 153.000108,278.039582 152.351047,279.984205 L151.30116,283.131632 L157.894263,285.318481 L156.751003,288.743712 L146.072986,285.202667 L151.47728,269 L155.562954,270.354953 L154.111485,274.7067 Z" id="Fill-27"></path>
                <polygon id="Fill-28" points="144 266.796546 129.783105 297 111 288.203454 112.649219 284.698186 127.312251 291.564832 131.853924 281.915332 117.712129 275.292705 119.362092 271.787437 133.503887 278.410806 138.22922 268.371914 123.566188 261.504526 125.216151 258"></polygon>
                <path d="M110.000113,247.659922 C112.356776,249.205141 114.084748,250.949936 115.182535,252.89505 C116.281068,254.839419 116.886642,256.92081 117,259.138479 L112.85794,259.753588 C112.666275,257.713899 112.165111,255.969104 111.354449,254.519205 C110.544532,253.069306 109.335623,251.817492 107.728468,250.764509 C105.826731,249.517164 104.065945,249.004077 102.445366,249.223758 C100.824787,249.444185 99.4868585,250.356423 98.4315804,251.961216 C97.570205,253.27186 97.2875545,254.531865 97.5851206,255.741231 C97.8826866,256.950598 98.832064,258.290284 100.433253,259.761034 L103.184434,262.310832 C105.447875,264.407117 106.700038,266.510848 106.941671,268.621282 C107.183304,270.731716 106.653054,272.776618 105.351669,274.755988 C103.681123,277.296849 101.553414,278.69611 98.9692874,278.954515 C96.3844155,279.212176 93.6190648,278.375151 90.6724898,276.443441 C88.503017,275.021095 86.8652851,273.43045 85.759294,271.672252 C84.6540487,269.914054 84.0671202,268.036706 84,266.040953 L88.0615155,265.372972 C88.2151461,267.004574 88.6521729,268.468622 89.3718502,269.763627 C90.0922733,271.058633 91.2295871,272.215127 92.7830459,273.233854 C94.6042396,274.427582 96.2524125,274.953329 97.7268187,274.809605 C99.2012249,274.665881 100.431015,273.845239 101.415444,272.34768 C102.241768,271.090654 102.510995,269.850755 102.222378,268.627985 C101.933761,267.405214 100.97096,266.027549 99.3332279,264.494989 L96.7028633,262.024129 C94.4394224,259.927844 93.1715971,257.833793 92.8993876,255.741231 C92.6264322,253.64867 93.1589188,251.585895 94.4953558,249.552909 C95.6207372,247.840881 96.9825307,246.600237 98.5814821,245.830234 C100.180433,245.060231 101.953897,244.825656 103.902619,245.127253 C105.851341,245.428105 107.883591,246.272576 110.000113,247.659922 Z" id="Fill-29"></path>
                <path d="M87.2197568,230.294071 C89.2303993,232.275242 90.5842467,234.330428 91.2827903,236.459626 C91.9805883,238.588825 92.1692026,240.7569 91.8486329,242.963103 L87.6678088,242.761248 C87.8765518,240.715034 87.7252131,238.899084 87.2130472,237.313399 C86.7008814,235.727714 85.7593013,234.259404 84.3883071,232.90847 C82.7660757,231.310075 81.1393713,230.460788 79.5074483,230.362103 C77.8755253,230.262671 76.3859949,230.900384 75.038857,232.275242 C73.9384832,233.397408 73.4166257,234.58312 73.4732845,235.83238 C73.5291978,237.080892 74.1994119,238.585835 75.4831814,240.346461 L77.6839291,243.393727 C79.4955202,245.898975 80.3140909,248.214329 80.1403869,250.33979 C79.9659374,252.465251 79.0482137,254.376147 77.3872158,256.071731 C75.2543096,258.248029 72.8955137,259.211701 70.310828,258.961251 C67.7261423,258.711549 65.1772411,257.348652 62.6641244,254.871814 C60.8137668,253.047641 59.5173236,251.162911 58.7755405,249.215382 C58.0337573,247.2686 57.8242688,245.305371 58.1463294,243.326442 L62.2593121,243.461012 C62.0923177,245.097535 62.2354558,246.624159 62.6894718,248.040136 C63.1434878,249.455365 64.0336276,250.816019 65.3584002,252.122097 C66.9120446,253.653206 68.4254313,254.492027 69.8993061,254.637811 C71.3731808,254.783595 72.7382109,254.21541 73.9958875,252.932508 C75.0507852,251.855199 75.5562415,250.686682 75.5115108,249.426956 C75.4660347,248.166482 74.7898564,246.621916 73.4829761,244.793257 L71.3851089,241.847666 C69.5735179,239.341671 68.7378003,237.032297 68.8779564,234.918798 C69.0181124,232.804552 69.9418002,230.877208 71.6475287,229.13602 C73.0848734,227.669205 74.6616286,226.713009 76.3792853,226.266685 C78.096942,225.819613 79.8816947,225.934745 81.7342889,226.611334 C83.5861375,227.287923 85.4148754,228.515502 87.2197568,230.294071 Z" id="Fill-30"></path>
                <path d="M185,216 L162.382875,216 L162.382875,211.450568 L173.452048,201.63396 C175.24078,200.037238 176.606491,198.496984 177.548437,197.012456 C178.491127,195.527928 178.962472,194.019624 178.962472,192.486801 L178.962472,191.912456 C178.962472,190.028934 178.450981,188.568182 177.428742,187.530944 C176.406504,186.492963 174.921098,185.974344 172.972525,185.974344 C171.087888,185.974344 169.602482,186.452841 168.516307,187.41132 C167.430132,188.369056 166.616058,189.725787 166.072599,191.481512 L162,189.948689 C162.798461,187.650568 164.092058,185.750699 165.88079,184.250568 C167.670265,182.749694 170.097618,182 173.164334,182 C175.368652,182 177.268901,182.414598 178.866568,183.244537 C180.46349,184.074476 181.677538,185.223907 182.507968,186.692832 C183.338397,188.161014 183.753984,189.837238 183.753984,191.72076 C183.753984,193.380638 183.44248,194.929065 182.819472,196.36604 C182.196464,197.802273 181.334066,199.159747 180.232279,200.436233 C179.129748,201.713462 177.732068,203.054589 176.039241,204.458872 L167.17513,212.073208 L185,212.073208 L185,216 Z" id="Fill-31"></path>
                <path d="M203,217 C198.919492,217 195.899302,215.505469 193.939432,212.516408 C191.979561,209.526594 191,205.188168 191,199.499624 C191,193.811832 191.979561,189.473406 193.939432,186.483592 C195.899302,183.494531 198.919492,182 203,182 C207.080508,182 210.100698,183.494531 212.060568,186.483592 C214.020439,189.473406 215,193.811832 215,199.499624 C215,205.188168 214.020439,209.526594 212.060568,212.516408 C210.100698,215.505469 207.080508,217 203,217 Z M203,213.073754 C205.506481,213.073754 207.345214,212.13657 208.518445,210.262201 C209.690927,208.387832 210.277168,205.73724 210.277168,202.311929 L210.277168,196.688071 C210.277168,193.26276 209.690927,190.612168 208.518445,188.737799 C207.345214,186.86343 205.506481,185.926246 203,185.926246 C200.494267,185.926246 198.654786,186.86343 197.481555,188.737799 C196.309073,190.612168 195.722832,193.26276 195.722832,196.688071 L195.722832,202.311929 C195.722832,205.73724 196.309073,208.387832 197.481555,210.262201 C198.654786,212.13657 200.494267,213.073754 203,213.073754 Z M203,202.360067 C201.007976,202.360067 200.011964,201.584596 200.011964,200.032901 L200.011964,198.967099 C200.011964,197.415404 201.007976,196.639933 203,196.639933 C204.992024,196.639933 205.988036,197.415404 205.988036,198.967099 L205.988036,200.032901 C205.988036,201.584596 204.992024,202.360067 203,202.360067 Z" id="Fill-32"></path>
                <path d="M252.999626,217 C248.919245,217 245.899149,215.505469 243.93934,212.516408 C241.979531,209.526594 241,205.188168 241,199.499624 C241,193.811832 241.979531,189.473406 243.93934,186.483592 C245.899149,183.494531 248.919245,182 252.999626,182 C257.080007,182 260.100103,183.494531 262.059912,186.483592 C264.019721,189.473406 265,193.811832 265,199.499624 C265,205.188168 264.019721,209.526594 262.059912,212.516408 C260.100103,215.505469 257.080007,217 252.999626,217 Z M252.999626,213.073754 C255.506029,213.073754 257.345453,212.13657 258.517899,210.262201 C259.690345,208.387832 260.276568,205.73724 260.276568,202.311929 L260.276568,196.688071 C260.276568,193.26276 259.690345,190.612168 258.517899,188.737799 C257.345453,186.86343 255.506029,185.926246 252.999626,185.926246 C250.493971,185.926246 248.654547,186.86343 247.481353,188.737799 C246.308907,190.612168 245.722684,193.26276 245.722684,196.688071 L245.722684,202.311929 C245.722684,205.73724 246.308907,208.387832 247.481353,210.262201 C248.654547,212.13657 250.493971,213.073754 252.999626,213.073754 Z M252.999626,202.360067 C251.007664,202.360067 250.011683,201.584596 250.011683,200.032901 L250.011683,198.967099 C250.011683,197.415404 251.007664,196.639933 252.999626,196.639933 C254.991588,196.639933 255.987569,197.415404 255.987569,198.967099 L255.987569,200.032901 C255.987569,201.584596 254.991588,202.360067 252.999626,202.360067 Z" id="Fill-33"></path>
                <polygon id="Fill-34" points="271.748213 216 271.748213 212.054105 281.055159 212.054105 281.055159 185.410052 280.724574 185.410052 272.693055 193.592816 270 190.816858 278.598131 182 285.590251 182 285.590251 212.054105 294 212.054105 294 216"></polygon>
                <path d="M344,216 L321.382887,216 L321.382887,211.450568 L332.452418,201.63396 C334.241208,200.037238 335.606963,198.496984 336.54894,197.012456 C337.49166,195.527928 337.96302,194.019624 337.96302,192.486801 L337.96302,191.912456 C337.96302,190.028934 337.451513,188.568182 336.429241,187.530944 C335.406969,186.492963 333.921515,185.974344 331.972879,185.974344 C330.088182,185.974344 328.602728,186.452841 327.516518,187.41132 C326.430308,188.369056 325.616208,189.725787 325.072731,191.481512 L321,189.948689 C321.798487,187.650568 323.092126,185.750699 324.880915,184.250568 C326.669705,182.749694 329.097879,182 332.164695,182 C334.369085,182 336.269395,182.414598 337.867113,183.244537 C339.464087,184.074476 340.678174,185.223907 341.508631,186.692832 C342.339087,188.161014 342.754687,189.837238 342.754687,191.72076 C342.754687,193.380638 342.443173,194.929065 341.820145,196.36604 C341.197117,197.802273 340.334691,199.159747 339.232868,200.436233 C338.130301,201.713462 336.732577,203.054589 335.039695,204.458872 L326.174554,212.073208 L344,212.073208 L344,216 Z" id="Fill-35"></path>
                <polygon id="Fill-36" points="351.748267 216 351.748267 212.054105 361.055496 212.054105 361.055496 185.410052 360.724901 185.410052 352.693137 193.592816 350 190.816858 358.598393 182 365.590727 182 365.590727 212.054105 374 212.054105 374 216"></polygon>
                <path d="M266.500375,155 C291.060097,155 311,174.939903 311,199.499625 C311,224.060097 291.060097,244 266.500375,244 C241.939903,244 222,224.060097 222,199.499625 C222,174.939903 241.939903,155 266.500375,155 Z" id="Fill-37" fill-opacity="0"></path>
                <path d="M266.000372,153 C240.611871,153 220,173.611871 220,198.999628 C220,224.388129 240.611871,245 266.000372,245 C291.388129,245 312,224.388129 312,198.999628 C312,173.611871 291.388129,153 266.000372,153 Z M266.000372,156.722436 C289.333344,156.722436 308.277564,175.666656 308.277564,198.999628 C308.277564,222.333344 289.333344,241.277564 266.000372,241.277564 C242.666656,241.277564 223.722436,222.333344 223.722436,198.999628 C223.722436,175.666656 242.666656,156.722436 266.000372,156.722436 Z" id="Fill-38"></path>
                <path d="M268.500371,121.946242 L281.683383,116.439753 C283.086992,115.852935 284,114.489445 284,112.978875 L284,105.758455 C284.003775,104.499271 283.369079,103.321882 282.311253,102.625504 C281.252669,101.928376 279.911998,101.806059 278.742703,102.298327 L255.317359,112.084389 C254.231476,112.539886 253.421614,113.472643 253.128911,114.605758 C253.043981,114.79411 253,114.998971 253,115.205333 L253,127.460986 C253.000758,127.519518 253.009858,127.577299 253.02654,127.63358 C253.090996,128.084575 253.3655,128.480039 253.767398,128.701409 C253.82427,128.733677 253.883417,128.761442 253.944839,128.786205 L255.073945,129.222943 L255.130818,129.244704 L256.167411,129.645422 L256.211392,129.663432 L257.627893,130.211229 L257.841733,130.293774 L259.471316,130.924116 L260.934073,131.489923 L263.226408,132.376154 L264.121958,132.722842 L264.363096,132.816643 L264.855232,133.006496 L265.097129,133.100297 L268.219042,134.307703 L268.438949,134.392499 L270.068531,135.022841 L270.88446,135.337262 L272.514042,135.967604 L274.144383,136.597946 L274.961828,136.914618 L275.699653,137.199773 L276.33359,137.444406 L277.352742,137.83912 L277.40734,137.860882 L278.813983,138.404927 L279.037681,138.491974 L280.209251,138.94522 C280.253232,138.96248 280.29873,138.975237 280.344228,138.984241 L280.34802,138.984241 C280.397309,138.993997 280.447357,138.99925 280.497404,139 L280.508021,138.998499 C280.56186,138.996998 280.614941,138.990245 280.667263,138.977488 L280.667263,138.975987 C280.875037,138.92571 281.052479,138.793638 281.159399,138.609788 L281.159399,138.611289 L281.159399,138.609038 C281.17229,138.583524 281.182906,138.55801 281.192764,138.531746 C281.229162,138.46646 281.248878,138.393671 281.251153,138.319381 C281.255702,138.293116 281.258736,138.266102 281.261011,138.239837 C281.259494,138.194813 281.254186,138.150539 281.245086,138.106265 C281.241295,138.084503 281.240536,138.062741 281.23447,138.04248 C281.220062,137.995955 281.201863,137.951681 281.179114,137.908157 C281.170773,137.891648 281.16774,137.874389 281.15864,137.85788 L281.15864,137.866134 C281.146507,137.845873 281.141199,137.824862 281.12755,137.804601 L276.22212,130.601441 C275.871028,130.082909 275.889227,129.400039 276.268376,128.901018 C276.313116,128.841736 276.361647,128.784705 276.413211,128.732176 C276.46705,128.678147 276.525439,128.62862 276.586861,128.584346 L276.600511,128.572339 L277.897959,127.6711 L280.34347,125.972178 L281.330774,125.285555 C281.386888,125.246534 281.437694,125.199258 281.480917,125.14673 C281.615894,124.985392 281.678074,124.776029 281.652292,124.567415 C281.62651,124.358802 281.515799,124.17045 281.34594,124.045132 C281.291342,124.00461 281.232195,123.971592 281.168498,123.946828 L280.34347,123.627905 L278.996732,123.106372 L278.713129,122.997563 L277.30497,122.452767 L276.388187,122.098575 L276.271409,122.05205 L275.779274,121.862197 L275.547993,121.773649 L274.943629,121.540272 L274.64031,121.421708 L274.020781,121.182328 L273.823623,121.105786 L273.11234,120.830387 L268.500371,121.946242 Z" id="Fill-39"></path>
            </g>
        </g>
    </g>
</svg>