<?xml version="1.0" encoding="UTF-8"?>
<svg width="484px" height="315px" viewBox="0 0 484 315" version="1.1" xmlns="http://www.w3.org/2000/svg" xmlns:xlink="http://www.w3.org/1999/xlink">
    <title>Group 40</title>
    <g id="Archive" stroke="none" stroke-width="1" fill="none" fill-rule="evenodd">
        <g id="Desktop-HD-Copy-10" transform="translate(-684.000000, -714.000000)" fill="#FD6750">
            <g id="Group-40" transform="translate(684.000000, 714.000000)">
                <path d="M242.50034,2 C375.235611,2 483,71.6772992 483,157.5 C483,243.322701 375.235611,313 242.50034,313 C109.764389,313 2,243.322701 2,157.5 C2,71.6772992 109.764389,2 242.50034,2 Z" id="Fill-1" fill-opacity="0"></path>
                <path d="M242.000339,0 C161.956004,0 90.9640361,25.3309137 46.9636043,64.2375398 C17.4065182,90.3734182 0,122.638576 0,157.5 C0,192.361424 17.4065182,224.627261 46.9636043,250.76246 C90.9640361,289.669086 161.956004,315 242.000339,315 C322.043996,315 393.036642,289.669086 437.036396,250.76246 C466.593482,224.627261 484,192.361424 484,157.5 C484,122.638576 466.593482,90.3734182 437.036396,64.2375398 C393.036642,25.3309137 322.043996,0 242.000339,0 Z M242.000339,3.39647543 C321.108971,3.39647543 391.304337,28.3306808 434.790437,66.7835378 C463.557706,92.2204216 480.607313,123.56989 480.607313,157.5 C480.607313,191.43011 463.557706,222.779578 434.790437,248.216462 C391.304337,286.669319 321.108971,311.603525 242.000339,311.603525 C162.891707,311.603525 92.6956634,286.669319 49.2095629,248.216462 C20.4422942,222.779578 3.39268666,191.43011 3.39268666,157.5 C3.39268666,123.56989 20.4422942,92.2204216 49.2095629,66.7835378 C92.6956634,28.3306808 162.891707,3.39647543 242.000339,3.39647543 Z" id="Fill-2"></path>
                <path d="M72.7970837,112.75681 C71.1808382,114.755084 69.4502924,116.155319 67.6047779,116.958891 C65.7592635,117.762462 63.8422278,118.100663 61.8523341,117.974181 L61.7219917,114.116489 C63.560822,114.152921 65.1677096,113.875211 66.5426546,113.284047 C67.9175996,112.692882 69.1555181,111.716086 70.2577467,110.353658 C71.561839,108.741703 72.1975087,107.181991 72.1654245,105.675208 C72.1326718,104.168426 71.454223,102.847929 70.1294096,101.714406 C69.0472336,100.789164 67.9516892,100.399408 66.8434447,100.546512 C65.7345319,100.692928 64.4438081,101.422948 62.9706049,102.736571 L60.4185679,104.990557 C58.3203898,106.845852 56.317796,107.773843 54.4107867,107.775905 C52.5044458,107.77728 50.7344631,107.079568 49.1001702,105.681395 C47.0026605,103.887279 45.9692793,101.792769 46.0006952,99.3992402 C46.0314426,97.0050237 47.0574711,94.559252 49.0774438,92.0619254 C50.5653522,90.2224411 52.1495135,88.8881964 53.8292592,88.0585038 C55.5090049,87.2288112 57.2422243,86.8864856 59.029586,87.032902 L59.214739,90.8218545 C57.7442096,90.7929837 56.3946646,91.0404479 55.1667725,91.5656221 C53.9388805,92.0901088 52.7925359,93.0112257 51.7270705,94.3282854 C50.4784573,95.8721873 49.843456,97.3267272 49.8227349,98.6919049 C49.8013454,100.05777 50.4096098,101.26897 51.645523,102.32688 C52.6835831,103.214314 53.7624169,103.589635 54.8820246,103.452842 C56.0016322,103.315362 57.327114,102.577094 58.8598067,101.236662 L61.3289593,99.0844107 C63.4271375,97.2298037 65.423047,96.28669 67.3166878,96.2543821 C69.2109971,96.2227617 70.9963536,96.9245978 72.6747624,98.3598904 C74.0878075,99.5690282 75.0570201,100.945204 75.5824001,102.489794 C76.1077802,104.034383 76.1371908,105.68277 75.6719688,107.436329 C75.2067467,109.189201 74.2482289,110.962695 72.7970837,112.75681 Z" id="Fill-3"></path>
                <path d="M84.6585608,100 L66,75.7697482 L75.1219323,69.1033486 C77.4269516,67.4194111 79.6835897,66.7467787 81.8932288,67.0847782 C84.102868,67.423451 86.0719834,68.7148513 87.8005751,70.9596524 C89.5111966,73.1815612 90.2237827,75.3724979 89.9390247,77.5338091 C89.6542667,79.6951204 88.3597237,81.6174081 86.0553956,83.3013457 L80.3180747,87.4940202 L88.0438635,97.5262749 L84.6585608,100 Z M78.153361,84.6822956 L83.6052326,80.6983459 C84.8645265,79.777937 85.5992298,78.7794247 85.8100337,77.7034822 C86.0208375,76.6275397 85.6980657,75.533418 84.8431006,74.4231369 L83.5326608,72.7216934 C82.6776957,71.6114123 81.6900277,71.0034173 80.5703482,70.8997282 C79.4506687,70.7953658 78.261182,71.2033891 77.0025792,72.123798 L71.5507076,76.1077477 L78.153361,84.6822956 Z" id="Fill-4"></path>
                <polygon id="Fill-5" points="105.273942 85 91 57.8998031 107.726058 49 109.382049 52.1442745 96.326027 59.0919418 100.886446 67.7504544 113.478628 61.0495304 115.135298 64.1944865 102.543116 70.8947289 107.287308 79.9022266 120.34333 72.9552408 122 76.1001969"></polygon>
                <path d="M138.375619,70.1755154 C134.816313,71.4937902 131.652254,71.2312152 128.881366,69.3877905 C126.11117,67.5443657 123.796444,64.2368662 121.93788,59.4646168 C120.078623,54.6930425 119.557394,50.720668 120.373501,47.5488435 C121.189608,44.3763439 123.376969,42.1312942 126.936276,40.8123444 C129.438589,39.8855695 131.621105,39.7519195 133.485207,40.4107194 C135.348617,41.0701944 137.074278,42.2534692 138.662191,43.961219 L135.72379,46.5856186 C134.558813,45.3105438 133.406295,44.4343939 132.265545,43.957169 C131.125487,43.479944 129.76254,43.535294 128.178088,44.1225439 C126.037105,44.9156688 124.735763,46.3122436 124.274756,48.3136184 C123.813749,50.3149931 124.132163,52.7260928 125.230688,55.5455674 L127.068487,60.2631417 C128.167013,63.0826163 129.570108,65.0914161 131.277772,66.2895409 C132.985436,67.4876657 134.90976,67.6901657 137.050743,66.8970408 C138.635195,66.3097909 139.691497,65.468741 140.218955,64.3732162 C140.747106,63.2776913 141.01222,61.8763915 141.015681,60.1693167 L145,60.2287167 C144.975081,62.5338414 144.490539,64.5358911 143.545682,66.2355409 C142.601517,67.9351907 140.877932,69.2487405 138.375619,70.1755154 Z" id="Fill-6"></path>
                <polygon id="Fill-7" points="146 35.1616049 150.154012 34 159 62.8383951 154.845988 64"></polygon>
                <path d="M182.753302,56.8530901 L178.626107,49.0728785 L168.702679,51.2672623 L168.120519,60.0889571 L164,61 L166.410757,29.1902664 L171.793068,28 L187,55.9141928 L182.753302,56.8530901 Z M170.123364,32.7603862 L169.744826,32.8446288 L168.846216,47.6061061 L177.003135,45.8023634 L170.123364,32.7603862 Z" id="Fill-8"></path>
                <polygon id="Fill-9" points="192.785848 55 189 24.5250072 193.153203 24 196.499985 50.937851 210.560934 49.1593807 211 52.6958398"></polygon>
                <path d="M238,51.9504616 L238.353277,21 L249.392505,21.1334783 C252.180581,21.1671919 254.320314,21.9914551 255.811704,23.6055797 C257.302425,25.2203924 258.031727,27.4613148 257.998942,30.3283469 C257.966157,33.1664817 257.186673,35.3743786 255.659153,36.9527255 C254.131633,38.5303844 251.973165,39.3030451 249.185089,39.2693315 L242.242666,39.1853915 L242.096137,52 L238,51.9504616 Z M242.28348,35.593861 L248.881325,35.6729847 C250.404831,35.6915616 251.573053,35.3289684 252.38666,34.584517 C253.200267,33.8407537 253.615099,32.7591664 253.631157,31.340443 L253.656582,29.1676358 C253.67264,27.7482244 253.282564,26.6570046 252.486353,25.8939764 C251.690142,25.1302601 250.529949,24.7394576 249.006444,24.7208807 L242.408599,24.6410689 L242.28348,35.593861 Z" id="Fill-10"></path>
                <path d="M268.103259,52.5477203 L264,52.1792616 L266.758853,22 L277.932991,23.0016419 C280.755766,23.2549152 282.859758,24.2282659 284.244964,25.9216941 C285.630851,27.6157959 286.19595,29.8602282 285.940262,32.6563381 C285.721294,35.0489622 284.925667,36.9316718 283.553381,38.3051404 C282.181095,39.6792826 280.333472,40.3926241 278.010514,40.4458384 L284.297326,54 L279.67045,53.5850629 L273.793011,40.3724161 L269.253178,39.9655622 L268.103259,52.5477203 Z M276.330857,37.1566539 C277.844588,37.2920473 279.048909,37.0293437 279.945859,36.3692165 C280.842129,35.7084158 281.353507,34.6858923 281.479991,33.3023197 L281.673797,31.1838505 C281.800282,29.8002779 281.482711,28.7036585 280.720405,27.8946659 C279.958099,27.0849998 278.820421,26.6121332 277.30737,26.4767398 L270.541821,25.869827 L269.565308,36.5497411 L276.330857,37.1566539 Z" id="Fill-11"></path>
                <path d="M298.769103,56.7993633 C295.040552,56.1627311 292.514177,54.3424042 291.189287,51.3376934 C289.86509,48.3329826 289.646701,44.2630842 290.534121,39.1279983 C291.421541,33.9929124 292.994632,30.2289282 295.252007,27.8353567 C297.509382,25.4424742 300.502346,24.5640046 304.230897,25.2006367 C307.959448,25.8372689 310.485823,27.6575958 311.810713,30.6623066 C313.13491,33.6670174 313.353299,37.7369158 312.465879,42.8720017 C311.577765,48.0070876 310.005368,51.7717607 307.747993,54.1646433 C305.490618,56.5575258 302.497654,57.4359954 298.769103,56.7993633 Z M299.381978,53.2544798 C301.642126,53.6403174 303.439845,53.0760298 304.775135,51.561617 C306.109732,50.0478932 307.044296,47.7438911 307.578828,44.6509889 L308.456542,39.5744676 C308.991074,36.4815654 308.883613,33.9998024 308.133466,32.1298677 C307.384012,30.2599331 305.878864,29.1313579 303.618022,28.7455202 C301.357181,28.3596826 299.559462,28.9239702 298.224865,30.438383 C296.890268,31.9527958 295.955704,34.2561089 295.421172,37.3490111 L294.543458,42.4262214 C294.008926,45.5184346 294.116387,48.0001976 294.865841,49.8701323 C295.615988,51.7407559 297.121136,52.8686421 299.381978,53.2544798 Z" id="Fill-12"></path>
                <path d="M341,34.8321662 L335.211563,56.672724 C334.777019,58.3122626 334.015021,59.6626708 332.924884,60.7239489 C331.835433,61.7852269 330.516696,62.4770986 328.967301,62.7988835 C327.417906,63.1213488 325.773089,63.0560393 324.032851,62.6029553 C321.665166,61.9865976 319.872069,60.8702148 318.653559,59.2531264 C317.435049,57.6367183 316.88998,55.6658705 317.018353,53.3419437 L321.083027,53.5385523 C321.044584,54.9495078 321.316432,56.1380032 321.898571,57.1060792 C322.48071,58.073475 323.513869,58.7503799 324.997361,59.136794 C326.566665,59.5449778 327.89158,59.4061953 328.972793,58.7204464 C330.054692,58.0353778 330.835225,56.7876958 331.314391,54.9780807 L336.024361,37.2091569 L325.36875,34.4355475 L326.279028,31 L341,34.8321662 Z" id="Fill-13"></path>
                <polygon id="Fill-14" points="341 66.2985457 352.047914 38 370 44.7014543 368.717905 47.9851872 354.704371 42.7542419 351.174823 51.7947751 364.691217 56.8405602 363.409122 60.124293 349.892727 55.0791813 346.220647 64.4846485 360.234181 69.7162672 358.952774 73"></polygon>
                <path d="M374.673234,81.6136498 C371.345045,79.8426036 369.482191,77.3074423 369.083987,74.0074798 C368.685783,70.7082032 369.703568,66.7682771 372.13734,62.1883874 C374.571113,57.6084976 377.265328,54.5616397 380.221358,53.0471278 C383.178073,51.5326158 386.319839,51.6608829 389.648028,53.432615 C391.987904,54.6775603 393.514238,56.2160795 394.225659,58.0468007 C394.93708,59.8775219 395.158456,61.9565463 394.889103,64.2831879 L390.967378,63.8483145 C391.181901,62.1266545 391.099656,60.6807346 390.720643,59.5112405 C390.341629,58.3410605 389.410888,57.3622523 387.929104,56.5734439 C385.927118,55.5075238 384.010805,55.4725419 382.18085,56.4684981 C380.351579,57.4637685 378.717641,59.3150673 377.279036,62.0210228 L374.873364,66.5487826 C373.435443,69.2554241 372.815863,71.6458562 373.013937,73.7207651 C373.212011,75.795674 374.31204,77.3657455 376.314025,78.4316656 C377.796495,79.2204739 379.128182,79.4447699 380.309086,79.1052393 C381.48999,78.7657088 382.733948,78.0256008 384.040276,76.8849154 L386.592619,79.8961054 C384.815437,81.4202203 382.969718,82.3990285 381.055461,82.8325301 C379.140519,83.2653458 377.01311,82.859281 374.673234,81.6136498 Z" id="Fill-15"></path>
                <polygon id="Fill-16" points="413.84899 74.407298 397.378872 96 394 93.4519453 410.470118 71.8592434 402.480764 65.8349579 404.64242 63 424 77.5979886 421.838344 80.432265"></polygon>
                <path d="M421.776157,111.184872 L417.013799,115 L413,110.408577 L417.762358,106.593449 L421.776157,111.184872 Z M435,100.591423 L430.237642,104.405888 L426.223843,99.8151278 L430.986201,96 L435,100.591423 Z" id="Fill-17"></path>
                <polygon id="Fill-18" points="438 224.001201 434.699878 226.90107 422.48963 217.993553 413.382003 211.385956 413.316397 211.443709 418.595636 221.415915 425.525278 234.963357 421.994167 238.06638 409.421036 229.478202 400.111123 223.106373 400.012031 223.193341 405.427266 232.987533 412.687672 246.244853 409.552248 249 395 220.9933 398.498307 217.919494 411.798573 226.862341 420.717582 232.993648 420.783188 232.935216 415.824462 223.324474 408.564057 209.073807 412.062364 206"></polygon>
                <path d="M376.302608,231.487154 C379.564067,229.667697 382.634961,229.517625 385.515973,231.037625 C388.396985,232.556937 391.088116,235.594183 393.590047,240.148677 C396.091979,244.703859 397.216926,248.614692 396.965572,251.882555 C396.714218,255.14973 394.958152,257.693389 391.697377,259.512846 C388.436601,261.332303 385.365707,261.482375 382.484695,259.962375 C379.602999,258.442375 376.911869,255.405128 374.409937,250.850635 C371.908689,246.296141 370.783058,242.385308 371.034413,239.117445 C371.285767,235.849582 373.041832,233.306611 376.302608,231.487154 Z M378.029986,234.631104 C376.05262,235.73393 375.020564,237.290416 374.93382,239.299872 C374.847075,241.309329 375.556741,243.685706 377.063501,246.429004 L379.536746,250.931867 C381.043505,253.675164 382.665014,255.542809 384.400588,256.534802 C386.136845,257.527484 387.993316,257.471723 389.969999,256.368896 C391.947365,255.265382 392.97942,253.709584 393.066165,251.699439 C393.153592,249.689982 392.443926,247.313605 390.937166,244.570996 L388.463239,240.068133 C386.956479,237.324836 385.335654,235.457191 383.599396,234.465198 C381.863822,233.472516 380.007352,233.528277 378.029986,234.631104 Z" id="Fill-19"></path>
                <path d="M358.06463,241.4867 L361.881545,240 L373,268.135114 L362.604999,272.182727 C359.979178,273.205883 357.668727,273.268361 355.674322,272.37016 C353.679916,271.472631 352.167362,269.720569 351.137337,267.113973 C350.255521,264.883587 350.116786,262.852726 350.720454,261.020719 C351.324122,259.188712 352.647184,257.735602 354.690316,256.660717 L343,247.352885 L347.30418,245.676736 L358.476776,254.860284 L362.699745,253.21571 L358.06463,241.4867 Z M357.664666,258.851467 C356.25701,259.399658 355.302781,260.166185 354.801981,261.15172 C354.30118,262.137927 354.305917,263.27529 354.815516,264.565152 L355.595818,266.540253 C356.105416,267.830115 356.881658,268.667853 357.923865,269.052125 C358.966072,269.437068 360.191004,269.35578 361.59866,268.807588 L367.892508,266.356179 L363.958515,256.400057 L357.664666,258.851467 Z" id="Fill-20"></path>
                <polygon id="Fill-21" points="332.875157 266.165804 335.531769 260.378882 332.991924 251.093581 336.977517 250 345 279.32595 341.014407 280.419531 336.968743 265.630504 336.80068 265.676464 334.399874 271.574231 329.056952 283.699598 324.315412 285 330.964367 269.897362 316 255.75448 320.614649 254.488549"></polygon>
                <polygon id="Fill-22" points="296 290.417013 292.027229 291 288 260.583669 291.972771 260"></polygon>
                <polygon id="Fill-23" points="277.516364 286.207672 277.824353 286.183882 275.876493 261.288196 279.614796 261 282 291.486289 276.326842 291.924021 264.500747 268.010514 264.192758 268.034304 266.123507 292.711124 262.385204 293 260 262.513711 265.673158 262.075979"></polygon>
                <path d="M233,263.251977 L231.191827,294 L220.183029,293.320758 C217.401585,293.148893 215.305307,292.223837 213.893529,290.544904 C212.48175,288.865972 211.859418,286.602288 212.026532,283.753854 C212.192309,280.934863 213.07467,278.778681 214.672948,277.285307 C216.271894,275.792618 218.461087,275.131864 221.242531,275.303728 L228.166396,275.730309 L228.915067,263 L233,263.251977 Z M227.956501,279.299068 L221.376223,278.893029 C219.856823,278.799223 218.673656,279.101869 217.827391,279.800967 C216.980457,280.500751 216.515212,281.555219 216.432324,282.964372 L216.305317,285.123294 C216.222429,286.533132 216.560667,287.6369 217.319364,288.435283 C218.078062,289.233666 219.21711,289.680103 220.73651,289.773225 L227.316789,290.179264 L227.956501,279.299068 Z" id="Fill-24"></path>
                <path d="M202.931309,260.278779 L207,260.856088 L202.702708,291 L191.622004,289.427798 C188.823168,289.030517 186.776613,287.946964 185.483694,286.177137 C184.190098,284.407986 183.742392,282.1265 184.140579,279.334031 C184.481106,276.944256 185.370411,275.095244 186.808495,273.786316 C188.2459,272.477389 190.12287,271.855411 192.439405,271.919707 L186.872259,258 L191.460559,258.65108 L196.638338,272.207346 L201.13981,272.846244 L202.931309,260.278779 Z M193.943966,275.305728 C192.443475,275.092537 191.229923,275.294899 190.30263,275.912816 C189.376016,276.530056 188.813671,277.529687 188.616952,278.911709 L188.315091,281.028056 C188.118372,282.409401 188.378855,283.526118 189.09654,284.376854 C189.814225,285.227589 190.923313,285.759552 192.423803,285.972743 L199.132598,286.924322 L200.653439,276.257306 L193.943966,275.305728 Z" id="Fill-25"></path>
                <path d="M172.037215,255.331384 C175.652292,256.148083 178.025642,258.047695 179.157265,261.030887 C180.289568,264.01408 180.280732,267.971158 179.131438,272.900784 C177.981465,277.831079 176.236794,281.395526 173.896067,283.594794 C171.555341,285.793394 168.577779,286.485013 164.963381,285.668314 C161.348305,284.852284 158.974954,282.952672 157.842652,279.96881 C156.710349,276.985618 156.719184,273.029208 157.869158,268.098914 C159.018452,263.169288 160.763802,259.604172 163.104529,257.405572 C165.444576,255.206304 168.422138,254.515354 172.037215,255.331384 Z M171.24338,258.7353 C169.051497,258.240331 167.26129,258.691155 165.872078,260.087102 C164.482866,261.483717 163.441637,263.666933 162.74975,266.636079 L161.61269,271.510188 C160.920802,274.479334 160.890218,276.890637 161.521616,278.743427 C162.153694,280.596217 163.565334,281.770097 165.756537,282.265066 C167.94842,282.760035 169.738627,282.309212 171.127839,280.912596 C172.51773,279.516649 173.55828,277.333434 174.250847,274.364288 L175.387227,269.490179 C176.079794,266.521032 176.109699,264.10973 175.478301,262.256939 C174.846903,260.404149 173.435262,259.23027 171.24338,258.7353 Z" id="Fill-26"></path>
                <path d="M139.876875,250.089759 L140.08336,250.157947 C141.0726,249.019688 142.202195,248.218991 143.472147,247.754506 C144.741424,247.290695 146.270494,247.356182 148.058682,247.950967 C151.085108,248.958251 152.954271,250.986324 153.666847,254.036533 C154.379424,257.086068 153.948909,260.978157 152.375303,265.712126 C150.728145,270.666861 148.612684,274.136322 146.028245,276.119161 C143.443806,278.102675 140.41873,278.517201 136.951668,277.363415 C134.420538,276.521535 132.64382,275.249602 131.620167,273.548964 C130.596513,271.847652 130.056682,269.887092 130,267.667285 L133.919845,267.458672 C133.966405,269.155258 134.27006,270.540612 134.830134,271.613384 C135.390208,272.686156 136.440179,273.478752 137.981395,273.991846 C140.099555,274.696675 141.94915,274.417849 143.530179,273.155367 C145.110533,271.892886 146.381834,269.81688 147.342057,266.926674 L148.838738,262.426298 C149.836075,259.426048 150.125559,256.923363 149.706515,254.919595 C149.288147,252.915153 148.006049,251.556128 145.860222,250.842522 C144.126691,250.265291 142.579402,250.346981 141.218354,251.086242 C139.857306,251.825503 138.888985,253.06233 138.312041,254.796723 L137.378809,257.603888 L143.239345,259.554321 L142.223114,262.609257 L132.731543,259.451027 L137.53536,245 L141.16707,246.208472 L139.876875,250.089759 Z" id="Fill-27"></path>
                <polygon id="Fill-28" points="131 242.119889 118.07555 270 101 261.880111 102.49929 258.644479 115.829319 264.982922 119.958113 256.075691 107.101936 249.962497 108.601902 246.726865 121.458079 252.840744 125.753836 243.574075 112.423807 237.234947 113.923774 234"></polygon>
                <path d="M99.6364664,225.425223 C101.778888,226.834099 103.349771,228.424941 104.347759,230.198428 C105.346426,231.971235 105.896947,233.868974 106,235.890966 L102.234491,236.4518 C102.06025,234.592084 101.604646,233.001242 100.867681,231.679275 C100.131393,230.357308 99.0323849,229.215949 97.5713349,228.255876 C95.8424823,227.118591 94.2417682,226.650776 92.7685145,226.851074 C91.2952609,227.052051 90.0789622,227.883797 89.1196185,229.346991 C88.33655,230.54199 88.079595,231.690818 88.3501096,232.793475 C88.6206242,233.896133 89.4836945,235.117612 90.9393207,236.45859 L93.4403941,238.783405 C95.4980678,240.694724 96.6363986,242.612832 96.8560645,244.537052 C97.0757305,246.461271 96.5936857,248.32574 95.4106081,250.130459 C93.8919298,252.447127 91.9576488,253.722924 89.6084431,253.958528 C87.2585595,254.193454 84.7446044,253.430285 82.0658998,251.66902 C80.0936518,250.372175 78.6048046,248.921881 77.5993582,247.318818 C76.5945897,245.715755 76.0610183,244.004055 76,242.184398 L79.6922868,241.575356 C79.831951,243.062994 80.2292481,244.397861 80.8835002,245.578601 C81.5384302,246.759341 82.5723519,247.813792 83.9845872,248.742632 C85.6402179,249.831031 87.1385568,250.310388 88.4789261,250.179346 C89.8192954,250.048303 90.9372867,249.300071 91.8322222,247.93465 C92.5834256,246.788537 92.8281769,245.658042 92.5657981,244.543162 C92.3034193,243.428283 91.4281453,242.172177 89.9392981,240.774843 L87.5480576,238.522 C85.490384,236.610681 84.3378155,234.701399 84.0903523,232.793475 C83.8422111,230.885552 84.3262899,229.004787 85.5412326,227.151181 C86.5643065,225.590215 87.8023006,224.45904 89.2558928,223.756978 C90.709485,223.054917 92.3217248,222.841039 94.0932902,223.116025 C95.8648557,223.390331 97.7123551,224.16029 99.6364664,225.425223 Z" id="Fill-29"></path>
                <path d="M79.641543,208.903701 C81.4747758,210.704766 82.7091662,212.573116 83.3460735,214.508751 C83.9823011,216.444387 84.1542729,218.415364 83.8619889,220.421003 L80.0500609,220.237498 C80.2403854,218.377303 80.1024002,216.72644 79.6354254,215.284908 C79.1684507,213.843377 78.3099512,212.508549 77.059927,211.280427 C75.5808338,209.827341 74.0976621,209.055262 72.6097323,208.965548 C71.1218025,208.875155 69.7637012,209.454894 68.5354285,210.704766 C67.5321464,211.724916 67.0563352,212.802837 67.1079947,213.938527 C67.1589745,215.073538 67.7700521,216.441668 68.9405478,218.042237 L70.9471118,220.812479 C72.5988566,223.089977 73.3452006,225.194845 73.1868234,227.127082 C73.0277665,229.059319 72.1910184,230.796497 70.6765791,232.337937 C68.7318705,234.31639 66.5812036,235.192456 64.2245785,234.964774 C61.8679533,234.737772 59.5439551,233.498775 57.252584,231.247103 C55.5654933,229.588764 54.3834421,227.875373 53.7071104,226.104892 C53.0307787,224.335091 52.8397745,222.550337 53.133418,220.751311 L56.8834904,220.873648 C56.7312308,222.361395 56.8617391,223.749235 57.2756949,225.036487 C57.6896507,226.323059 58.5012487,227.560017 59.7091296,228.747361 C61.1256877,230.139278 62.5055403,230.901843 63.8493673,231.034374 C65.1931942,231.166905 66.4377805,230.650373 67.5844857,229.484098 C68.5463041,228.504727 69.0071613,227.442438 68.9663775,226.297233 C68.924914,225.151347 68.3083985,223.747196 67.1168312,222.084779 L65.2040699,219.406969 C63.5523251,217.128791 62.7903474,215.029361 62.9181367,213.107998 C63.045926,211.185956 63.8881119,209.433825 65.443335,207.850927 C66.7538552,206.517459 68.1914849,205.64819 69.7575837,205.242441 C71.3236824,204.836012 72.950957,204.940678 74.6400869,205.555758 C76.3285372,206.170839 77.9959158,207.28682 79.641543,208.903701 Z" id="Fill-30"></path>
                <path d="M169,196 L148.349581,196 L148.349581,191.851989 L158.456217,182.901552 C160.089408,181.445717 161.336361,180.041368 162.196399,178.687828 C163.057116,177.334288 163.487475,175.959069 163.487475,174.561495 L163.487475,174.037828 C163.487475,172.320498 163.020461,170.988636 162.087113,170.04292 C161.153764,169.096525 159.797524,168.623667 158.018392,168.623667 C156.297637,168.623667 154.941397,169.059943 153.949672,169.933851 C152.957947,170.80708 152.214662,172.0441 151.71846,173.644908 L148,172.247334 C148.72903,170.151989 149.91014,168.419755 151.54333,167.051989 C153.177199,165.683545 155.393477,165 158.193522,165 C160.206161,165 161.941171,165.378016 163.399909,166.134725 C164.857969,166.891434 165.966448,167.939445 166.724666,169.278759 C167.482885,170.617395 167.862333,172.145717 167.862333,173.863046 C167.862333,175.376464 167.577916,176.788265 167.009083,178.098448 C166.44025,179.407955 165.652843,180.645651 164.646863,181.809506 C163.640204,182.974038 162.364062,184.196831 160.818437,185.477207 L152.725119,192.41969 L169,192.41969 L169,196 Z" id="Fill-31"></path>
                <path d="M184,197 C180.259534,197 177.491027,195.633572 175.694479,192.900716 C173.897931,190.167172 173,186.20061 173,180.999656 C173,175.79939 173.897931,171.832828 175.694479,169.099284 C177.491027,166.366428 180.259534,165 184,165 C187.740466,165 190.508973,166.366428 192.305521,169.099284 C194.102069,171.832828 195,175.79939 195,180.999656 C195,186.20061 194.102069,190.167172 192.305521,192.900716 C190.508973,195.633572 187.740466,197 184,197 Z M184,193.410289 C186.297607,193.410289 187.983113,192.553435 189.058574,190.839727 C190.13335,189.126018 190.670738,186.70262 190.670738,183.570907 L190.670738,178.429093 C190.670738,175.29738 190.13335,172.873982 189.058574,171.160273 C187.983113,169.446565 186.297607,168.589711 184,168.589711 C181.703078,168.589711 180.016887,169.446565 178.941426,171.160273 C177.86665,172.873982 177.329262,175.29738 177.329262,178.429093 L177.329262,183.570907 C177.329262,186.70262 177.86665,189.126018 178.941426,190.839727 C180.016887,192.553435 181.703078,193.410289 184,193.410289 Z M184,183.614918 C182.173978,183.614918 181.260967,182.905916 181.260967,181.487224 L181.260967,180.512776 C181.260967,179.094084 182.173978,178.385082 184,178.385082 C185.826022,178.385082 186.739033,179.094084 186.739033,180.512776 L186.739033,181.487224 C186.739033,182.905916 185.826022,183.614918 184,183.614918 Z" id="Fill-32"></path>
                <path d="M229.999657,197 C226.259308,197 223.490887,195.633572 221.694395,192.900716 C219.897903,190.167172 219,186.20061 219,180.999656 C219,175.79939 219.897903,171.832828 221.694395,169.099284 C223.490887,166.366428 226.259308,165 229.999657,165 C233.740007,165 236.508428,166.366428 238.304919,169.099284 C240.101411,171.832828 241,175.79939 241,180.999656 C241,186.20061 240.101411,190.167172 238.304919,192.900716 C236.508428,195.633572 233.740007,197 229.999657,197 Z M229.999657,193.410289 C232.297193,193.410289 233.983332,192.553435 235.058074,190.839727 C236.132816,189.126018 236.670187,186.70262 236.670187,183.570907 L236.670187,178.429093 C236.670187,175.29738 236.132816,172.873982 235.058074,171.160273 C233.983332,169.446565 232.297193,168.589711 229.999657,168.589711 C227.702807,168.589711 226.016668,169.446565 224.941241,171.160273 C223.866498,172.873982 223.329127,175.29738 223.329127,178.429093 L223.329127,183.570907 C223.329127,186.70262 223.866498,189.126018 224.941241,190.839727 C226.016668,192.553435 227.702807,193.410289 229.999657,193.410289 Z M229.999657,183.614918 C228.173692,183.614918 227.26071,182.905916 227.26071,181.487224 L227.26071,180.512776 C227.26071,179.094084 228.173692,178.385082 229.999657,178.385082 C231.825622,178.385082 232.738605,179.094084 232.738605,180.512776 L232.738605,181.487224 C232.738605,182.905916 231.825622,183.614918 229.999657,183.614918 Z" id="Fill-33"></path>
                <polygon id="Fill-34" points="247.602529 197 247.602529 193.402272 256.133895 193.402272 256.133895 169.109165 255.830859 169.109165 248.468634 176.56992 246 174.0389 253.88162 166 260.291063 166 260.291063 193.402272 268 193.402272 268 197"></polygon>
                <path d="M313,196 L292.349593,196 L292.349593,191.851989 L302.456555,182.901552 C304.089798,181.445717 305.336792,180.041368 306.196858,178.687828 C307.057603,177.334288 307.487975,175.959069 307.487975,174.561495 L307.487975,174.037828 C307.487975,172.320498 307.020946,170.988636 306.087568,170.04292 C305.154189,169.096525 303.797905,168.623667 302.018716,168.623667 C300.297905,168.623667 298.941621,169.059943 297.949864,169.933851 C296.958107,170.80708 296.214798,172.0441 295.71858,173.644908 L292,172.247334 C292.729054,170.151989 293.910202,168.419755 295.543445,167.051989 C297.176687,165.683545 299.393716,165 302.193852,165 C304.206555,165 305.941621,165.378016 307.400407,166.134725 C308.858514,166.891434 309.967029,167.939445 310.725272,169.278759 C311.483514,170.617395 311.862975,172.145717 311.862975,173.863046 C311.862975,175.376464 311.578549,176.788265 311.009697,178.098448 C310.440846,179.407955 309.653413,180.645651 308.647401,181.809506 C307.64071,182.974038 306.364527,184.196831 304.818852,185.477207 L296.724593,192.41969 L313,192.41969 L313,196 Z" id="Fill-35"></path>
                <polygon id="Fill-36" points="319.602578 197 319.602578 193.402272 328.134205 193.402272 328.134205 169.109165 327.83116 169.109165 320.468709 176.56992 318 174.0389 325.881861 166 332.2915 166 332.2915 193.402272 340 193.402272 340 197"></polygon>
                <path d="M242.500342,141 C264.852448,141 283,158.923508 283,180.999663 C283,203.076492 264.852448,221 242.500342,221 C220.147552,221 202,203.076492 202,180.999663 C202,158.923508 220.147552,141 242.500342,141 Z" id="Fill-37" fill-opacity="0"></path>
                <path d="M242.00034,139 C218.819535,139 200,157.819535 200,180.99966 C200,204.180465 218.819535,223 242.00034,223 C265.180465,223 284,204.180465 284,180.99966 C284,157.819535 265.180465,139 242.00034,139 Z M242.00034,142.398746 C263.304358,142.398746 280.601254,159.695642 280.601254,180.99966 C280.601254,202.304358 263.304358,219.601254 242.00034,219.601254 C220.695642,219.601254 203.398746,202.304358 203.398746,180.99966 C203.398746,159.695642 220.695642,142.398746 242.00034,142.398746 Z" id="Fill-38"></path>
                <path d="M244.000335,110.789892 L255.907571,105.878699 C257.175348,105.35532 258,104.139234 258,102.791969 L258,96.3521355 C258.003409,95.2290799 257.430136,94.1789761 256.47468,93.5578822 C255.51854,92.936119 254.307611,92.827026 253.251473,93.2660751 L232.093098,101.994185 C231.112301,102.400439 230.380812,103.232357 230.116435,104.242973 C230.039725,104.410963 230,104.593677 230,104.77773 L230,115.708447 C230.000685,115.760651 230.008904,115.812186 230.023972,115.862382 C230.08219,116.264621 230.330129,116.617332 230.693133,116.814771 C230.744502,116.84355 230.797925,116.868313 230.853403,116.890399 L231.873241,117.279922 L231.924609,117.299331 L232.860887,117.656728 L232.900612,117.67279 L234.180032,118.161366 L234.373178,118.234988 L235.845059,118.797185 L237.166259,119.301823 L239.236755,120.092246 L240.045639,120.401454 L240.263442,120.485114 L240.707951,120.654443 L240.926439,120.738103 L243.746232,121.814978 L243.944857,121.890607 L245.416738,122.452804 L246.153706,122.733233 L247.625587,123.29543 L249.098153,123.857628 L249.83649,124.140065 L250.502912,124.394392 L251.0755,124.612578 L251.996025,124.96462 L252.045339,124.98403 L253.315855,125.469259 L253.517905,125.546896 L254.576098,125.951142 C254.615823,125.966536 254.656918,125.977914 254.698013,125.985945 L254.701437,125.985945 C254.745957,125.994646 254.791161,125.999331 254.836365,126 L254.845954,125.998661 C254.894583,125.997323 254.942527,125.991299 254.989786,125.979922 L254.989786,125.978583 C255.177453,125.933741 255.337723,125.815947 255.434295,125.651973 L255.434295,125.653312 L255.434295,125.651304 C255.445939,125.628548 255.455528,125.605793 255.464432,125.582368 C255.497308,125.52414 255.515115,125.45922 255.51717,125.392961 C255.52128,125.369536 255.524019,125.345442 255.526074,125.322017 C255.524704,125.28186 255.51991,125.242373 255.511691,125.202885 C255.508266,125.183476 255.507581,125.164066 255.502102,125.145996 C255.489089,125.1045 255.472651,125.065013 255.452103,125.026194 C255.444569,125.01147 255.44183,124.996077 255.433611,124.981352 L255.433611,124.988715 C255.422652,124.970644 255.417858,124.951904 255.405529,124.933833 L250.974818,118.509393 C250.657703,118.046919 250.674141,117.437872 251.016598,116.9928 C251.057008,116.939926 251.100842,116.889061 251.147416,116.842211 C251.196045,116.794023 251.248784,116.74985 251.304262,116.710363 L251.31659,116.699654 L252.488479,115.895846 L254.697328,114.380591 L255.589086,113.768198 C255.63977,113.733395 255.685659,113.69123 255.724699,113.644381 C255.846614,113.500485 255.902777,113.313755 255.87949,113.127695 C255.856203,112.941634 255.756205,112.773644 255.602784,112.661874 C255.553471,112.625733 255.500047,112.596285 255.442514,112.574198 L254.697328,112.289753 L253.48092,111.824602 L253.224762,111.727556 L251.952876,111.241657 L251.124814,110.925756 L251.019337,110.884261 L250.574828,110.714932 L250.365929,110.635957 L249.820052,110.42781 L249.546087,110.322064 L248.986512,110.108563 L248.808434,110.040296 L248.165984,109.794669 L244.000335,110.789892 Z" id="Fill-39"></path>
            </g>
        </g>
    </g>
</svg>