<?xml version="1.0" encoding="UTF-8"?>
<svg width="800px" height="376px" viewBox="0 0 800 376" version="1.1" xmlns="http://www.w3.org/2000/svg" xmlns:xlink="http://www.w3.org/1999/xlink">
    <!-- Generator: Sketch 60.1 (88133) - https://sketch.com -->
    <title>Minimal Viable Product Copy</title>
    <desc>Created with Sketch.</desc>
    <g id="Minimal-Viable-Product-Copy" stroke="none" stroke-width="1" fill="none" fill-rule="evenodd">
        <path d="M529.84,195 L529.84,182.5 L534.5,182.5 L534.5,181.04 L523.5,181.04 L523.5,182.5 L528.16,182.5 L528.16,195 L529.84,195 Z M545.4,195 L545.4,193.54 L538.48,193.54 L538.48,188.66 L545.16,188.66 L545.16,187.2 L538.48,187.2 L538.48,182.5 L545.4,182.5 L545.4,181.04 L536.8,181.04 L536.8,195 L545.4,195 Z M549.36,195 L550.54,191.02 L555.44,191.02 L556.62,195 L558.4,195 L554.12,181.04 L551.9,181.04 L547.62,195 L549.36,195 Z M555.04,189.56 L550.94,189.56 L552.9,182.82 L553.08,182.82 L555.04,189.56 Z M563.04,195 L563.04,183.26 L563.54,183.26 L564.72,185.58 L568.04,191.66 L571.38,185.58 L572.56,183.24 L573.06,183.24 L573.06,195 L574.7,195 L574.7,181.04 L572.1,181.04 L568.08,188.56 L568,188.56 L564,181.04 L561.4,181.04 L561.4,195 L563.04,195 Z" id="TEAM" fill="#000000" fill-rule="nonzero"></path>
        <path d="M230,195.24 C233.8,195.24 234.4,193.16 234.4,189.02 L234.4,181.04 L232.72,181.04 L232.72,189.42 C232.72,192.12 232.62,193.78 230,193.78 C227.450811,193.78 227.287246,192.208517 227.280267,189.636628 L227.28,181.04 L225.6,181.04 L225.6,189.02 C225.6,193.16 226.2,195.24 230,195.24 Z M241.96,195.24 C245.06,195.24 246.84,193.68 246.84,191.1 C246.84,189.28 245.94,187.76 243.2,187.28 L241.7,187.02 C239.72,186.68 239.08,185.88 239.08,184.64 C239.08,183.06 240.14,182.24 242.02,182.24 C243.76,182.24 244.76,182.94 245.54,183.96 L246.72,182.94 C245.78,181.6 244.26,180.8 242.04,180.8 C239.2,180.8 237.38,182.12 237.38,184.68 C237.38,186.44 238.24,188.02 240.98,188.48 L242.54,188.74 C244.44,189.06 245.14,189.78 245.14,191.14 C245.14,192.82 244.04,193.8 242.02,193.8 C240.34,193.8 239.2,193.14 238.12,191.78 L236.9,192.78 C237.94,194.22 239.46,195.24 241.96,195.24 Z M258.4,195 L258.4,193.54 L251.48,193.54 L251.48,188.66 L258.16,188.66 L258.16,187.2 L251.48,187.2 L251.48,182.5 L258.4,182.5 L258.4,181.04 L249.8,181.04 L249.8,195 L258.4,195 Z M263.48,195 L263.48,189.04 L265.7,189.04 L269.1,195 L270.98,195 L267.42,188.96 C269.64,188.74 270.86,187.3 270.86,185.06 C270.86,182.54 269.46,181.04 266.88,181.04 L261.8,181.04 L261.8,195 L263.48,195 Z M266.84,187.62 L263.48,187.62 L263.48,182.5 L266.84,182.5 C268.24,182.5 269.08,183.24 269.08,184.54 L269.08,185.58 C269.08,186.88 268.24,187.62 266.84,187.62 Z" id="USER" fill="#000000" fill-rule="nonzero"></path>
        <g id="Group" transform="translate(248.504265, 39.943997)" fill="#979797" fill-rule="nonzero">
            <path d="M291.732136,166 L292.042117,166.833088 L295.243025,175.435656 L294.305802,175.784386 L291.769735,168.969003 L290.830562,174.939395 C278.130618,244.06984 217.60507,295.001367 146.495735,295.001367 C73.3728325,295.001367 11.7815807,241.220875 1.30188107,169.73806 L1,167.566532 L1.99147053,167.436201 C11.4647501,239.502509 73.1377028,294.001367 146.495735,294.001367 C216.414121,294.001367 276.030578,244.423184 289.452333,176.825189 L289.844876,174.771282 L290.782735,168.814003 L286.276304,174.520085 L285.491592,173.900225 L291.181149,166.697522 L291.732136,166 Z" id="Shape"></path>
            <path d="M290.732136,0 L291.042117,0.833087611 L294.243025,9.43565639 L293.305802,9.7843855 L290.769735,2.96900268 L289.830562,8.93939539 C277.130618,78.06984 216.60507,129.001367 145.495735,129.001367 C72.3728325,129.001367 10.7815807,75.2208753 0.301881066,3.73805971 L-1.13686838e-13,1.56653244 L0.991470533,1.43620139 C10.4647501,73.5025093 72.1377028,128.001367 145.495735,128.001367 C215.414121,128.001367 275.030578,78.4231844 288.452333,10.8251893 L288.844876,8.77128202 L289.782735,2.81400268 L285.276304,8.5200853 L284.491592,7.90022538 L290.181149,0.697522209 L290.732136,0 Z" id="Shape-Copy" transform="translate(147.121513, 64.500683) scale(-1, -1) translate(-147.121513, -64.500683) "></path>
        </g>
        <path d="M365.4,194.94 C367.12,194.94 368.2,195 368.2,195 L368.34,194.42 L367.7,194.32 C367.1,194.22 366.78,194.08 366.78,193.6 C366.78,193.42 366.82,193.22 366.86,193.02 L367.9,188.52 C368.64,188.52 369.04,189.1 370.7,189.1 C372.94,189.1 375.2,187.12 375.2,184.58 C375.2,182.34 373.52,181 371.26,181 C370.22,181 369.64,181.06 368.8,181.06 C367.04,181.06 366,181 366,181 L365.86,181.58 L366.5,181.68 C367.1,181.78 367.42,181.92 367.42,182.4 C367.42,182.58 367.38,182.78 367.34,182.98 L365.2,192.36 C364.94,193.52 364.42,194.06 363.32,194.32 L362.9,194.42 L362.76,195 C362.76,195 363.7,194.94 365.4,194.94 Z M370.1,188.24 C369.26,188.24 368.64,187.92 368.1,187.92 L369.52,181.82 C369.72,181.76 370.06,181.68 370.58,181.68 C372.08,181.68 373.28,182.84 373.28,184.58 C373.28,186.38 371.94,188.24 370.1,188.24 Z M376.32,195.3 C376.8,195.3 377.04,195.16 377.04,195.16 C377.04,193.16 379.76,187.16 381.68,187.16 C382.28,187.16 382.4,187.56 382.4,187.78 C382.4,187.92 382.36,188.04 382.36,188.04 C382.36,188.04 382.42,188.06 382.5,188.06 C383.04,188.06 383.74,187.7 383.74,186.88 C383.74,186.22 383.3,185.7 382.46,185.7 C380,185.7 377.62,191.4 377.62,191.4 L377.54,191.4 C377.7,190.96 378.26,189.56 379.82,185.7 C378.08,186.54 376.14,186.62 376.14,186.62 L376.14,187.06 C376.98,187.06 377.42,187.16 377.42,187.62 C377.42,187.8 377.32,188.16 377.28,188.3 L375.66,194.04 C375.6,194.24 375.6,194.32 375.6,194.5 C375.6,194.94 375.86,195.3 376.32,195.3 Z M386,195.32 C389.1,195.32 391.48,191.44 391.48,188.48 C391.48,186.7 390.56,185.68 389.14,185.68 C386.06,185.68 383.68,189.58 383.68,192.54 C383.68,194.3 384.6,195.32 386,195.32 Z M386.58,194.58 C385.74,194.58 385.32,193.78 385.32,192.32 C385.32,190.06 386.76,186.44 388.58,186.44 C389.42,186.44 389.84,187.22 389.84,188.68 C389.84,190.94 388.4,194.58 386.58,194.58 Z M398.6,195.34 C400.08,195.34 401.32,193.48 401.94,192.3 L401.64,192.08 C401.2,192.7 400.28,194 399.52,194 C399.24,194 399.12,193.84 399.12,193.58 C399.12,193.26 399.34,192.5 399.62,191.72 L403.76,180 C402.02,180.84 400.08,180.92 400.08,180.92 L400.08,181.36 C400.92,181.36 401.36,181.48 401.36,181.92 C401.36,182.14 401.26,182.46 401.22,182.58 L399.98,186.2 C399.78,185.96 399.3,185.68 398.64,185.68 C395.16,185.68 392.18,190.04 392.18,193.28 C392.18,194.64 392.82,195.32 394.04,195.32 C396.12,195.32 397.56,193.04 398.14,191.9 L398.22,191.9 C397.98,192.58 397.62,193.48 397.62,194.18 C397.62,195.12 397.98,195.34 398.6,195.34 Z M394.76,194.14 C394.06,194.14 393.74,193.74 393.74,192.9 C393.74,190.74 395.8,186.5 398.32,186.5 C398.82,186.5 399.12,186.86 399.12,187.46 C399.12,190.48 396.48,194.14 394.76,194.14 Z M404.14,195.32 C406.16,195.32 408.32,192.18 409.72,189.6 L409.8,189.6 C409.64,190.04 409.08,191.46 407.52,195.3 C409.26,194.46 411.2,194.38 411.2,194.38 L411.2,193.94 C410.36,193.94 409.82,193.84 409.82,193.38 C409.82,193.18 409.9,192.94 409.96,192.74 L411.84,186.96 C411.9,186.76 411.94,186.56 411.94,186.4 C411.94,185.94 411.64,185.68 411.18,185.68 C410.7,185.68 410.5,185.84 410.5,185.84 C410.5,187.92 407,193.98 404.98,193.98 C404.74,193.98 404.68,193.8 404.68,193.6 C404.68,193.34 404.76,193.04 404.92,192.6 L406.12,189.16 C406.58,187.84 406.8,186.98 406.8,186.46 C406.8,185.86 406.52,185.68 406.04,185.68 C404.66,185.68 403.52,187.24 402.88,188.44 L403.18,188.64 C403.6,188.04 404.4,187 404.9,187 C405.1,187 405.2,187.08 405.2,187.28 C405.2,187.6 405,188.2 404.66,189.16 L403.46,192.58 C403.24,193.18 403.08,193.94 403.08,194.32 C403.08,194.96 403.36,195.32 404.14,195.32 Z M415.34,195.32 C417.32,195.32 418.52,193.58 419.06,192.48 L418.76,192.26 C418.1,193.18 417,194.18 415.74,194.18 C414.94,194.18 414.46,193.66 414.46,192.68 C414.46,190.28 415.84,186.64 418.16,186.64 C418.86,186.64 419.18,186.96 419.18,187.46 C419.18,187.62 419.14,187.8 419.06,188.02 C419.12,188.04 419.24,188.06 419.34,188.06 C420,188.06 420.64,187.54 420.64,186.78 C420.64,185.98 419.88,185.68 419.18,185.68 C415.62,185.68 412.82,189.64 412.82,192.9 C412.82,194.5 413.62,195.32 415.34,195.32 Z M421.84,195.32 C423.3,195.32 424.94,192.92 425.54,191.76 L425.2,191.56 C424.56,192.5 423.48,193.8 422.78,193.8 C422.6,193.8 422.44,193.7 422.44,193.42 C422.44,192.96 422.74,192.02 423.32,190.46 L424.66,186.82 L427.14,186.82 L427.5,185.94 L424.96,185.94 C424.96,185.94 425.56,184 426.02,183.54 C425.94,183.46 425.64,183.32 425.34,183.32 C424.68,183.32 424.2,183.66 423.92,184.46 L423.4,185.88 L422.06,186.16 L422,186.74 L423.08,186.78 L421.12,192.4 C420.88,193.08 420.8,193.64 420.8,194.08 C420.8,194.88 421.16,195.32 421.84,195.32 Z" id="Product" fill="#000000" fill-rule="nonzero"></path>
        <polygon id="Line-5" fill="#979797" fill-rule="nonzero" points="515 190 515 191 434 191 434 190"></polygon>
    </g>
</svg>