<?xml version="1.0" encoding="UTF-8"?>
<svg width="800px" height="376px" viewBox="0 0 800 376" version="1.1" xmlns="http://www.w3.org/2000/svg" xmlns:xlink="http://www.w3.org/1999/xlink">
    <!-- Generator: Sketch 60.1 (88133) - https://sketch.com -->
    <title>Minimal Supportable Produkt Copy</title>
    <desc>Created with Sketch.</desc>
    <g id="Minimal-Supportable-Produkt-Copy" stroke="none" stroke-width="1" fill="none" fill-rule="evenodd">
        <path d="M381.84,195 L381.84,182.5 L386.5,182.5 L386.5,181.04 L375.5,181.04 L375.5,182.5 L380.16,182.5 L380.16,195 L381.84,195 Z M397.4,195 L397.4,193.54 L390.48,193.54 L390.48,188.66 L397.16,188.66 L397.16,187.2 L390.48,187.2 L390.48,182.5 L397.4,182.5 L397.4,181.04 L388.8,181.04 L388.8,195 L397.4,195 Z M401.36,195 L402.54,191.02 L407.44,191.02 L408.62,195 L410.4,195 L406.12,181.04 L403.9,181.04 L399.62,195 L401.36,195 Z M407.04,189.56 L402.94,189.56 L404.9,182.82 L405.08,182.82 L407.04,189.56 Z M415.04,195 L415.04,183.26 L415.54,183.26 L416.72,185.58 L420.04,191.66 L423.38,185.58 L424.56,183.24 L425.06,183.24 L425.06,195 L426.7,195 L426.7,181.04 L424.1,181.04 L420.08,188.56 L420,188.56 L416,181.04 L413.4,181.04 L413.4,195 L415.04,195 Z" id="TEAM" fill="#000000" fill-rule="nonzero"></path>
        <text id="Org" font-family="iAWriterDuospace-Regular, iA Writer Duospace" font-size="20" font-weight="normal" fill="#000000">
            <tspan x="689" y="195">ORG</tspan>
        </text>
        <path d="M82,195.24 C85.8,195.24 86.4,193.16 86.4,189.02 L86.4,181.04 L84.72,181.04 L84.72,189.42 C84.72,192.12 84.62,193.78 82,193.78 C79.4508108,193.78 79.2872462,192.208517 79.2802669,189.636628 L79.28,181.04 L77.6,181.04 L77.6,189.02 C77.6,193.16 78.2,195.24 82,195.24 Z M93.96,195.24 C97.06,195.24 98.84,193.68 98.84,191.1 C98.84,189.28 97.94,187.76 95.2,187.28 L93.7,187.02 C91.72,186.68 91.08,185.88 91.08,184.64 C91.08,183.06 92.14,182.24 94.02,182.24 C95.76,182.24 96.76,182.94 97.54,183.96 L98.72,182.94 C97.78,181.6 96.26,180.8 94.04,180.8 C91.2,180.8 89.38,182.12 89.38,184.68 C89.38,186.44 90.24,188.02 92.98,188.48 L94.54,188.74 C96.44,189.06 97.14,189.78 97.14,191.14 C97.14,192.82 96.04,193.8 94.02,193.8 C92.34,193.8 91.2,193.14 90.12,191.78 L88.9,192.78 C89.94,194.22 91.46,195.24 93.96,195.24 Z M110.4,195 L110.4,193.54 L103.48,193.54 L103.48,188.66 L110.16,188.66 L110.16,187.2 L103.48,187.2 L103.48,182.5 L110.4,182.5 L110.4,181.04 L101.8,181.04 L101.8,195 L110.4,195 Z M115.48,195 L115.48,189.04 L117.7,189.04 L121.1,195 L122.98,195 L119.42,188.96 C121.64,188.74 122.86,187.3 122.86,185.06 C122.86,182.54 121.46,181.04 118.88,181.04 L113.8,181.04 L113.8,195 L115.48,195 Z M118.84,187.62 L115.48,187.62 L115.48,182.5 L118.84,182.5 C120.24,182.5 121.08,183.24 121.08,184.54 L121.08,185.58 C121.08,186.88 120.24,187.62 118.84,187.62 Z" id="USER" fill="#000000" fill-rule="nonzero"></path>
        <path d="M398.41668,335.874681 C399.941819,335.921785 401.469711,335.945364 403.003057,335.945364 L403.300765,335.945047 L403.300765,335.945047 L403.398919,335.94483 L403.401598,336.944826 C403.361754,336.944916 403.329879,336.944987 403.302785,336.945045 L403.003067,336.945364 C401.97397,336.945364 400.9473,336.934814 399.922257,336.91373 L398.38581,336.874205 L398.41668,335.874681 Z M413.305848,335.586706 L413.375522,336.584275 C412.265002,336.661839 411.152513,336.726948 410.038193,336.779562 L408.365358,336.849108 L408.329444,335.849753 C409.992352,335.789993 411.651309,335.702266 413.305848,335.586706 Z M388.466004,335.229903 C389.567073,335.338894 390.670354,335.435495 391.775704,335.519664 L393.435265,335.636587 L393.37063,336.634496 C392.255707,336.562283 391.14279,336.477529 390.032021,336.38028 L388.367499,336.225039 L388.466004,335.229903 Z M423.147081,334.564423 L423.284029,335.555002 C422.180872,335.707514 421.075154,335.847578 419.967023,335.975145 L418.303035,336.157116 L418.199979,335.162441 C419.854416,334.991027 421.503616,334.791633 423.147081,334.564423 Z M378.574956,333.908035 C379.666629,334.092203 380.761123,334.264015 381.858286,334.423418 L383.506013,334.653209 L383.373547,335.644397 C382.266202,335.496406 381.161463,335.335895 380.059484,335.162915 L378.408604,334.894102 L378.574956,333.908035 Z M432.992479,332.85667 L433.197198,333.835491 C432.106979,334.063508 431.013566,334.279166 429.917119,334.482406 L428.270191,334.777944 L428.0992,333.792671 C429.737081,333.508421 431.368351,333.196353 432.992479,332.85667 Z M368.813809,331.914419 C369.890434,332.17316 370.970518,332.419666 372.053898,332.653871 L373.681421,332.995946 L373.481352,333.975728 C372.387216,333.752308 371.296317,333.516469 370.208817,333.268278 L368.580136,332.886734 L368.813809,331.914419 Z M442.68407,330.478388 L442.955743,331.440778 C441.8833,331.743518 440.807004,332.034055 439.727021,332.312317 L438.104302,332.720496 L437.865933,331.749321 C439.480219,331.353104 441.086451,330.92938 442.68407,330.478388 Z M359.204792,329.251728 C360.259739,329.583618 361.318796,329.903501 362.381794,330.2113 L363.979224,330.663925 L363.712137,331.627598 C362.637864,331.329857 361.567474,331.019911 360.501136,330.697836 L358.904689,330.205635 L359.204792,329.251728 Z M452.202743,327.432516 L452.540236,328.373844 C451.491183,328.74996 450.437596,329.114114 449.379651,329.466221 L447.789485,329.985336 L447.484615,329.032942 C449.067064,328.526386 450.639967,327.992816 452.202743,327.432516 Z M349.823581,325.941708 C350.854111,326.345669 351.889432,326.737871 352.929372,327.118225 L354.492722,327.679859 L354.160036,328.622897 C353.108303,328.251866 352.061132,327.868861 351.018699,327.47397 L349.458625,326.872733 L349.823581,325.941708 Z M461.481433,323.739818 L461.883018,324.655639 C460.861939,325.103379 459.835632,325.539459 458.804276,325.963781 L457.253476,326.591434 L456.883635,325.662339 C458.427515,325.047773 459.960314,324.406824 461.481433,323.739818 Z M340.66208,321.981104 C341.66327,322.45548 342.669949,322.918415 343.681939,323.369806 L345.203885,324.038222 L344.807029,324.956103 C343.782754,324.513247 342.763739,324.058717 341.750162,323.592615 L340.233899,322.884797 L340.66208,321.981104 Z M470.478193,319.419865 L470.941775,320.305919 C469.954205,320.822614 468.960715,321.328034 467.961485,321.822069 L466.458359,322.554568 L466.02544,321.653135 C467.522512,320.934156 469.006965,320.189609 470.478193,319.419865 Z M331.793933,317.39967 C332.759759,317.941425 333.73176,318.47215 334.709757,318.99173 L336.181228,319.762727 L335.722184,320.651141 C334.731466,320.139237 333.746697,319.616054 332.768057,319.081708 L331.304717,318.271832 L331.793933,317.39967 Z M479.151882,314.495935 L479.675056,315.348161 C478.724995,315.931396 477.768317,316.503789 476.805205,317.065217 L475.355733,317.89912 L474.862009,317.029501 C476.306342,316.209485 477.736503,315.364825 479.151882,314.495935 Z M323.263957,312.223188 C324.190374,312.829706 325.123652,313.425656 326.063611,314.010909 L327.47854,314.88075 L326.95969,315.735616 C326.006601,315.157151 325.060151,314.567853 324.12052,313.967849 L322.716211,313.059833 L323.263957,312.223188 Z M487.472399,308.987685 L488.052569,309.80218 C487.144541,310.448974 486.229212,311.085418 485.30676,311.711376 L483.917764,312.642431 L483.365705,311.808626 C484.750515,310.891747 486.119615,309.951282 487.472399,308.987685 Z M315.090014,306.462702 C315.973435,307.131638 316.864405,307.790503 317.762747,308.439155 L319.115767,309.404457 L318.53962,310.221803 C317.627757,309.579032 316.723227,308.925909 315.82621,308.262575 L314.486341,307.259934 L315.090014,306.462702 Z M495.390277,302.930732 L496.02455,303.703841 C495.162388,304.411174 494.292249,305.108692 493.414311,305.796245 L492.091576,306.820083 L491.483981,306.025836 C492.803508,305.016404 494.105804,303.984537 495.390277,302.930732 Z M307.406642,300.225274 C308.242549,300.952057 309.086651,301.669327 309.938775,302.376933 L311.222957,303.431075 L310.592871,304.2076 C309.726896,303.504932 308.868912,302.792459 308.019094,302.070332 L306.750511,300.979921 L307.406642,300.225274 Z M502.833368,296.391094 L503.518418,297.11959 C502.705637,297.883898 501.884229,298.638959 501.054364,299.384615 L499.803246,300.496026 L499.143363,299.744658 C500.392262,298.647822 501.622455,297.52979 502.833368,296.391094 Z M300.106867,293.428935 C300.891525,294.210948 301.685012,294.984041 302.487162,295.748052 L303.696865,296.887237 L303.015431,297.619117 C302.19913,296.85908 301.391468,296.089819 300.592613,295.311496 L299.400955,294.137234 L300.106867,293.428935 Z M509.872976,289.304387 L510.606025,289.984562 C509.847611,290.801931 509.079961,291.610683 508.303237,292.410651 L507.131365,293.603994 L506.421848,292.899306 C507.592503,291.720629 508.74306,290.522136 509.872976,289.304387 Z M293.281907,286.147559 C294.011356,286.980904 294.750232,287.80596 295.498376,288.622559 L296.627524,289.841092 L295.897888,290.524928 C295.135349,289.711318 294.382063,288.889108 293.638188,288.058467 L292.529452,286.806203 L293.281907,286.147559 Z M516.409059,281.760628 L517.186703,282.389332 C516.48577,283.256316 515.775021,284.115331 515.054606,284.966205 L513.966755,286.236386 L513.210938,285.581603 C514.298578,284.326139 515.364788,283.052286 516.409059,281.760628 Z M286.973926,278.426048 C287.644706,279.306713 288.325465,280.179749 289.016058,281.04498 L290.059304,282.336951 L289.284857,282.96959 C288.579685,282.106353 287.884339,281.235169 287.198966,280.356214 L286.178406,279.031975 L286.973926,278.426048 Z M522.416854,273.788091 L523.235561,274.362303 C522.594925,275.275716 521.943916,276.181819 521.282676,277.080434 L520.283159,278.422717 L519.484505,277.820925 C520.484822,276.49338 521.46243,275.148901 522.416854,273.788091 Z M281.196616,270.278005 C281.806051,271.20299 282.425997,272.12101 283.056319,273.031884 L284.009566,274.392815 L283.193777,274.971165 C282.548729,274.061295 281.914059,273.14414 281.289902,272.21988 L280.361569,270.828184 L281.196616,270.278005 Z M527.865498,265.425288 L528.721542,265.942192 C528.14538,266.896372 527.558372,267.843941 526.960646,268.784716 L526.056035,270.190763 L525.218146,269.644922 C526.12455,268.253554 527.007144,266.846806 527.865498,265.425288 Z M275.994522,261.761718 C276.538939,262.725725 277.094322,263.683458 277.66055,264.634736 L278.51801,266.056791 L277.664598,266.578029 C277.083595,265.626764 276.513449,264.668909 275.954283,263.704644 L275.123783,262.253462 L275.994522,261.761718 Z M532.710385,256.744984 L533.599729,257.202223 C533.089564,258.19451 532.568094,259.180863 532.035435,260.161101 L531.228069,261.626849 L530.354928,261.139382 C531.165086,259.688244 531.950368,258.223241 532.710385,256.744984 Z M271.38319,252.898106 C271.860314,253.897767 272.348828,254.891838 272.848621,255.880141 L273.606757,257.358246 L272.719596,257.819707 C272.205031,256.830453 271.701769,255.835298 271.209918,254.834424 L270.480714,253.328846 L271.38319,252.898106 Z M536.96767,247.713179 L537.886363,248.108153 C537.445841,249.132789 536.993645,250.152194 536.529876,251.166187 L535.825557,252.683094 L534.920984,252.256776 C535.629073,250.754334 536.311417,249.239601 536.96767,247.713179 Z M267.396469,243.747351 C267.803652,244.777529 268.222573,245.802806 268.653136,246.823007 L269.3077,248.349479 L268.390908,248.748844 C267.945674,247.726756 267.512114,246.699466 267.090324,245.667152 L266.466478,244.114935 L267.396469,243.747351 Z M540.582994,238.437374 L541.526668,238.768253 C541.157215,239.82194 540.77575,240.871073 540.382361,241.915476 L539.783347,243.478511 L538.851642,243.115295 C539.455403,241.566556 540.032621,240.007052 540.582994,238.437374 Z M264.044667,234.327201 C264.379693,235.38302 264.726736,236.434621 265.085713,237.481832 L265.633119,239.049335 L264.69094,239.384445 C264.317485,238.334455 263.956004,237.279959 263.606582,236.221128 L263.091503,234.629653 L264.044667,234.327201 Z M543.560547,228.902489 L544.524814,229.167422 C544.229003,230.244076 543.920938,231.316856 543.600695,232.385593 L543.111207,233.985644 L542.15665,233.687616 C542.651827,232.10161 543.119878,230.506378 543.560547,228.902489 Z M261.362079,224.739979 C261.623799,225.816876 261.897755,226.890215 262.183877,227.959829 L262.622176,229.561436 L261.659172,229.830925 C261.35884,228.757707 261.070722,227.680656 260.79489,226.59994 L260.390365,224.976137 L261.362079,224.739979 Z M545.867725,219.210473 L546.847932,219.40845 C546.627045,220.502089 546.393755,221.592518 546.148127,222.679575 L545.770439,224.30761 L544.797621,224.076041 C545.181892,222.461725 545.538666,220.839688 545.867725,219.210473 Z M259.361529,215.088185 C259.549491,216.180629 259.749827,217.270146 259.962477,218.35658 L260.29068,219.983899 L259.311566,220.187212 C259.085065,219.096429 258.870934,218.002465 258.669233,216.905478 L258.37601,215.25775 L259.361529,215.088185 Z M548.236401,207.943997 L548.546382,208.777085 L551.74729,217.379654 L550.810066,217.728383 L548.274,210.913 L547.716212,214.462282 L546.728382,214.306741 L547.287,210.758 L542.780569,216.464083 L541.995856,215.844223 L547.685414,208.64152 L548.236401,207.943997 Z M258.495735,209.380199 L258.547387,209.76908 L258.547387,209.76908 L258.600076,210.157748 L257.609321,210.293415 L257.556271,209.90208 L257.556271,209.90208 L257.504265,209.51053 L258.495735,209.380199 Z" id="Shape" fill="#979797" fill-rule="nonzero"></path>
        <path d="M397.41668,169.874681 C398.941819,169.921785 400.469711,169.945364 402.003057,169.945364 L402.300765,169.945047 L402.300765,169.945047 L402.398919,169.94483 L402.401598,170.944826 C402.361754,170.944916 402.329879,170.944987 402.302785,170.945045 L402.003067,170.945364 C400.97397,170.945364 399.9473,170.934814 398.922257,170.91373 L397.38581,170.874205 L397.41668,169.874681 Z M412.305848,169.586706 L412.375522,170.584275 C411.265002,170.661839 410.152513,170.726948 409.038193,170.779562 L407.365358,170.849108 L407.329444,169.849753 C408.992352,169.789993 410.651309,169.702266 412.305848,169.586706 Z M387.466004,169.229903 C388.567073,169.338894 389.670354,169.435495 390.775704,169.519664 L392.435265,169.636587 L392.37063,170.634496 C391.255707,170.562283 390.14279,170.477529 389.032021,170.38028 L387.367499,170.225039 L387.466004,169.229903 Z M422.147081,168.564423 L422.284029,169.555002 C421.180872,169.707514 420.075154,169.847578 418.967023,169.975145 L417.303035,170.157116 L417.199979,169.162441 C418.854416,168.991027 420.503616,168.791633 422.147081,168.564423 Z M377.574956,167.908035 C378.666629,168.092203 379.761123,168.264015 380.858286,168.423418 L382.506013,168.653209 L382.373547,169.644397 C381.266202,169.496406 380.161463,169.335895 379.059484,169.162915 L377.408604,168.894102 L377.574956,167.908035 Z M431.992479,166.85667 L432.197198,167.835491 C431.106979,168.063508 430.013566,168.279166 428.917119,168.482406 L427.270191,168.777944 L427.0992,167.792671 C428.737081,167.508421 430.368351,167.196353 431.992479,166.85667 Z M367.813809,165.914419 C368.890434,166.17316 369.970518,166.419666 371.053898,166.653871 L372.681421,166.995946 L372.481352,167.975728 C371.387216,167.752308 370.296317,167.516469 369.208817,167.268278 L367.580136,166.886734 L367.813809,165.914419 Z M441.68407,164.478388 L441.955743,165.440778 C440.8833,165.743518 439.807004,166.034055 438.727021,166.312317 L437.104302,166.720496 L436.865933,165.749321 C438.480219,165.353104 440.086451,164.92938 441.68407,164.478388 Z M358.204792,163.251728 C359.259739,163.583618 360.318796,163.903501 361.381794,164.2113 L362.979224,164.663925 L362.712137,165.627598 C361.637864,165.329857 360.567474,165.019911 359.501136,164.697836 L357.904689,164.205635 L358.204792,163.251728 Z M451.202743,161.432516 L451.540236,162.373844 C450.491183,162.74996 449.437596,163.114114 448.379651,163.466221 L446.789485,163.985336 L446.484615,163.032942 C448.067064,162.526386 449.639967,161.992816 451.202743,161.432516 Z M348.823581,159.941708 C349.854111,160.345669 350.889432,160.737871 351.929372,161.118225 L353.492722,161.679859 L353.160036,162.622897 C352.108303,162.251866 351.061132,161.868861 350.018699,161.47397 L348.458625,160.872733 L348.823581,159.941708 Z M460.481433,157.739818 L460.883018,158.655639 C459.861939,159.103379 458.835632,159.539459 457.804276,159.963781 L456.253476,160.591434 L455.883635,159.662339 C457.427515,159.047773 458.960314,158.406824 460.481433,157.739818 Z M339.66208,155.981104 C340.66327,156.45548 341.669949,156.918415 342.681939,157.369806 L344.203885,158.038222 L343.807029,158.956103 C342.782754,158.513247 341.763739,158.058717 340.750162,157.592615 L339.233899,156.884797 L339.66208,155.981104 Z M469.478193,153.419865 L469.941775,154.305919 C468.954205,154.822614 467.960715,155.328034 466.961485,155.822069 L465.458359,156.554568 L465.02544,155.653135 C466.522512,154.934156 468.006965,154.189609 469.478193,153.419865 Z M330.793933,151.39967 C331.759759,151.941425 332.73176,152.47215 333.709757,152.99173 L335.181228,153.762727 L334.722184,154.651141 C333.731466,154.139237 332.746697,153.616054 331.768057,153.081708 L330.304717,152.271832 L330.793933,151.39967 Z M478.151882,148.495935 L478.675056,149.348161 C477.724995,149.931396 476.768317,150.503789 475.805205,151.065217 L474.355733,151.89912 L473.862009,151.029501 C475.306342,150.209485 476.736503,149.364825 478.151882,148.495935 Z M322.263957,146.223188 C323.190374,146.829706 324.123652,147.425656 325.063611,148.010909 L326.47854,148.88075 L325.95969,149.735616 C325.006601,149.157151 324.060151,148.567853 323.12052,147.967849 L321.716211,147.059833 L322.263957,146.223188 Z M486.472399,142.987685 L487.052569,143.80218 C486.144541,144.448974 485.229212,145.085418 484.30676,145.711376 L482.917764,146.642431 L482.365705,145.808626 C483.750515,144.891747 485.119615,143.951282 486.472399,142.987685 Z M314.090014,140.462702 C314.973435,141.131638 315.864405,141.790503 316.762747,142.439155 L318.115767,143.404457 L317.53962,144.221803 C316.627757,143.579032 315.723227,142.925909 314.82621,142.262575 L313.486341,141.259934 L314.090014,140.462702 Z M494.390277,136.930732 L495.02455,137.703841 C494.162388,138.411174 493.292249,139.108692 492.414311,139.796245 L491.091576,140.820083 L490.483981,140.025836 C491.803508,139.016404 493.105804,137.984537 494.390277,136.930732 Z M306.406642,134.225274 C307.242549,134.952057 308.086651,135.669327 308.938775,136.376933 L310.222957,137.431075 L309.592871,138.2076 C308.726896,137.504932 307.868912,136.792459 307.019094,136.070332 L305.750511,134.979921 L306.406642,134.225274 Z M501.833368,130.391094 L502.518418,131.11959 C501.705637,131.883898 500.884229,132.638959 500.054364,133.384615 L498.803246,134.496026 L498.143363,133.744658 C499.392262,132.647822 500.622455,131.52979 501.833368,130.391094 Z M299.106867,127.428935 C299.891525,128.210948 300.685012,128.984041 301.487162,129.748052 L302.696865,130.887237 L302.015431,131.619117 C301.19913,130.85908 300.391468,130.089819 299.592613,129.311496 L298.400955,128.137234 L299.106867,127.428935 Z M508.872976,123.304387 L509.606025,123.984562 C508.847611,124.801931 508.079961,125.610683 507.303237,126.410651 L506.131365,127.603994 L505.421848,126.899306 C506.592503,125.720629 507.74306,124.522136 508.872976,123.304387 Z M292.281907,120.147559 C293.011356,120.980904 293.750232,121.80596 294.498376,122.622559 L295.627524,123.841092 L294.897888,124.524928 C294.135349,123.711318 293.382063,122.889108 292.638188,122.058467 L291.529452,120.806203 L292.281907,120.147559 Z M515.409059,115.760628 L516.186703,116.389332 C515.48577,117.256316 514.775021,118.115331 514.054606,118.966205 L512.966755,120.236386 L512.210938,119.581603 C513.298578,118.326139 514.364788,117.052286 515.409059,115.760628 Z M285.973926,112.426048 C286.644706,113.306713 287.325465,114.179749 288.016058,115.04498 L289.059304,116.336951 L288.284857,116.96959 C287.579685,116.106353 286.884339,115.235169 286.198966,114.356214 L285.178406,113.031975 L285.973926,112.426048 Z M521.416854,107.788091 L522.235561,108.362303 C521.594925,109.275716 520.943916,110.181819 520.282676,111.080434 L519.283159,112.422717 L518.484505,111.820925 C519.484822,110.49338 520.46243,109.148901 521.416854,107.788091 Z M280.196616,104.278005 C280.806051,105.20299 281.425997,106.12101 282.056319,107.031884 L283.009566,108.392815 L282.193777,108.971165 C281.548729,108.061295 280.914059,107.14414 280.289902,106.21988 L279.361569,104.828184 L280.196616,104.278005 Z M526.865498,99.4252878 L527.721542,99.9421916 C527.14538,100.896372 526.558372,101.843941 525.960646,102.784716 L525.056035,104.190763 L524.218146,103.644922 C525.12455,102.253554 526.007144,100.846806 526.865498,99.4252878 Z M274.994522,95.761718 C275.538939,96.7257248 276.094322,97.6834577 276.66055,98.6347365 L277.51801,100.056791 L276.664598,100.578029 C276.083595,99.6267642 275.513449,98.6689088 274.954283,97.7046441 L274.123783,96.2534625 L274.994522,95.761718 Z M531.710385,90.7449845 L532.599729,91.2022233 C532.089564,92.1945097 531.568094,93.1808628 531.035435,94.161101 L530.228069,95.6268491 L529.354928,95.1393818 C530.165086,93.6882437 530.950368,92.2232414 531.710385,90.7449845 Z M270.38319,86.8981063 C270.860314,87.8977667 271.348828,88.8918383 271.848621,89.8801412 L272.606757,91.3582464 L271.719596,91.8197066 C271.205031,90.8304527 270.701769,89.8352982 270.209918,88.834424 L269.480714,87.3288457 L270.38319,86.8981063 Z M535.96767,81.7131794 L536.886363,82.1081525 C536.445841,83.1327894 535.993645,84.152194 535.529876,85.1661866 L534.825557,86.6830939 L533.920984,86.2567755 C534.629073,84.7543338 535.311417,83.239601 535.96767,81.7131794 Z M266.396469,77.7473508 C266.803652,78.7775286 267.222573,79.8028064 267.653136,80.8230073 L268.3077,82.349479 L267.390908,82.7488442 C266.945674,81.7267563 266.512114,80.6994661 266.090324,79.6671518 L265.466478,78.1149345 L266.396469,77.7473508 Z M539.582994,72.4373744 L540.526668,72.7682529 C540.157215,73.8219398 539.77575,74.871073 539.382361,75.9154762 L538.783347,77.4785115 L537.851642,77.1152952 C538.455403,75.5665557 539.032621,74.007052 539.582994,72.4373744 Z M263.044667,68.3272008 C263.379693,69.3830198 263.726736,70.4346208 264.085713,71.4818319 L264.633119,73.0493347 L263.69094,73.3844448 C263.317485,72.3344554 262.956004,71.2799586 262.606582,70.2211278 L262.091503,68.6296528 L263.044667,68.3272008 Z M542.560547,62.9024892 L543.524814,63.1674218 C543.229003,64.2440756 542.920938,65.316856 542.600695,66.3855928 L542.111207,67.9856441 L541.15665,67.687616 C541.651827,66.10161 542.119878,64.5063778 542.560547,62.9024892 Z M260.362079,58.7399794 C260.623799,59.8168765 260.897755,60.8902148 261.183877,61.9598288 L261.622176,63.5614361 L260.659172,63.8309255 C260.35884,62.7577071 260.070722,61.6806563 259.79489,60.5999398 L259.390365,58.9761366 L260.362079,58.7399794 Z M544.867725,53.2104734 L545.847932,53.40845 C545.627045,54.5020893 545.393755,55.5925183 545.148127,56.6795749 L544.770439,58.3076102 L543.797621,58.0760407 C544.181892,56.4617249 544.538666,54.8396883 544.867725,53.2104734 Z M258.361529,49.0881853 C258.549491,50.1806289 258.749827,51.2701464 258.962477,52.3565803 L259.29068,53.9838989 L258.311566,54.1872118 C258.085065,53.096429 257.870934,52.0024648 257.669233,50.9054779 L257.37601,49.2577503 L258.361529,49.0881853 Z M547.236401,41.9439973 L547.546382,42.7770849 L550.74729,51.3796537 L549.810066,51.7283828 L547.274,44.913 L546.716212,48.462282 L545.728382,48.3067414 L546.287,44.758 L541.780569,50.4640826 L540.995856,49.8442227 L546.685414,42.6415195 L547.236401,41.9439973 Z M257.495735,43.3801987 L257.547387,43.7690803 L257.547387,43.7690803 L257.600076,44.1577483 L256.609321,44.2934152 L256.556271,43.9020798 L256.556271,43.9020798 L256.504265,43.5105298 L257.495735,43.3801987 Z" id="Shape-Copy" fill="#979797" fill-rule="nonzero" transform="translate(403.625777, 106.444681) scale(-1, -1) translate(-403.625777, -106.444681) "></path>
        <path d="M217.4,194.94 C219.12,194.94 220.2,195 220.2,195 L220.34,194.42 L219.7,194.32 C219.1,194.22 218.78,194.08 218.78,193.6 C218.78,193.42 218.82,193.22 218.86,193.02 L219.9,188.52 C220.64,188.52 221.04,189.1 222.7,189.1 C224.94,189.1 227.2,187.12 227.2,184.58 C227.2,182.34 225.52,181 223.26,181 C222.22,181 221.64,181.06 220.8,181.06 C219.04,181.06 218,181 218,181 L217.86,181.58 L218.5,181.68 C219.1,181.78 219.42,181.92 219.42,182.4 C219.42,182.58 219.38,182.78 219.34,182.98 L217.2,192.36 C216.94,193.52 216.42,194.06 215.32,194.32 L214.9,194.42 L214.76,195 C214.76,195 215.7,194.94 217.4,194.94 Z M222.1,188.24 C221.26,188.24 220.64,187.92 220.1,187.92 L221.52,181.82 C221.72,181.76 222.06,181.68 222.58,181.68 C224.08,181.68 225.28,182.84 225.28,184.58 C225.28,186.38 223.94,188.24 222.1,188.24 Z M228.32,195.3 C228.8,195.3 229.04,195.16 229.04,195.16 C229.04,193.16 231.76,187.16 233.68,187.16 C234.28,187.16 234.4,187.56 234.4,187.78 C234.4,187.92 234.36,188.04 234.36,188.04 C234.36,188.04 234.42,188.06 234.5,188.06 C235.04,188.06 235.74,187.7 235.74,186.88 C235.74,186.22 235.3,185.7 234.46,185.7 C232,185.7 229.62,191.4 229.62,191.4 L229.54,191.4 C229.7,190.96 230.26,189.56 231.82,185.7 C230.08,186.54 228.14,186.62 228.14,186.62 L228.14,187.06 C228.98,187.06 229.42,187.16 229.42,187.62 C229.42,187.8 229.32,188.16 229.28,188.3 L227.66,194.04 C227.6,194.24 227.6,194.32 227.6,194.5 C227.6,194.94 227.86,195.3 228.32,195.3 Z M238,195.32 C241.1,195.32 243.48,191.44 243.48,188.48 C243.48,186.7 242.56,185.68 241.14,185.68 C238.06,185.68 235.68,189.58 235.68,192.54 C235.68,194.3 236.6,195.32 238,195.32 Z M238.58,194.58 C237.74,194.58 237.32,193.78 237.32,192.32 C237.32,190.06 238.76,186.44 240.58,186.44 C241.42,186.44 241.84,187.22 241.84,188.68 C241.84,190.94 240.4,194.58 238.58,194.58 Z M250.6,195.34 C252.08,195.34 253.32,193.48 253.94,192.3 L253.64,192.08 C253.2,192.7 252.28,194 251.52,194 C251.24,194 251.12,193.84 251.12,193.58 C251.12,193.26 251.34,192.5 251.62,191.72 L255.76,180 C254.02,180.84 252.08,180.92 252.08,180.92 L252.08,181.36 C252.92,181.36 253.36,181.48 253.36,181.92 C253.36,182.14 253.26,182.46 253.22,182.58 L251.98,186.2 C251.78,185.96 251.3,185.68 250.64,185.68 C247.16,185.68 244.18,190.04 244.18,193.28 C244.18,194.64 244.82,195.32 246.04,195.32 C248.12,195.32 249.56,193.04 250.14,191.9 L250.22,191.9 C249.98,192.58 249.62,193.48 249.62,194.18 C249.62,195.12 249.98,195.34 250.6,195.34 Z M246.76,194.14 C246.06,194.14 245.74,193.74 245.74,192.9 C245.74,190.74 247.8,186.5 250.32,186.5 C250.82,186.5 251.12,186.86 251.12,187.46 C251.12,190.48 248.48,194.14 246.76,194.14 Z M256.14,195.32 C258.16,195.32 260.32,192.18 261.72,189.6 L261.8,189.6 C261.64,190.04 261.08,191.46 259.52,195.3 C261.26,194.46 263.2,194.38 263.2,194.38 L263.2,193.94 C262.36,193.94 261.82,193.84 261.82,193.38 C261.82,193.18 261.9,192.94 261.96,192.74 L263.84,186.96 C263.9,186.76 263.94,186.56 263.94,186.4 C263.94,185.94 263.64,185.68 263.18,185.68 C262.7,185.68 262.5,185.84 262.5,185.84 C262.5,187.92 259,193.98 256.98,193.98 C256.74,193.98 256.68,193.8 256.68,193.6 C256.68,193.34 256.76,193.04 256.92,192.6 L258.12,189.16 C258.58,187.84 258.8,186.98 258.8,186.46 C258.8,185.86 258.52,185.68 258.04,185.68 C256.66,185.68 255.52,187.24 254.88,188.44 L255.18,188.64 C255.6,188.04 256.4,187 256.9,187 C257.1,187 257.2,187.08 257.2,187.28 C257.2,187.6 257,188.2 256.66,189.16 L255.46,192.58 C255.24,193.18 255.08,193.94 255.08,194.32 C255.08,194.96 255.36,195.32 256.14,195.32 Z M267.34,195.32 C269.32,195.32 270.52,193.58 271.06,192.48 L270.76,192.26 C270.1,193.18 269,194.18 267.74,194.18 C266.94,194.18 266.46,193.66 266.46,192.68 C266.46,190.28 267.84,186.64 270.16,186.64 C270.86,186.64 271.18,186.96 271.18,187.46 C271.18,187.62 271.14,187.8 271.06,188.02 C271.12,188.04 271.24,188.06 271.34,188.06 C272,188.06 272.64,187.54 272.64,186.78 C272.64,185.98 271.88,185.68 271.18,185.68 C267.62,185.68 264.82,189.64 264.82,192.9 C264.82,194.5 265.62,195.32 267.34,195.32 Z M273.84,195.32 C275.3,195.32 276.94,192.92 277.54,191.76 L277.2,191.56 C276.56,192.5 275.48,193.8 274.78,193.8 C274.6,193.8 274.44,193.7 274.44,193.42 C274.44,192.96 274.74,192.02 275.32,190.46 L276.66,186.82 L279.14,186.82 L279.5,185.94 L276.96,185.94 C276.96,185.94 277.56,184 278.02,183.54 C277.94,183.46 277.64,183.32 277.34,183.32 C276.68,183.32 276.2,183.66 275.92,184.46 L275.4,185.88 L274.06,186.16 L274,186.74 L275.08,186.78 L273.12,192.4 C272.88,193.08 272.8,193.64 272.8,194.08 C272.8,194.88 273.16,195.32 273.84,195.32 Z" id="Product" fill="#000000" fill-rule="nonzero"></path>
        <path d="M504.99,193.94 C506.71,193.94 507.79,194 507.79,194 L507.93,193.42 L507.29,193.32 C506.69,193.22 506.37,193.08 506.37,192.6 C506.37,192.42 506.41,192.22 506.45,192.02 L508.59,182.64 C508.85,181.48 509.37,180.94 510.47,180.68 L510.89,180.58 L511.03,180 C511.03,180 510.03,180.06 508.39,180.06 C506.63,180.06 505.59,180 505.59,180 L505.45,180.58 L506.09,180.68 C506.69,180.78 507.01,180.92 507.01,181.4 C507.01,181.58 506.97,181.78 506.93,181.98 L504.79,191.36 C504.53,192.52 504.01,193.06 502.91,193.32 L502.49,193.42 L502.35,194 C502.35,194 503.29,193.94 504.99,193.94 Z M516.47,194.32 C517.85,194.32 518.99,192.76 519.63,191.58 L519.33,191.36 C518.91,191.96 518.11,193 517.61,193 C517.41,193 517.31,192.92 517.31,192.72 C517.31,192.4 517.51,191.8 517.85,190.84 L519.05,187.44 C519.27,186.82 519.43,186.06 519.43,185.68 C519.43,185.04 519.15,184.68 518.37,184.68 C516.35,184.68 514.19,187.82 512.79,190.4 L512.71,190.4 C512.87,189.96 513.43,188.56 514.99,184.7 C513.25,185.54 511.31,185.62 511.31,185.62 L511.31,186.06 C512.15,186.06 512.59,186.16 512.59,186.62 C512.59,186.82 512.51,187.06 512.45,187.26 L510.63,193.04 C510.57,193.24 510.53,193.44 510.53,193.62 C510.53,194.06 510.83,194.32 511.29,194.32 C511.77,194.32 512.01,194.16 512.01,194.16 C512.01,192.08 515.51,186.02 517.53,186.02 C517.77,186.02 517.83,186.2 517.83,186.42 C517.83,186.66 517.75,186.96 517.59,187.42 L516.39,190.84 C515.93,192.16 515.71,193.02 515.71,193.56 C515.71,194.14 515.99,194.32 516.47,194.32 Z M516.41,200.06 C519.81,200.06 522.07,194.68 523.29,191.04 L524.97,186.06 L527.47,186.06 C528.31,186.06 528.75,186.16 528.75,186.62 C528.75,186.8 528.65,187.16 528.61,187.3 L526.99,193.04 C526.93,193.24 526.93,193.32 526.93,193.5 C526.93,193.94 527.19,194.3 527.65,194.3 C528.13,194.3 528.37,194.16 528.37,194.16 C528.37,192.16 531.09,186.16 533.01,186.16 C533.61,186.16 533.73,186.56 533.73,186.78 C533.73,186.92 533.69,187.04 533.69,187.04 C533.69,187.04 533.75,187.06 533.83,187.06 C534.37,187.06 535.07,186.7 535.07,185.88 C535.07,185.22 534.63,184.7 533.79,184.7 C531.33,184.7 528.95,190.4 528.95,190.4 L528.87,190.4 C529.03,189.96 529.59,188.56 531.15,184.7 C530.83,184.86 530.53,184.98 530.21,185.08 L525.31,185.08 L525.65,183.84 C526.49,180.74 527.81,179.3 529.49,179.3 C530.69,179.3 530.83,180.1 530.83,180.54 C530.83,180.74 530.77,181.08 530.69,181.34 C530.85,181.42 531.11,181.5 531.41,181.5 C532.21,181.5 532.83,180.78 532.83,180.12 C532.83,179.42 532.29,178.42 530.35,178.42 C527.25,178.42 524.69,181.16 523.69,184.54 L523.49,185.22 L521.85,185.42 L521.71,185.9 L523.23,185.9 L520.77,194.06 C519.79,197.3 518.69,199.1 517.05,199.1 C516.41,199.1 516.09,198.78 516.09,198.3 C516.09,198.14 516.13,197.98 516.21,197.8 C516.21,197.8 516.09,197.78 515.95,197.78 C515.41,197.78 514.79,198.08 514.79,198.86 C514.79,199.46 515.21,200.06 516.41,200.06 Z M540.75,194.34 C542.15,194.34 543.27,192.48 543.73,191.4 L543.43,191.2 C542.93,192.02 542.25,193 541.57,193 C541.29,193 541.19,192.84 541.19,192.56 C541.19,190.6 543.35,185.7 543.95,185 C543.77,184.84 543.51,184.7 543.19,184.7 C542.51,184.7 542.13,185.52 542.03,185.84 C541.69,185.56 541.27,185.22 540.49,185.22 C537.51,185.22 534.77,188.82 534.77,192.06 C534.77,193.36 535.31,194.34 536.53,194.34 C538.57,194.34 539.65,192.1 540.23,190.9 L540.31,190.9 C540.11,191.42 539.71,192.32 539.71,193.2 C539.71,194.04 540.13,194.34 540.75,194.34 Z M537.27,193.16 C536.55,193.16 536.33,192.7 536.33,191.66 C536.33,189.04 538.01,185.98 540.09,185.98 C540.73,185.98 541.19,186.3 541.43,186.88 C540.87,188.94 538.95,193.16 537.27,193.16 Z M545.47,194.32 C546.91,194.32 549.01,193.22 549.01,191.3 C549.01,189.3 547.05,188.5 547.05,187.02 C547.05,186.4 547.51,185.62 548.55,185.62 C549.35,185.62 549.59,186.02 549.59,186.48 C549.59,186.6 549.55,186.76 549.49,186.88 C549.57,186.9 549.67,186.92 549.81,186.92 C550.55,186.92 551.01,186.42 551.01,185.82 C551.01,185.18 550.35,184.68 549.21,184.68 C547.81,184.68 545.97,185.9 545.97,187.58 C545.97,189.56 547.65,190.32 547.65,191.96 C547.65,192.96 546.91,193.3 546.01,193.3 C545.49,193.3 545.01,193.02 545.01,192.6 C545.01,192.44 545.05,192.3 545.13,192.16 L545.0884,192.15296 C545.05,192.1472 544.99,192.14 544.93,192.14 C544.31,192.14 543.73,192.56 543.73,193.26 C543.73,194.1 544.63,194.32 545.47,194.32 Z M552.37,194.32 C553.83,194.32 555.47,191.92 556.07,190.76 L555.73,190.56 C555.09,191.5 554.01,192.8 553.31,192.8 C553.13,192.8 552.97,192.7 552.97,192.42 C552.97,191.96 553.27,191.02 553.85,189.46 L555.19,185.82 L557.67,185.82 L558.03,184.94 L555.49,184.94 C555.49,184.94 556.09,183 556.55,182.54 C556.47,182.46 556.17,182.32 555.87,182.32 C555.21,182.32 554.73,182.66 554.45,183.46 L553.93,184.88 L552.59,185.16 L552.53,185.74 L553.61,185.78 L551.65,191.4 C551.41,192.08 551.33,192.64 551.33,193.08 C551.33,193.88 551.69,194.32 552.37,194.32 Z M558.71,194.3 C559.19,194.3 559.43,194.16 559.43,194.16 C559.43,192.16 562.15,186.16 564.07,186.16 C564.67,186.16 564.79,186.56 564.79,186.78 C564.79,186.92 564.75,187.04 564.75,187.04 C564.75,187.04 564.81,187.06 564.89,187.06 C565.43,187.06 566.13,186.7 566.13,185.88 C566.13,185.22 565.69,184.7 564.85,184.7 C562.39,184.7 560.01,190.4 560.01,190.4 L559.93,190.4 C560.09,189.96 560.65,188.56 562.21,184.7 C560.47,185.54 558.53,185.62 558.53,185.62 L558.53,186.06 C559.37,186.06 559.81,186.16 559.81,186.62 C559.81,186.8 559.71,187.16 559.67,187.3 L558.05,193.04 C557.99,193.24 557.99,193.32 557.99,193.5 C557.99,193.94 558.25,194.3 558.71,194.3 Z M567.31,194.32 C569.33,194.32 571.49,191.18 572.89,188.6 L572.97,188.6 C572.81,189.04 572.25,190.46 570.69,194.3 C572.43,193.46 574.37,193.38 574.37,193.38 L574.37,192.94 C573.53,192.94 572.99,192.84 572.99,192.38 C572.99,192.18 573.07,191.94 573.13,191.74 L575.01,185.96 C575.07,185.76 575.11,185.56 575.11,185.4 C575.11,184.94 574.81,184.68 574.35,184.68 C573.87,184.68 573.67,184.84 573.67,184.84 C573.67,186.92 570.17,192.98 568.15,192.98 C567.91,192.98 567.85,192.8 567.85,192.6 C567.85,192.34 567.93,192.04 568.09,191.6 L569.29,188.16 C569.75,186.84 569.97,185.98 569.97,185.46 C569.97,184.86 569.69,184.68 569.21,184.68 C567.83,184.68 566.69,186.24 566.05,187.44 L566.35,187.64 C566.77,187.04 567.57,186 568.07,186 C568.27,186 568.37,186.08 568.37,186.28 C568.37,186.6 568.17,187.2 567.83,188.16 L566.63,191.58 C566.41,192.18 566.25,192.94 566.25,193.32 C566.25,193.96 566.53,194.32 567.31,194.32 Z M578.51,194.32 C580.49,194.32 581.69,192.58 582.23,191.48 L581.93,191.26 C581.27,192.18 580.17,193.18 578.91,193.18 C578.11,193.18 577.63,192.66 577.63,191.68 C577.63,189.28 579.01,185.64 581.33,185.64 C582.03,185.64 582.35,185.96 582.35,186.46 C582.35,186.62 582.31,186.8 582.23,187.02 C582.29,187.04 582.41,187.06 582.51,187.06 C583.17,187.06 583.81,186.54 583.81,185.78 C583.81,184.98 583.05,184.68 582.35,184.68 C578.79,184.68 575.99,188.64 575.99,191.9 C575.99,193.5 576.79,194.32 578.51,194.32 Z M585.01,194.32 C586.47,194.32 588.11,191.92 588.71,190.76 L588.37,190.56 C587.73,191.5 586.65,192.8 585.95,192.8 C585.77,192.8 585.61,192.7 585.61,192.42 C585.61,191.96 585.91,191.02 586.49,189.46 L587.83,185.82 L590.31,185.82 L590.67,184.94 L588.13,184.94 C588.13,184.94 588.73,183 589.19,182.54 C589.11,182.46 588.81,182.32 588.51,182.32 C587.85,182.32 587.37,182.66 587.09,183.46 L586.57,184.88 L585.23,185.16 L585.17,185.74 L586.25,185.78 L584.29,191.4 C584.05,192.08 583.97,192.64 583.97,193.08 C583.97,193.88 584.33,194.32 585.01,194.32 Z M591.71,194.32 C593.73,194.32 595.89,191.18 597.29,188.6 L597.37,188.6 C597.21,189.04 596.65,190.46 595.09,194.3 C596.83,193.46 598.77,193.38 598.77,193.38 L598.77,192.94 C597.93,192.94 597.39,192.84 597.39,192.38 C597.39,192.18 597.47,191.94 597.53,191.74 L599.41,185.96 C599.47,185.76 599.51,185.56 599.51,185.4 C599.51,184.94 599.21,184.68 598.75,184.68 C598.27,184.68 598.07,184.84 598.07,184.84 C598.07,186.92 594.57,192.98 592.55,192.98 C592.31,192.98 592.25,192.8 592.25,192.6 C592.25,192.34 592.33,192.04 592.49,191.6 L593.69,188.16 C594.15,186.84 594.37,185.98 594.37,185.46 C594.37,184.86 594.09,184.68 593.61,184.68 C592.23,184.68 591.09,186.24 590.45,187.44 L590.75,187.64 C591.17,187.04 591.97,186 592.47,186 C592.67,186 592.77,186.08 592.77,186.28 C592.77,186.6 592.57,187.2 592.23,188.16 L591.03,191.58 C590.81,192.18 590.65,192.94 590.65,193.32 C590.65,193.96 590.93,194.32 591.71,194.32 Z M601.27,194.3 C601.75,194.3 601.99,194.16 601.99,194.16 C601.99,192.16 604.71,186.16 606.63,186.16 C607.23,186.16 607.35,186.56 607.35,186.78 C607.35,186.92 607.31,187.04 607.31,187.04 C607.31,187.04 607.37,187.06 607.45,187.06 C607.99,187.06 608.69,186.7 608.69,185.88 C608.69,185.22 608.25,184.7 607.41,184.7 C604.95,184.7 602.57,190.4 602.57,190.4 L602.49,190.4 C602.65,189.96 603.21,188.56 604.77,184.7 C603.03,185.54 601.09,185.62 601.09,185.62 L601.09,186.06 C601.93,186.06 602.37,186.16 602.37,186.62 C602.37,186.8 602.27,187.16 602.23,187.3 L600.61,193.04 C600.55,193.24 600.55,193.32 600.55,193.5 C600.55,193.94 600.81,194.3 601.27,194.3 Z M611.05,194.32 C613.27,194.32 614.65,191.98 614.93,191.48 L614.63,191.26 C614.15,191.96 612.89,193.18 611.63,193.18 C610.59,193.18 610.25,192.42 610.25,191.68 C610.25,190.98 610.35,190.4 610.55,189.72 C614.29,188.74 616.19,187.62 616.19,186.06 C616.19,185.4 615.79,184.68 614.65,184.68 C610.93,184.68 608.61,189.04 608.61,191.9 C608.61,193.42 609.45,194.32 611.05,194.32 Z M610.71,189.18 C611.13,188 612.29,185.48 613.97,185.48 C614.39,185.48 614.65,185.74 614.65,186.2 C614.65,187.92 612.07,188.78 610.71,189.18 Z" id="Infastructure" fill="#000000" fill-rule="nonzero"></path>
        <polygon id="Line-5" fill="#979797" fill-rule="nonzero" points="367 190 367 191 286 191 286 190"></polygon>
        <polygon id="Line-5-Copy" fill="#979797" fill-rule="nonzero" points="494 190 494 191 439 191 439 190"></polygon>
        <g id="Group" transform="translate(100.000000, 41.000000)" fill="#979797" fill-rule="nonzero">
            <path d="M291.732136,166 L292.042117,166.833088 L295.243025,175.435656 L294.305802,175.784386 L291.769735,168.969003 L290.830562,174.939395 C278.130618,244.06984 217.60507,295.001367 146.495735,295.001367 C73.3728325,295.001367 11.7815807,241.220875 1.30188107,169.73806 L1,167.566532 L1.99147053,167.436201 C11.4647501,239.502509 73.1377028,294.001367 146.495735,294.001367 C216.414121,294.001367 276.030578,244.423184 289.452333,176.825189 L289.844876,174.771282 L290.782735,168.814003 L286.276304,174.520085 L285.491592,173.900225 L291.181149,166.697522 L291.732136,166 Z" id="Shape"></path>
            <path d="M290.732136,0 L291.042117,0.833087611 L294.243025,9.43565639 L293.305802,9.7843855 L290.769735,2.96900268 L289.830562,8.93939539 C277.130618,78.06984 216.60507,129.001367 145.495735,129.001367 C72.3728325,129.001367 10.7815807,75.2208753 0.301881066,3.73805971 L-1.13686838e-13,1.56653244 L0.991470533,1.43620139 C10.4647501,73.5025093 72.1377028,128.001367 145.495735,128.001367 C215.414121,128.001367 275.030578,78.4231844 288.452333,10.8251893 L288.844876,8.77128202 L289.782735,2.81400268 L285.276304,8.5200853 L284.491592,7.90022538 L290.181149,0.697522209 L290.732136,0 Z" id="Shape-Copy" transform="translate(147.121513, 64.500683) scale(-1, -1) translate(-147.121513, -64.500683) "></path>
        </g>
        <g id="Group-Copy" transform="translate(411.000000, 41.000000)" fill="#979797" fill-rule="nonzero">
            <path d="M291.732136,166 L292.042117,166.833088 L295.243025,175.435656 L294.305802,175.784386 L291.769735,168.969003 L290.830562,174.939395 C278.130618,244.06984 217.60507,295.001367 146.495735,295.001367 C73.3728325,295.001367 11.7815807,241.220875 1.30188107,169.73806 L1,167.566532 L1.99147053,167.436201 C11.4647501,239.502509 73.1377028,294.001367 146.495735,294.001367 C216.414121,294.001367 276.030578,244.423184 289.452333,176.825189 L289.844876,174.771282 L290.782735,168.814003 L286.276304,174.520085 L285.491592,173.900225 L291.181149,166.697522 L291.732136,166 Z" id="Shape"></path>
            <path d="M290.732136,0 L291.042117,0.833087611 L294.243025,9.43565639 L293.305802,9.7843855 L290.769735,2.96900268 L289.830562,8.93939539 C277.130618,78.06984 216.60507,129.001367 145.495735,129.001367 C72.3728325,129.001367 10.7815807,75.2208753 0.301881066,3.73805971 L-1.13686838e-13,1.56653244 L0.991470533,1.43620139 C10.4647501,73.5025093 72.1377028,128.001367 145.495735,128.001367 C215.414121,128.001367 275.030578,78.4231844 288.452333,10.8251893 L288.844876,8.77128202 L289.782735,2.81400268 L285.276304,8.5200853 L284.491592,7.90022538 L290.181149,0.697522209 L290.732136,0 Z" id="Shape-Copy" transform="translate(147.121513, 64.500683) scale(-1, -1) translate(-147.121513, -64.500683) "></path>
        </g>
    </g>
</svg>