<?xml version="1.0" encoding="UTF-8"?>
<svg width="800px" height="315px" viewBox="0 0 800 315" version="1.1" xmlns="http://www.w3.org/2000/svg" xmlns:xlink="http://www.w3.org/1999/xlink">
    <!-- Generator: Sketch 60.1 (88133) - https://sketch.com -->
    <title>Minimal Viable Product Copy 8</title>
    <desc>Created with Sketch.</desc>
    <g id="Minimal-Viable-Product-Copy-8" stroke="none" stroke-width="1" fill="none" fill-rule="evenodd">
        <rect id="Rectangle" fill="#F7F7F7" x="0" y="0" width="800" height="315" rx="27"></rect>
        <g id="Group-2" transform="translate(18.000000, 78.000000)">
            <line x1="1" y1="1.5" x2="736.466667" y2="0.75" id="Line-30-Copy" stroke="#979797" stroke-linecap="square"></line>
            <line x1="0" y1="37" x2="735.466667" y2="36.5" id="Line-30-Copy-2" stroke="#979797" opacity="0.5" stroke-linecap="square"></line>
            <line x1="0" y1="72.75" x2="735.466667" y2="72" id="Line-30-Copy-3" stroke="#979797" opacity="0.5" stroke-linecap="square"></line>
            <line x1="0" y1="108.25" x2="735.466667" y2="107.75" id="Line-30-Copy-4" stroke="#979797" opacity="0.5" stroke-linecap="square"></line>
            <line x1="0" y1="144" x2="735.466667" y2="143.25" id="Line-30-Copy-5" stroke="#979797" opacity="0.5" stroke-linecap="square"></line>
            <g id="Group" transform="translate(0.000000, 6.250000)" stroke-width="2">
                <polyline id="Stroke-49" stroke="#2196F3" points="0 144.499987 2.83784074 153.071486 5.6756716 147.928587 8.51351233 149.642886 11.3513432 147.928587 14.1891839 147.928587 17.0270247 142.78578 19.8648654 149.642886 22.7026963 156.499993 25.540537 151.357186 28.3783777 149.642886 31.2162086 139.35718 34.0540493 147.928587 36.8918901 142.78578 39.7297209 139.35718 42.5675617 147.928587 45.4054024 149.642886 48.2432431 142.78578 51.081074 151.357186 53.9189147 151.357186 56.7567555 153.071486 59.5945962 153.071486 62.4324271 153.071486 65.2702579 156.499993 68.1081184 156.499993 70.9459789 154.785693 73.7837406 149.642886 76.6216011 149.642886 79.4594616 156.499993 82.2973221 153.071486 85.1350838 151.357186 87.9729443 151.357186 90.8108048 153.071486 93.6486653 153.071486 96.4865258 154.785693 99.3242875 146.214287 102.162148 151.357186 105.000008 154.785693 107.837869 151.357186 110.675631 144.499987 113.513491 108.50006 116.351352 111.928567 119.189212 129.071473 122.027073 125.642873 124.864834 144.499987 127.702695 135.92858 130.540555 134.21428 133.378416 141.07148 136.216178 144.499987 139.054038 147.928587 141.891899 153.071486 144.729759 146.214287 147.567521 146.214287 150.405381 156.499993 153.243242 147.928587 156.081102 147.928587 158.918864 158.214293 161.756724 154.785693 164.594585 147.928587 167.432445 153.071486 170.270306 153.071486 173.108068 154.785693 175.945928 153.071486 178.783789 158.214293 181.621649 156.499993 184.459411 154.785693 187.297271 156.499993 190.135132 156.499993 192.972992 154.785693 195.810754 163.357193 198.648614 151.357186 201.486475 154.785693 204.324335 156.499993 207.162196 159.928593 209.999958 156.499993 212.837818 153.071486 215.675679 156.499993 218.513539 158.214293 221.351301 154.785693 224.189161 154.785693 227.027022 156.499993 229.864882 154.785693 232.702644 154.785693 235.540505 156.499993 238.378365 158.214293 241.216226 156.499993 244.053987 158.214293 246.891848 156.499993 249.729708 154.785693 252.567569 151.357186 255.405429 158.214293 258.243191 158.214293 261.081051 154.785693 263.918912 159.928593 266.756772 156.499993 269.594534 153.071486 272.432395 158.214293 275.270255 158.214293 278.108116 151.357186 280.945976 159.928593 283.783738 158.214293 286.621598 149.642886 289.459459 154.785693 292.297319 151.357186 295.135081 151.357186 297.972941 149.642886 300.810802 158.214293 303.648662 156.499993 306.486523 159.928593 309.324285 163.357193 312.162145 151.357186 315.000006 149.642886 317.837866 156.499993 320.675628 158.214293 323.513488 154.785693 326.351349 158.214293 329.189209 161.642893 332.026971 161.642893 334.864832 154.785693 337.702692 159.928593 340.540553 154.785693 343.378413 158.214293 346.216175 156.499993 349.054035 156.499993 351.891896 154.785693 354.729756 156.499993 357.567518 156.499993 360.405378 153.071486 363.243239 156.499993 366.081099 159.928593 368.918861 161.642893 371.756722 156.499993 374.594582 161.642893 377.432443 158.214293 380.270204 154.785693 383.108065 151.357186 385.945925 156.499993 388.783786 163.357193 391.621547 156.499993 394.459408 159.928593 397.297268 154.785693 400.135129 158.214293 402.972989 163.357193 405.810751 161.642893 408.648612 163.357193 411.486472 159.928593 414.324333 158.214293 417.162094 163.357193 419.999955 165.071493 422.837815 163.357193 425.675676 165.071493 428.513438 154.785693 431.351298 149.642886 434.189159 161.642893 437.027019 165.071493 439.86488 156.499993 442.702641 156.499993 445.540502 158.214293 448.378362 158.214293 451.216223 163.357193 454.053984 165.071493 456.891845 161.642893 459.729705 161.642893 462.567566 154.785693 465.405426 161.642893 468.243188 161.642893 471.081049 163.357193 473.918909 161.642893 476.75677 158.214293 479.594531 154.785693 482.432392 159.928593 485.270252 159.928593 488.108113 163.357193 490.945874 163.357193 493.783735 158.214293 496.621595 156.499993 499.459456 159.928593 502.297218 163.357193 505.135078 156.499993 507.972939 154.785693 510.810799 165.071493 513.648561 161.642893 516.486421 154.785693 519.324282 159.928593 522.162142 159.928593 524.999904 156.499993 527.837863 163.357193 530.675625 159.928593 533.513486 159.928593 536.351346 158.214293 539.189207 159.928593 542.026968 161.642893 544.864829 163.357193 547.702689 163.357193 550.54055 163.357193 553.378311 163.357193 556.216172 159.928593 559.054032 158.214293 561.891893 161.642893 564.729655 159.928593 567.567515 165.071493 570.405376 159.928593 573.243236 159.928593 576.080998 158.214293 578.918957 165.071493 581.756719 166.7857 584.594579 158.214293 587.43244 163.357193 590.2703 165.071493 593.108062 161.642893 595.945922 166.7857 598.783783 165.071493 601.621643 163.357193 604.459405 163.357193 607.297266 166.7857 610.135126 168.5 612.972987 159.928593 615.810748 165.071493 618.648609 161.642893 621.486469 165.071493 624.32433 165.071493 627.162092 165.071493 629.999952 159.928593 632.837813 166.7857 635.675673 165.071493 638.513435 165.071493 641.351394 163.357193 644.189156 161.642893 647.026917 159.928593 649.864877 159.928593 652.702638 161.642893 655.540499 163.357193 658.378359 161.642893 661.21622 161.642893 664.053982 163.357193 666.891842 158.214293 669.729703 161.642893 672.567563 141.07148 675.405325 139.35718 678.243185 134.21428 681.081046 127.357173 683.918906 101.64286 686.756668 69.0714399 689.594528 43.3571546 692.432389 45.0714359 695.270249 31.357148 698.108011 5.64285336 700.945872 0.5 703.783732 50.2142893 706.621593 58.7857239 709.459354 69.0714399 712.297314 63.9285866 715.135075 53.6428706 717.972936 84.5000463 720.810796 82.7857464 723.648657 84.5000463 726.486419 82.7857464 729.324279 84.5000463 732.16214 70.7857213 735 82.7857464"></polyline>
                <polyline id="Stroke-50" stroke="#F44336" points="0 145.417802 2.83784074 150.595927 5.6756716 145.417802 8.51351233 141.965812 11.3513432 141.965812 14.1891839 143.691761 17.0270247 138.513729 19.8648654 140.239771 22.7026963 133.335604 25.540537 131.609563 28.3783777 141.965812 31.2162086 135.061646 34.0540493 140.239771 36.8918901 141.965812 39.7297209 138.513729 42.5675617 147.143844 45.4054024 155.773958 48.2432431 157.5 51.081074 140.239771 53.9189147 140.239771 56.7567555 145.417802 59.5945962 141.965812 62.4324271 147.143844 65.2702579 143.691761 68.1081184 136.787688 70.9459789 143.691761 73.7837406 138.513729 76.6216011 133.335604 79.4594616 143.691761 82.2973221 141.965812 85.1350838 138.513729 87.9729443 136.787688 90.8108048 141.965812 93.6486653 136.787688 96.4865258 135.061646 99.3242875 147.143844 102.162148 131.609563 105.000008 128.157573 107.837869 140.239771 110.675631 136.787688 113.513491 138.513729 116.351352 135.061646 119.189212 135.061646 122.027073 138.513729 124.864834 143.691761 127.702695 135.061646 130.540555 141.965812 133.378416 135.061646 136.216178 140.239771 139.054038 148.869885 141.891899 135.061646 144.729759 135.061646 147.567521 141.965812 150.405381 140.239771 153.243242 136.787688 156.081102 122.979448 158.918864 126.431531 161.756724 129.883615 164.594585 136.787688 167.432445 116.075375 170.270306 122.979448 173.108068 128.157573 175.945928 128.157573 178.783789 117.801417 181.621649 128.157573 184.459411 135.061646 187.297271 131.609563 190.135132 136.787688 192.972992 138.513729 195.810754 152.321969 198.648614 136.787688 201.486475 133.335604 204.324335 124.70549 207.162196 129.883615 209.999958 129.883615 212.837818 116.075375 215.675679 126.431531 218.513539 117.801417 221.351301 116.075375 224.189161 116.075375 227.027022 122.979448 229.864882 121.253407 232.702644 124.70549 235.540505 122.979448 238.378365 128.157573 241.216226 114.349334 244.053987 128.157573 246.891848 128.157573 249.729708 126.431531 252.567569 121.253407 255.405429 128.157573 258.243191 121.253407 261.081051 129.883615 263.918912 116.075375 266.756772 128.157573 269.594534 126.431531 272.432395 121.253407 275.270255 129.883615 278.108116 121.253407 280.945976 141.965812 283.783738 124.70549 286.621598 121.253407 289.459459 126.431531 292.297319 128.157573 295.135081 124.70549 297.972941 117.801417 300.810802 109.171209 303.648662 112.623292 306.486523 112.623292 309.324285 109.171209 312.162145 103.993177 315.000006 97.0890111 317.837866 102.267136 320.675628 110.89725 323.513488 95.3630628 326.351349 98.8150526 329.189209 100.541094 332.026971 121.253407 334.864832 109.171209 337.702692 103.993177 340.540553 128.157573 343.378413 138.513729 346.216175 128.157573 349.054035 116.075375 351.891896 103.993177 354.729756 117.801417 357.567518 103.993177 360.405378 109.171209 363.243239 122.979448 366.081099 114.349334 368.918861 107.445261 371.756722 102.267136 374.594582 97.0890111 377.432443 91.9109796 380.270204 117.801417 383.108065 117.801417 385.945925 116.075375 388.783786 91.9109796 391.621547 112.623292 394.459408 119.527458 397.297268 109.171209 400.135129 114.349334 402.972989 110.89725 405.810751 105.719219 408.648612 114.349334 411.486472 110.89725 414.324333 112.623292 417.162094 117.801417 419.999955 119.527458 422.837815 119.527458 425.675676 112.623292 428.513438 116.075375 431.351298 116.075375 434.189159 116.075375 437.027019 105.719219 439.86488 109.171209 442.702641 95.3630628 445.540502 102.267136 448.378362 88.4588964 451.216223 91.9109796 454.053984 91.9109796 456.891845 91.9109796 459.729705 97.0890111 462.567566 90.184938 465.405426 81.5548234 468.243188 107.445261 471.081049 91.9109796 473.918909 83.280865 476.75677 88.4588964 479.594531 90.184938 482.432392 83.280865 485.270252 93.6370212 488.108113 107.445261 490.945874 138.513729 493.783735 114.349334 496.621595 90.184938 499.459456 110.89725 502.297218 83.280865 505.135078 95.3630628 507.972939 100.541094 510.810799 103.993177 513.648561 97.0890111 516.486421 102.267136 519.324282 95.3630628 522.162142 90.184938 524.999904 100.541094 527.837863 91.9109796 530.675625 93.6370212 533.513486 86.7328549 536.351346 97.0890111 539.189207 100.541094 542.026968 107.445261 544.864829 86.7328549 547.702689 88.4588964 550.54055 81.5548234 553.378311 88.4588964 556.216172 88.4588964 559.054032 100.541094 561.891893 86.7328549 564.729655 78.1027402 567.567515 95.3630628 570.405376 79.8287818 573.243236 107.445261 576.080998 88.4588964 578.918957 86.7328549 581.756719 93.6370212 584.594579 97.0890111 587.43244 85.0069066 590.2703 86.7328549 593.108062 71.1986392 595.945922 76.3766987 598.783783 62.5685059 601.621643 66.0205611 604.459405 62.5685059 607.297266 60.8424737 610.135126 45.3082207 612.972987 53.9383633 615.810748 78.1027402 618.648609 66.0205611 621.486469 62.5685059 624.32433 64.2945289 627.162092 59.1164508 629.999952 76.3766987 632.837813 64.2945289 635.675673 90.184938 638.513435 117.801417 641.351394 121.253407 644.189156 78.1027402 647.026917 81.5548234 649.864877 76.3766987 652.702638 62.5685059 655.540499 81.5548234 658.378359 67.746584 661.21622 67.746584 664.053982 72.9246621 666.891842 76.3766987 669.729703 57.3904185 672.567563 69.472607 675.405325 60.8424737 678.243185 48.7602759 681.081046 52.2123404 683.918906 48.7602759 686.756668 40.1301426 689.594528 59.1164508 692.432389 60.8424737 695.270249 45.3082207 698.108011 43.5821978 700.945872 59.1164508 703.783732 64.2945289 706.621593 43.5821978 709.459354 34.9520645 712.297314 62.5685059 715.135075 31.5 717.972936 57.3904185 720.810796 47.034253 723.648657 64.2945289 726.486419 60.8424737 729.324279 31.5 732.16214 55.6643956 735 33.2260323"></polyline>
            </g>
            <line x1="0.533285094" y1="179" x2="736.466715" y2="179" id="Line-30" stroke="#979797" stroke-linecap="square"></line>
        </g>
        <g id="Group-3" transform="translate(130.000000, 26.000000)">
            <path d="M5.62,20.24 C6.5,20.24 7.18,20.05 7.66,19.67 C8.14,19.29 8.51333333,18.78 8.78,18.14 L8.78,18.14 L8.88,18.14 L8.88,20 L10.44,20 L10.44,13.1 L5.94,13.1 L5.94,14.44 L8.88,14.44 L8.88,15.88 C8.88,16.76 8.62,17.47 8.1,18.01 C7.58,18.55 6.88,18.82 6,18.82 C4.92,18.82 4.13333333,18.3966667 3.64,17.55 C3.14666667,16.7033333 2.9,15.5333333 2.9,14.04 L2.9,14.04 L2.9,11.88 C2.9,10.4266667 3.17,9.29333333 3.71,8.48 C4.25,7.66666667 5.06666667,7.26 6.16,7.26 C6.93333333,7.26 7.52666667,7.45333333 7.94,7.84 C8.35333333,8.22666667 8.70666667,8.78666667 9,9.52 L9,9.52 L10.44,8.86 C10.08,7.95333333 9.56333333,7.21666667 8.89,6.65 C8.21666667,6.08333333 7.28666667,5.8 6.1,5.8 C4.43333333,5.8 3.18666667,6.42 2.36,7.66 C1.53333333,8.9 1.12,10.72 1.12,13.12 C1.12,15.4266667 1.49666667,17.19 2.25,18.41 C3.00333333,19.63 4.12666667,20.24 5.62,20.24 Z M18,20.24 C18.96,20.24 19.79,20.02 20.49,19.58 C21.19,19.14 21.73,18.5133333 22.11,17.7 C22.49,16.8866667 22.68,15.9333333 22.68,14.84 C22.68,13.7466667 22.49,12.7933333 22.11,11.98 C21.73,11.1666667 21.19,10.54 20.49,10.1 C19.79,9.66 18.96,9.44 18,9.44 C17.04,9.44 16.21,9.66 15.51,10.1 C14.81,10.54 14.27,11.1666667 13.89,11.98 C13.51,12.7933333 13.32,13.7466667 13.32,14.84 C13.32,15.9333333 13.51,16.8866667 13.89,17.7 C14.27,18.5133333 14.81,19.14 15.51,19.58 C16.21,20.02 17.04,20.24 18,20.24 Z M18,18.86 C17.08,18.86 16.3533333,18.5833333 15.82,18.03 C15.2866667,17.4766667 15.02,16.66 15.02,15.58 L15.02,15.58 L15.02,14.1 C15.02,13.02 15.2866667,12.2033333 15.82,11.65 C16.3533333,11.0966667 17.08,10.82 18,10.82 C18.92,10.82 19.6466667,11.0966667 20.18,11.65 C20.7133333,12.2033333 20.98,13.02 20.98,14.1 L20.98,14.1 L20.98,15.58 C20.98,16.66 20.7133333,17.4766667 20.18,18.03 C19.6466667,18.5833333 18.92,18.86 18,18.86 Z M30,20.24 C30.96,20.24 31.79,20.02 32.49,19.58 C33.19,19.14 33.73,18.5133333 34.11,17.7 C34.49,16.8866667 34.68,15.9333333 34.68,14.84 C34.68,13.7466667 34.49,12.7933333 34.11,11.98 C33.73,11.1666667 33.19,10.54 32.49,10.1 C31.79,9.66 30.96,9.44 30,9.44 C29.04,9.44 28.21,9.66 27.51,10.1 C26.81,10.54 26.27,11.1666667 25.89,11.98 C25.51,12.7933333 25.32,13.7466667 25.32,14.84 C25.32,15.9333333 25.51,16.8866667 25.89,17.7 C26.27,18.5133333 26.81,19.14 27.51,19.58 C28.21,20.02 29.04,20.24 30,20.24 Z M30,18.86 C29.08,18.86 28.3533333,18.5833333 27.82,18.03 C27.2866667,17.4766667 27.02,16.66 27.02,15.58 L27.02,15.58 L27.02,14.1 C27.02,13.02 27.2866667,12.2033333 27.82,11.65 C28.3533333,11.0966667 29.08,10.82 30,10.82 C30.92,10.82 31.6466667,11.0966667 32.18,11.65 C32.7133333,12.2033333 32.98,13.02 32.98,14.1 L32.98,14.1 L32.98,15.58 C32.98,16.66 32.7133333,17.4766667 32.18,18.03 C31.6466667,18.5833333 30.92,18.86 30,18.86 Z M41.56,24.24 C42.9866667,24.24 44.1,23.8333333 44.9,23.02 C45.7,22.2066667 46.1,21.0866667 46.1,19.66 L46.1,19.66 L46.1,9.68 L44.5,9.68 L44.5,11.36 L44.42,11.36 C44.0866667,10.7333333 43.6533333,10.2566667 43.12,9.93 C42.5866667,9.60333333 41.96,9.44 41.24,9.44 C39.9866667,9.44 39,9.91 38.28,10.85 C37.56,11.79 37.2,13.0733333 37.2,14.7 C37.2,16.3266667 37.56,17.61 38.28,18.55 C39,19.49 39.9866667,19.96 41.24,19.96 C41.96,19.96 42.5866667,19.7966667 43.12,19.47 C43.6533333,19.1433333 44.0866667,18.6666667 44.42,18.04 L44.42,18.04 L44.5,18.04 L44.5,19.76 C44.5,20.7866667 44.2566667,21.5566667 43.77,22.07 C43.2833333,22.5833333 42.5533333,22.84 41.58,22.84 C40.4466667,22.84 39.52,22.4666667 38.8,21.72 L38.8,21.72 L37.86,22.82 C38.78,23.7666667 40.0133333,24.24 41.56,24.24 Z M41.86,18.54 C40.94,18.54 40.22,18.26 39.7,17.7 C39.18,17.14 38.92,16.3866667 38.92,15.44 L38.92,15.44 L38.92,13.96 C38.92,13.0133333 39.18,12.26 39.7,11.7 C40.22,11.14 40.94,10.86 41.86,10.86 C42.6066667,10.86 43.2333333,11.0466667 43.74,11.42 C44.2466667,11.7933333 44.5,12.3133333 44.5,12.98 L44.5,12.98 L44.5,16.42 C44.5,17.0866667 44.2466667,17.6066667 43.74,17.98 C43.2333333,18.3533333 42.6066667,18.54 41.86,18.54 Z M53,20 L53,18.6 L51.98,18.6 C51.82,18.6 51.6966667,18.5566667 51.61,18.47 C51.5233333,18.3833333 51.48,18.26 51.48,18.1 L51.48,18.1 L51.48,5.2 L49.88,5.2 L49.88,18.34 C49.88,18.8333333 50.03,19.2333333 50.33,19.54 C50.63,19.8466667 51.0466667,20 51.58,20 L51.58,20 L53,20 Z M60.18,20.24 C61.1666667,20.24 62.0233333,20.0233333 62.75,19.59 C63.4766667,19.1566667 64,18.58 64.32,17.86 L64.32,17.86 L63.14,17.06 C62.86,17.6333333 62.4666667,18.0766667 61.96,18.39 C61.4533333,18.7033333 60.86,18.86 60.18,18.86 C59.22,18.86 58.4533333,18.5666667 57.88,17.98 C57.3066667,17.3933333 57.02,16.64 57.02,15.72 L57.02,15.72 L57.02,15.24 L64.66,15.24 L64.66,14.48 C64.66,13.5066667 64.47,12.64 64.09,11.88 C63.71,11.12 63.1733333,10.5233333 62.48,10.09 C61.7866667,9.65666667 60.9866667,9.44 60.08,9.44 C59.1466667,9.44 58.3233333,9.66333333 57.61,10.11 C56.8966667,10.5566667 56.34,11.19 55.94,12.01 C55.54,12.83 55.34,13.78 55.34,14.86 C55.34,15.94 55.5366667,16.8866667 55.93,17.7 C56.3233333,18.5133333 56.8866667,19.14 57.62,19.58 C58.3533333,20.02 59.2066667,20.24 60.18,20.24 Z M62.94,14.04 L57.02,14.04 L57.02,13.9 C57.02,13.3133333 57.1533333,12.78 57.42,12.3 C57.6866667,11.82 58.0533333,11.4433333 58.52,11.17 C58.9866667,10.8966667 59.5066667,10.76 60.08,10.76 C60.9333333,10.76 61.6233333,11.0433333 62.15,11.61 C62.6766667,12.1766667 62.94,12.9133333 62.94,13.82 L62.94,13.82 L62.94,14.04 Z M80.96,20.24 C81.9866667,20.24 82.8666667,20.0733333 83.6,19.74 C84.3333333,19.4066667 84.89,18.93 85.27,18.31 C85.65,17.69 85.84,16.9533333 85.84,16.1 C85.84,15.1133333 85.5566667,14.2866667 84.99,13.62 C84.4233333,12.9533333 83.4933333,12.5066667 82.2,12.28 L82.2,12.28 L80.7,12.02 C79.74,11.86 79.0633333,11.5866667 78.67,11.2 C78.2766667,10.8133333 78.08,10.2933333 78.08,9.64 C78.08,8.85333333 78.3333333,8.25666667 78.84,7.85 C79.3466667,7.44333333 80.0733333,7.24 81.02,7.24 C81.8333333,7.24 82.5166667,7.38666667 83.07,7.68 C83.6233333,7.97333333 84.1133333,8.4 84.54,8.96 L84.54,8.96 L85.72,7.94 C85.24,7.24666667 84.61,6.71666667 83.83,6.35 C83.05,5.98333333 82.12,5.8 81.04,5.8 C79.5866667,5.8 78.4466667,6.13333333 77.62,6.8 C76.7933333,7.46666667 76.38,8.42666667 76.38,9.68 C76.38,10.6533333 76.66,11.4766667 77.22,12.15 C77.78,12.8233333 78.7,13.2666667 79.98,13.48 L79.98,13.48 L81.54,13.74 C82.4733333,13.9 83.14,14.1666667 83.54,14.54 C83.94,14.9133333 84.14,15.4466667 84.14,16.14 C84.14,16.98 83.87,17.6333333 83.33,18.1 C82.79,18.5666667 82.02,18.8 81.02,18.8 C80.1933333,18.8 79.4733333,18.6366667 78.86,18.31 C78.2466667,17.9833333 77.6666667,17.4733333 77.12,16.78 L77.12,16.78 L75.9,17.78 C76.46,18.5533333 77.1466667,19.1566667 77.96,19.59 C78.7733333,20.0233333 79.7733333,20.24 80.96,20.24 Z M92.42,20.24 C93.2066667,20.24 93.83,20.0666667 94.29,19.72 C94.75,19.3733333 95.1066667,18.9066667 95.36,18.32 L95.36,18.32 L95.44,18.32 L95.44,20 L97.04,20 L97.04,9.68 L95.44,9.68 L95.44,16.84 C95.44,17.48 95.19,17.97 94.69,18.31 C94.19,18.65 93.5866667,18.82 92.88,18.82 C92.08,18.82 91.4733333,18.5866667 91.06,18.12 C90.6466667,17.6533333 90.44,16.9533333 90.44,16.02 L90.44,16.02 L90.44,9.68 L88.84,9.68 L88.84,16.3 C88.84,17.54 89.1633333,18.5066667 89.81,19.2 C90.4566667,19.8933333 91.3266667,20.24 92.42,20.24 Z M105.36,20.24 C106.346667,20.24 107.173333,20.0233333 107.84,19.59 C108.506667,19.1566667 109,18.5733333 109.32,17.84 L109.32,17.84 L108.18,17.06 C107.913333,17.6333333 107.546667,18.0766667 107.08,18.39 C106.613333,18.7033333 106.046667,18.86 105.38,18.86 C104.433333,18.86 103.7,18.57 103.18,17.99 C102.66,17.41 102.4,16.6533333 102.4,15.72 L102.4,15.72 L102.4,13.96 C102.4,13.0266667 102.66,12.27 103.18,11.69 C103.7,11.11 104.42,10.82 105.34,10.82 C105.966667,10.82 106.5,10.9666667 106.94,11.26 C107.38,11.5533333 107.693333,11.9666667 107.88,12.5 L107.88,12.5 L109.16,11.82 C108.853333,11.0866667 108.38,10.5066667 107.74,10.08 C107.1,9.65333333 106.3,9.44 105.34,9.44 C103.886667,9.44 102.746667,9.92666667 101.92,10.9 C101.093333,11.8733333 100.68,13.1866667 100.68,14.84 C100.68,16.4933333 101.093333,17.8066667 101.92,18.78 C102.746667,19.7533333 103.893333,20.24 105.36,20.24 Z M114.56,20 L114.56,12.84 C114.56,12.2 114.81,11.71 115.31,11.37 C115.81,11.03 116.413333,10.86 117.12,10.86 C117.92,10.86 118.526667,11.0933333 118.94,11.56 C119.353333,12.0266667 119.56,12.7266667 119.56,13.66 L119.56,13.66 L119.56,20 L121.16,20 L121.16,13.38 C121.16,12.14 120.836667,11.1733333 120.19,10.48 C119.543333,9.78666667 118.673333,9.44 117.58,9.44 C116.793333,9.44 116.17,9.61333333 115.71,9.96 C115.25,10.3066667 114.893333,10.7733333 114.64,11.36 L114.64,11.36 L114.56,11.36 L114.56,5.2 L112.96,5.2 L112.96,20 L114.56,20 Z M129.18,20.24 C130.166667,20.24 131.023333,20.0233333 131.75,19.59 C132.476667,19.1566667 133,18.58 133.32,17.86 L133.32,17.86 L132.14,17.06 C131.86,17.6333333 131.466667,18.0766667 130.96,18.39 C130.453333,18.7033333 129.86,18.86 129.18,18.86 C128.22,18.86 127.453333,18.5666667 126.88,17.98 C126.306667,17.3933333 126.02,16.64 126.02,15.72 L126.02,15.72 L126.02,15.24 L133.66,15.24 L133.66,14.48 C133.66,13.5066667 133.47,12.64 133.09,11.88 C132.71,11.12 132.173333,10.5233333 131.48,10.09 C130.786667,9.65666667 129.986667,9.44 129.08,9.44 C128.146667,9.44 127.323333,9.66333333 126.61,10.11 C125.896667,10.5566667 125.34,11.19 124.94,12.01 C124.54,12.83 124.34,13.78 124.34,14.86 C124.34,15.94 124.536667,16.8866667 124.93,17.7 C125.323333,18.5133333 125.886667,19.14 126.62,19.58 C127.353333,20.02 128.206667,20.24 129.18,20.24 Z M131.94,14.04 L126.02,14.04 L126.02,13.9 C126.02,13.3133333 126.153333,12.78 126.42,12.3 C126.686667,11.82 127.053333,11.4433333 127.52,11.17 C127.986667,10.8966667 128.506667,10.76 129.08,10.76 C129.933333,10.76 130.623333,11.0433333 131.15,11.61 C131.676667,12.1766667 131.94,12.9133333 131.94,13.82 L131.94,13.82 L131.94,14.04 Z M138.56,20 L138.56,12.84 C138.56,12.2 138.81,11.71 139.31,11.37 C139.81,11.03 140.413333,10.86 141.12,10.86 C141.92,10.86 142.526667,11.0933333 142.94,11.56 C143.353333,12.0266667 143.56,12.7266667 143.56,13.66 L143.56,13.66 L143.56,20 L145.16,20 L145.16,13.38 C145.16,12.14 144.836667,11.1733333 144.19,10.48 C143.543333,9.78666667 142.673333,9.44 141.58,9.44 C140.793333,9.44 140.17,9.61333333 139.71,9.96 C139.25,10.3066667 138.893333,10.7733333 138.64,11.36 L138.64,11.36 L138.56,11.36 L138.56,9.68 L136.96,9.68 L136.96,20 L138.56,20 Z M159.56,20 L159.56,12.84 C159.56,12.2 159.81,11.71 160.31,11.37 C160.81,11.03 161.413333,10.86 162.12,10.86 C162.92,10.86 163.526667,11.0933333 163.94,11.56 C164.353333,12.0266667 164.56,12.7266667 164.56,13.66 L164.56,13.66 L164.56,20 L166.16,20 L166.16,13.38 C166.16,12.14 165.836667,11.1733333 165.19,10.48 C164.543333,9.78666667 163.673333,9.44 162.58,9.44 C161.793333,9.44 161.17,9.61333333 160.71,9.96 C160.25,10.3066667 159.893333,10.7733333 159.64,11.36 L159.64,11.36 L159.56,11.36 L159.56,9.68 L157.96,9.68 L157.96,20 L159.56,20 Z M172.86,20.24 C173.673333,20.24 174.336667,20.0733333 174.85,19.74 C175.363333,19.4066667 175.733333,18.9333333 175.96,18.32 L175.96,18.32 L176.06,18.32 C176.126667,18.84 176.303333,19.25 176.59,19.55 C176.876667,19.85 177.313333,20 177.9,20 L177.9,20 L179,20 L179,18.6 L178.28,18.6 C178.08,18.6 177.91,18.53 177.77,18.39 C177.63,18.25 177.56,18.08 177.56,17.88 L177.56,17.88 L177.56,12.92 C177.56,11.84 177.203333,10.99 176.49,10.37 C175.776667,9.75 174.813333,9.44 173.6,9.44 C172.613333,9.44 171.78,9.64 171.1,10.04 C170.42,10.44 169.94,10.9333333 169.66,11.52 L169.66,11.52 L170.74,12.32 C171.02,11.8266667 171.383333,11.45 171.83,11.19 C172.276667,10.93 172.833333,10.8 173.5,10.8 C174.286667,10.8 174.893333,10.9933333 175.32,11.38 C175.746667,11.7666667 175.96,12.3333333 175.96,13.08 L175.96,13.08 L175.96,14.1 L173.76,14.1 C170.8,14.1 169.32,15.1 169.32,17.1 C169.32,18.0733333 169.64,18.84 170.28,19.4 C170.92,19.96 171.78,20.24 172.86,20.24 Z M173.14,18.9 C172.473333,18.9 171.95,18.76 171.57,18.48 C171.19,18.2 171,17.8 171,17.28 L171,17.28 L171,16.86 C171,16.3533333 171.226667,15.9666667 171.68,15.7 C172.133333,15.4333333 172.826667,15.3 173.76,15.3 L173.76,15.3 L175.96,15.3 L175.96,17 C175.96,17.5333333 175.693333,17.9833333 175.16,18.35 C174.626667,18.7166667 173.953333,18.9 173.14,18.9 Z M186.36,20.24 C187.346667,20.24 188.173333,20.0233333 188.84,19.59 C189.506667,19.1566667 190,18.5733333 190.32,17.84 L190.32,17.84 L189.18,17.06 C188.913333,17.6333333 188.546667,18.0766667 188.08,18.39 C187.613333,18.7033333 187.046667,18.86 186.38,18.86 C185.433333,18.86 184.7,18.57 184.18,17.99 C183.66,17.41 183.4,16.6533333 183.4,15.72 L183.4,15.72 L183.4,13.96 C183.4,13.0266667 183.66,12.27 184.18,11.69 C184.7,11.11 185.42,10.82 186.34,10.82 C186.966667,10.82 187.5,10.9666667 187.94,11.26 C188.38,11.5533333 188.693333,11.9666667 188.88,12.5 L188.88,12.5 L190.16,11.82 C189.853333,11.0866667 189.38,10.5066667 188.74,10.08 C188.1,9.65333333 187.3,9.44 186.34,9.44 C184.886667,9.44 183.746667,9.92666667 182.92,10.9 C182.093333,11.8733333 181.68,13.1866667 181.68,14.84 C181.68,16.4933333 182.093333,17.8066667 182.92,18.78 C183.746667,19.7533333 184.893333,20.24 186.36,20.24 Z M195.56,20 L195.56,12.84 C195.56,12.2 195.81,11.71 196.31,11.37 C196.81,11.03 197.413333,10.86 198.12,10.86 C198.92,10.86 199.526667,11.0933333 199.94,11.56 C200.353333,12.0266667 200.56,12.7266667 200.56,13.66 L200.56,13.66 L200.56,20 L202.16,20 L202.16,13.38 C202.16,12.14 201.836667,11.1733333 201.19,10.48 C200.543333,9.78666667 199.673333,9.44 198.58,9.44 C197.793333,9.44 197.17,9.61333333 196.71,9.96 C196.25,10.3066667 195.893333,10.7733333 195.64,11.36 L195.64,11.36 L195.56,11.36 L195.56,5.2 L193.96,5.2 L193.96,20 L195.56,20 Z M238.14,20 L242.28,6.04 L240.56,6.04 L238.58,13.02 L237.08,18.3 L236.98,18.3 L235.48,13.02 L233.5,6.04 L231.72,6.04 L235.86,20 L238.14,20 Z M248.42,20.24 C249.206667,20.24 249.83,20.0666667 250.29,19.72 C250.75,19.3733333 251.106667,18.9066667 251.36,18.32 L251.36,18.32 L251.44,18.32 L251.44,20 L253.04,20 L253.04,9.68 L251.44,9.68 L251.44,16.84 C251.44,17.48 251.19,17.97 250.69,18.31 C250.19,18.65 249.586667,18.82 248.88,18.82 C248.08,18.82 247.473333,18.5866667 247.06,18.12 C246.646667,17.6533333 246.44,16.9533333 246.44,16.02 L246.44,16.02 L246.44,9.68 L244.84,9.68 L244.84,16.3 C244.84,17.54 245.163333,18.5066667 245.81,19.2 C246.456667,19.8933333 247.326667,20.24 248.42,20.24 Z M261.36,20.24 C262.346667,20.24 263.173333,20.0233333 263.84,19.59 C264.506667,19.1566667 265,18.5733333 265.32,17.84 L265.32,17.84 L264.18,17.06 C263.913333,17.6333333 263.546667,18.0766667 263.08,18.39 C262.613333,18.7033333 262.046667,18.86 261.38,18.86 C260.433333,18.86 259.7,18.57 259.18,17.99 C258.66,17.41 258.4,16.6533333 258.4,15.72 L258.4,15.72 L258.4,13.96 C258.4,13.0266667 258.66,12.27 259.18,11.69 C259.7,11.11 260.42,10.82 261.34,10.82 C261.966667,10.82 262.5,10.9666667 262.94,11.26 C263.38,11.5533333 263.693333,11.9666667 263.88,12.5 L263.88,12.5 L265.16,11.82 C264.853333,11.0866667 264.38,10.5066667 263.74,10.08 C263.1,9.65333333 262.3,9.44 261.34,9.44 C259.886667,9.44 258.746667,9.92666667 257.92,10.9 C257.093333,11.8733333 256.68,13.1866667 256.68,14.84 C256.68,16.4933333 257.093333,17.8066667 257.92,18.78 C258.746667,19.7533333 259.893333,20.24 261.36,20.24 Z M271.86,20.24 C272.673333,20.24 273.336667,20.0733333 273.85,19.74 C274.363333,19.4066667 274.733333,18.9333333 274.96,18.32 L274.96,18.32 L275.06,18.32 C275.126667,18.84 275.303333,19.25 275.59,19.55 C275.876667,19.85 276.313333,20 276.9,20 L276.9,20 L278,20 L278,18.6 L277.28,18.6 C277.08,18.6 276.91,18.53 276.77,18.39 C276.63,18.25 276.56,18.08 276.56,17.88 L276.56,17.88 L276.56,12.92 C276.56,11.84 276.203333,10.99 275.49,10.37 C274.776667,9.75 273.813333,9.44 272.6,9.44 C271.613333,9.44 270.78,9.64 270.1,10.04 C269.42,10.44 268.94,10.9333333 268.66,11.52 L268.66,11.52 L269.74,12.32 C270.02,11.8266667 270.383333,11.45 270.83,11.19 C271.276667,10.93 271.833333,10.8 272.5,10.8 C273.286667,10.8 273.893333,10.9933333 274.32,11.38 C274.746667,11.7666667 274.96,12.3333333 274.96,13.08 L274.96,13.08 L274.96,14.1 L272.76,14.1 C269.8,14.1 268.32,15.1 268.32,17.1 C268.32,18.0733333 268.64,18.84 269.28,19.4 C269.92,19.96 270.78,20.24 271.86,20.24 Z M272.14,18.9 C271.473333,18.9 270.95,18.76 270.57,18.48 C270.19,18.2 270,17.8 270,17.28 L270,17.28 L270,16.86 C270,16.3533333 270.226667,15.9666667 270.68,15.7 C271.133333,15.4333333 271.826667,15.3 272.76,15.3 L272.76,15.3 L274.96,15.3 L274.96,17 C274.96,17.5333333 274.693333,17.9833333 274.16,18.35 C273.626667,18.7166667 272.953333,18.9 272.14,18.9 Z M293.42,20.24 C294.206667,20.24 294.83,20.0666667 295.29,19.72 C295.75,19.3733333 296.106667,18.9066667 296.36,18.32 L296.36,18.32 L296.44,18.32 L296.44,20 L298.04,20 L298.04,9.68 L296.44,9.68 L296.44,16.84 C296.44,17.48 296.19,17.97 295.69,18.31 C295.19,18.65 294.586667,18.82 293.88,18.82 C293.08,18.82 292.473333,18.5866667 292.06,18.12 C291.646667,17.6533333 291.44,16.9533333 291.44,16.02 L291.44,16.02 L291.44,9.68 L289.84,9.68 L289.84,16.3 C289.84,17.54 290.163333,18.5066667 290.81,19.2 C291.456667,19.8933333 292.326667,20.24 293.42,20.24 Z M303.56,20 L303.56,12.84 C303.56,12.2 303.81,11.71 304.31,11.37 C304.81,11.03 305.413333,10.86 306.12,10.86 C306.92,10.86 307.526667,11.0933333 307.94,11.56 C308.353333,12.0266667 308.56,12.7266667 308.56,13.66 L308.56,13.66 L308.56,20 L310.16,20 L310.16,13.38 C310.16,12.14 309.836667,11.1733333 309.19,10.48 C308.543333,9.78666667 307.673333,9.44 306.58,9.44 C305.793333,9.44 305.17,9.61333333 304.71,9.96 C304.25,10.3066667 303.893333,10.7733333 303.64,11.36 L303.64,11.36 L303.56,11.36 L303.56,9.68 L301.96,9.68 L301.96,20 L303.56,20 Z M317.24,20.24 C317.96,20.24 318.586667,20.0766667 319.12,19.75 C319.653333,19.4233333 320.086667,18.9466667 320.42,18.32 L320.42,18.32 L320.5,18.32 L320.5,20 L322.1,20 L322.1,5.2 L320.5,5.2 L320.5,11.36 L320.42,11.36 C320.086667,10.7333333 319.653333,10.2566667 319.12,9.93 C318.586667,9.60333333 317.96,9.44 317.24,9.44 C315.973333,9.44 314.983333,9.91666667 314.27,10.87 C313.556667,11.8233333 313.2,13.1466667 313.2,14.84 C313.2,16.5333333 313.556667,17.8566667 314.27,18.81 C314.983333,19.7633333 315.973333,20.24 317.24,20.24 Z M317.86,18.82 C316.94,18.82 316.22,18.54 315.7,17.98 C315.18,17.42 314.92,16.6666667 314.92,15.72 L314.92,15.72 L314.92,13.96 C314.92,13.0133333 315.18,12.26 315.7,11.7 C316.22,11.14 316.94,10.86 317.86,10.86 C318.606667,10.86 319.233333,11.0466667 319.74,11.42 C320.246667,11.7933333 320.5,12.3133333 320.5,12.98 L320.5,12.98 L320.5,16.7 C320.5,17.3666667 320.246667,17.8866667 319.74,18.26 C319.233333,18.6333333 318.606667,18.82 317.86,18.82 Z M354.52,22.82 L356.82,17.28 L354.24,17.28 L353.18,22.82 L354.52,22.82 Z M359.32,22.82 L361.62,17.28 L359.04,17.28 L357.98,22.82 L359.32,22.82 Z M369.84,20 L369.84,7.5 L374.5,7.5 L374.5,6.04 L363.5,6.04 L363.5,7.5 L368.16,7.5 L368.16,20 L369.84,20 Z M378.56,20 L378.56,12.84 C378.56,12.2 378.81,11.71 379.31,11.37 C379.81,11.03 380.413333,10.86 381.12,10.86 C381.92,10.86 382.526667,11.0933333 382.94,11.56 C383.353333,12.0266667 383.56,12.7266667 383.56,13.66 L383.56,13.66 L383.56,20 L385.16,20 L385.16,13.38 C385.16,12.14 384.836667,11.1733333 384.19,10.48 C383.543333,9.78666667 382.673333,9.44 381.58,9.44 C380.793333,9.44 380.17,9.61333333 379.71,9.96 C379.25,10.3066667 378.893333,10.7733333 378.64,11.36 L378.64,11.36 L378.56,11.36 L378.56,5.2 L376.96,5.2 L376.96,20 L378.56,20 Z M393.18,20.24 C394.166667,20.24 395.023333,20.0233333 395.75,19.59 C396.476667,19.1566667 397,18.58 397.32,17.86 L397.32,17.86 L396.14,17.06 C395.86,17.6333333 395.466667,18.0766667 394.96,18.39 C394.453333,18.7033333 393.86,18.86 393.18,18.86 C392.22,18.86 391.453333,18.5666667 390.88,17.98 C390.306667,17.3933333 390.02,16.64 390.02,15.72 L390.02,15.72 L390.02,15.24 L397.66,15.24 L397.66,14.48 C397.66,13.5066667 397.47,12.64 397.09,11.88 C396.71,11.12 396.173333,10.5233333 395.48,10.09 C394.786667,9.65666667 393.986667,9.44 393.08,9.44 C392.146667,9.44 391.323333,9.66333333 390.61,10.11 C389.896667,10.5566667 389.34,11.19 388.94,12.01 C388.54,12.83 388.34,13.78 388.34,14.86 C388.34,15.94 388.536667,16.8866667 388.93,17.7 C389.323333,18.5133333 389.886667,19.14 390.62,19.58 C391.353333,20.02 392.206667,20.24 393.18,20.24 Z M395.94,14.04 L390.02,14.04 L390.02,13.9 C390.02,13.3133333 390.153333,12.78 390.42,12.3 C390.686667,11.82 391.053333,11.4433333 391.52,11.17 C391.986667,10.8966667 392.506667,10.76 393.08,10.76 C393.933333,10.76 394.623333,11.0433333 395.15,11.61 C395.676667,12.1766667 395.94,12.9133333 395.94,13.82 L395.94,13.82 L395.94,14.04 Z M411.12,20 L411.12,8.18 L411.26,8.18 L416.02,20 L418.4,20 L418.4,6.04 L416.88,6.04 L416.88,17.74 L416.74,17.74 L411.98,6.04 L409.6,6.04 L409.6,20 L411.12,20 Z M426.18,20.24 C427.166667,20.24 428.023333,20.0233333 428.75,19.59 C429.476667,19.1566667 430,18.58 430.32,17.86 L430.32,17.86 L429.14,17.06 C428.86,17.6333333 428.466667,18.0766667 427.96,18.39 C427.453333,18.7033333 426.86,18.86 426.18,18.86 C425.22,18.86 424.453333,18.5666667 423.88,17.98 C423.306667,17.3933333 423.02,16.64 423.02,15.72 L423.02,15.72 L423.02,15.24 L430.66,15.24 L430.66,14.48 C430.66,13.5066667 430.47,12.64 430.09,11.88 C429.71,11.12 429.173333,10.5233333 428.48,10.09 C427.786667,9.65666667 426.986667,9.44 426.08,9.44 C425.146667,9.44 424.323333,9.66333333 423.61,10.11 C422.896667,10.5566667 422.34,11.19 421.94,12.01 C421.54,12.83 421.34,13.78 421.34,14.86 C421.34,15.94 421.536667,16.8866667 421.93,17.7 C422.323333,18.5133333 422.886667,19.14 423.62,19.58 C424.353333,20.02 425.206667,20.24 426.18,20.24 Z M428.94,14.04 L423.02,14.04 L423.02,13.9 C423.02,13.3133333 423.153333,12.78 423.42,12.3 C423.686667,11.82 424.053333,11.4433333 424.52,11.17 C424.986667,10.8966667 425.506667,10.76 426.08,10.76 C426.933333,10.76 427.623333,11.0433333 428.15,11.61 C428.676667,12.1766667 428.94,12.9133333 428.94,13.82 L428.94,13.82 L428.94,14.04 Z M438.44,20 L439.94,15.2 L440.96,11.9 L441,11.9 L442.04,15.22 L443.54,20 L445.52,20 L448.46,9.68 L446.96,9.68 L445.9,13.64 L444.58,18.66 L444.54,18.66 L442.96,13.62 L441.72,9.68 L440.3,9.68 L439.08,13.62 L437.54,18.66 L437.5,18.66 L436.16,13.66 L435.1,9.68 L433.54,9.68 L436.5,20 L438.44,20 Z M462.12,20 L462.12,8.18 L462.26,8.18 L467.02,20 L469.4,20 L469.4,6.04 L467.88,6.04 L467.88,17.74 L467.74,17.74 L462.98,6.04 L460.6,6.04 L460.6,20 L462.12,20 Z M477,20.24 C477.96,20.24 478.79,20.02 479.49,19.58 C480.19,19.14 480.73,18.5133333 481.11,17.7 C481.49,16.8866667 481.68,15.9333333 481.68,14.84 C481.68,13.7466667 481.49,12.7933333 481.11,11.98 C480.73,11.1666667 480.19,10.54 479.49,10.1 C478.79,9.66 477.96,9.44 477,9.44 C476.04,9.44 475.21,9.66 474.51,10.1 C473.81,10.54 473.27,11.1666667 472.89,11.98 C472.51,12.7933333 472.32,13.7466667 472.32,14.84 C472.32,15.9333333 472.51,16.8866667 472.89,17.7 C473.27,18.5133333 473.81,19.14 474.51,19.58 C475.21,20.02 476.04,20.24 477,20.24 Z M477,18.86 C476.08,18.86 475.353333,18.5833333 474.82,18.03 C474.286667,17.4766667 474.02,16.66 474.02,15.58 L474.02,15.58 L474.02,14.1 C474.02,13.02 474.286667,12.2033333 474.82,11.65 C475.353333,11.0966667 476.08,10.82 477,10.82 C477.92,10.82 478.646667,11.0966667 479.18,11.65 C479.713333,12.2033333 479.98,13.02 479.98,14.1 L479.98,14.1 L479.98,15.58 C479.98,16.66 479.713333,17.4766667 479.18,18.03 C478.646667,18.5833333 477.92,18.86 477,18.86 Z M486.84,20 L486.84,14.18 C486.84,13.34 487.11,12.6466667 487.65,12.1 C488.19,11.5533333 488.946667,11.28 489.92,11.28 L489.92,11.28 L491.46,11.28 L491.46,9.68 L490.42,9.68 C488.606667,9.68 487.446667,10.5466667 486.94,12.28 L486.94,12.28 L486.84,12.28 L486.84,9.68 L485.24,9.68 L485.24,20 L486.84,20 Z M495.52,20 L495.52,12.84 C495.52,12.2133333 495.76,11.73 496.24,11.39 C496.72,11.05 497.3,10.88 497.98,10.88 C498.74,10.88 499.3,11.11 499.66,11.57 C500.02,12.03 500.2,12.7266667 500.2,13.66 L500.2,13.66 L500.2,20 L501.8,20 L501.8,12.84 C501.8,12.2133333 502.033333,11.73 502.5,11.39 C502.966667,11.05 503.54,10.88 504.22,10.88 C504.993333,10.88 505.563333,11.1133333 505.93,11.58 C506.296667,12.0466667 506.48,12.74 506.48,13.66 L506.48,13.66 L506.48,20 L508.08,20 L508.08,13.38 C508.08,12.14 507.783333,11.1733333 507.19,10.48 C506.596667,9.78666667 505.773333,9.44 504.72,9.44 C503.893333,9.44 503.216667,9.63666667 502.69,10.03 C502.163333,10.4233333 501.793333,10.9266667 501.58,11.54 L501.58,11.54 L501.54,11.54 C501.273333,10.8333333 500.86,10.3066667 500.3,9.96 C499.74,9.61333333 499.1,9.44 498.38,9.44 C497.646667,9.44 497.066667,9.61 496.64,9.95 C496.213333,10.29 495.866667,10.76 495.6,11.36 L495.6,11.36 L495.52,11.36 L495.52,9.68 L493.92,9.68 L493.92,20 L495.52,20 Z M514.86,20.24 C515.673333,20.24 516.336667,20.0733333 516.85,19.74 C517.363333,19.4066667 517.733333,18.9333333 517.96,18.32 L517.96,18.32 L518.06,18.32 C518.126667,18.84 518.303333,19.25 518.59,19.55 C518.876667,19.85 519.313333,20 519.9,20 L519.9,20 L521,20 L521,18.6 L520.28,18.6 C520.08,18.6 519.91,18.53 519.77,18.39 C519.63,18.25 519.56,18.08 519.56,17.88 L519.56,17.88 L519.56,12.92 C519.56,11.84 519.203333,10.99 518.49,10.37 C517.776667,9.75 516.813333,9.44 515.6,9.44 C514.613333,9.44 513.78,9.64 513.1,10.04 C512.42,10.44 511.94,10.9333333 511.66,11.52 L511.66,11.52 L512.74,12.32 C513.02,11.8266667 513.383333,11.45 513.83,11.19 C514.276667,10.93 514.833333,10.8 515.5,10.8 C516.286667,10.8 516.893333,10.9933333 517.32,11.38 C517.746667,11.7666667 517.96,12.3333333 517.96,13.08 L517.96,13.08 L517.96,14.1 L515.76,14.1 C512.8,14.1 511.32,15.1 511.32,17.1 C511.32,18.0733333 511.64,18.84 512.28,19.4 C512.92,19.96 513.78,20.24 514.86,20.24 Z M515.14,18.9 C514.473333,18.9 513.95,18.76 513.57,18.48 C513.19,18.2 513,17.8 513,17.28 L513,17.28 L513,16.86 C513,16.3533333 513.226667,15.9666667 513.68,15.7 C514.133333,15.4333333 514.826667,15.3 515.76,15.3 L515.76,15.3 L517.96,15.3 L517.96,17 C517.96,17.5333333 517.693333,17.9833333 517.16,18.35 C516.626667,18.7166667 515.953333,18.9 515.14,18.9 Z M527,20 L527,18.6 L525.98,18.6 C525.82,18.6 525.696667,18.5566667 525.61,18.47 C525.523333,18.3833333 525.48,18.26 525.48,18.1 L525.48,18.1 L525.48,5.2 L523.88,5.2 L523.88,18.34 C523.88,18.8333333 524.03,19.2333333 524.33,19.54 C524.63,19.8466667 525.046667,20 525.58,20 L525.58,20 L527,20 Z M532.2,10.74 L533.26,5.2 L531.92,5.2 L529.62,10.74 L532.2,10.74 Z M537,10.74 L538.06,5.2 L536.72,5.2 L534.42,10.74 L537,10.74 Z" id="GoogleSuchennachVucaund„TheNewNormal“" fill="#000000" fill-rule="nonzero"></path>
            <circle id="Oval" fill="#F44336" cx="218" cy="13" r="8"></circle>
            <circle id="Oval-Copy" fill="#2196F3" cx="340" cy="13" r="8"></circle>
        </g>
        <path d="M25.659612,287.833795 L25.659612,286.822715 L20.3121693,286.822715 L23.0634921,284.468144 C23.5432099,284.061865 23.9406232,283.674054 24.2557319,283.304709 C24.5708407,282.935365 24.8177543,282.542936 24.9964727,282.127424 C25.1751911,281.711911 25.2645503,281.268698 25.2645503,280.797784 C25.2645503,280.253001 25.1446208,279.768236 24.9047619,279.34349 C24.664903,278.918744 24.3145209,278.588643 23.8536155,278.353186 C23.3927102,278.117729 22.8424456,278 22.2028219,278 C21.3186361,278 20.6202234,278.214681 20.1075838,278.644044 C19.5949442,279.073407 19.2257496,279.615882 19,280.271468 L19,280.271468 L20.0582011,280.65928 C20.2275132,280.132964 20.4791299,279.726685 20.8130511,279.440443 C21.1469724,279.154201 21.600823,279.01108 22.1746032,279.01108 C22.776602,279.01108 23.2351558,279.17036 23.5502646,279.48892 C23.8653733,279.807479 24.0229277,280.257618 24.0229277,280.839335 L24.0229277,280.839335 L24.0229277,281.00554 C24.0229277,281.467221 23.8794827,281.921976 23.5925926,282.369806 C23.3057025,282.817636 22.898883,283.272392 22.372134,283.734072 L22.372134,283.734072 L19.0846561,286.642659 L19.0846561,287.833795 L25.659612,287.833795 Z M30.7813051,288 C31.9570841,288 32.8248089,287.572946 33.3844797,286.718837 C33.9441505,285.864728 34.2239859,284.625115 34.2239859,283 C34.2239859,281.374885 33.9441505,280.135272 33.3844797,279.281163 C32.8248089,278.427054 31.9570841,278 30.7813051,278 C29.6055262,278 28.7378013,278.427054 28.1781305,279.281163 C27.6184597,280.135272 27.3386243,281.374885 27.3386243,283 C27.3386243,284.625115 27.6184597,285.864728 28.1781305,286.718837 C28.7378013,287.572946 29.6055262,288 30.7813051,288 Z M30.7813051,286.98892 C30.0194004,286.98892 29.4597296,286.709603 29.1022928,286.15097 C28.744856,285.592336 28.5661376,284.805171 28.5661376,283.789474 L28.5661376,283.789474 L28.5661376,282.210526 C28.5661376,281.194829 28.744856,280.407664 29.1022928,279.84903 C29.4597296,279.290397 30.0194004,279.01108 30.7813051,279.01108 C31.5432099,279.01108 32.1028807,279.290397 32.4603175,279.84903 C32.8177543,280.407664 32.9964727,281.194829 32.9964727,282.210526 L32.9964727,282.210526 L32.9964727,283.789474 C32.9964727,284.805171 32.8177543,285.592336 32.4603175,286.15097 C32.1028807,286.709603 31.5432099,286.98892 30.7813051,286.98892 Z M30.7813051,283.817175 C31.3644915,283.817175 31.6560847,283.595568 31.6560847,283.152355 L31.6560847,283.152355 L31.6560847,282.847645 C31.6560847,282.404432 31.3644915,282.182825 30.7813051,282.182825 C30.1981188,282.182825 29.9065256,282.404432 29.9065256,282.847645 L29.9065256,282.847645 L29.9065256,283.152355 C29.9065256,283.595568 30.1981188,283.817175 30.7813051,283.817175 Z M42.8165785,287.833795 L42.8165785,286.822715 L40.2204586,286.822715 L40.2204586,278.166205 L38.372134,278.166205 L35.7619048,280.562327 L36.4532628,281.296399 L38.9365079,279.024931 L39.0352734,279.024931 L39.0352734,286.822715 L36.2134039,286.822715 L36.2134039,287.833795 L42.8165785,287.833795 Z M47.6419753,288 C48.3286302,288 48.9259259,287.866113 49.4338624,287.598338 C49.9417989,287.330563 50.329806,286.954294 50.5978836,286.469529 C50.8659612,285.984765 51,285.42844 51,284.800554 C51,284.191136 50.8730159,283.662512 50.6190476,283.214681 C50.3650794,282.766851 50.0123457,282.422899 49.5608466,282.182825 C49.1093474,281.942752 48.5967078,281.822715 48.0229277,281.822715 C47.5338036,281.822715 47.1340388,281.910434 46.8236332,282.085873 C46.5132275,282.261311 46.2263374,282.524469 45.962963,282.875346 L45.962963,282.875346 L45.8641975,282.875346 L46.1463845,279.177285 L50.5485009,279.177285 L50.5485009,278.166205 L45.1869489,278.166205 L44.8342152,283.484765 L45.8359788,283.623269 C46.0805409,283.355494 46.3368607,283.152355 46.6049383,283.01385 C46.8730159,282.875346 47.2186949,282.806094 47.6419753,282.806094 C48.319224,282.806094 48.8436214,282.98615 49.2151675,283.34626 C49.5867137,283.706371 49.7724868,284.204986 49.7724868,284.842105 L49.7724868,284.842105 L49.7724868,284.952909 C49.7724868,285.590028 49.5890653,286.088643 49.2222222,286.448753 C48.8553792,286.808864 48.3380364,286.98892 47.670194,286.98892 C47.1152263,286.98892 46.6731335,286.880425 46.3439153,286.663435 C46.0146972,286.446445 45.6995885,286.12096 45.3985891,285.686981 L45.3985891,285.686981 L44.5097002,286.351801 C44.8765432,286.850416 45.3021752,287.249769 45.7865961,287.549861 C46.271017,287.849954 46.8894768,288 47.6419753,288 Z" id="2015" fill="#000000" fill-rule="nonzero"></path>
        <path d="M728.627468,287.833795 L728.627468,286.822715 L723.305836,286.822715 L726.043879,284.468144 C726.521281,284.061865 726.916776,283.674054 727.230364,283.304709 C727.543952,282.935365 727.789674,282.542936 727.96753,282.127424 C728.145385,281.711911 728.234313,281.268698 728.234313,280.797784 C728.234313,280.253001 728.114963,279.768236 727.876262,279.34349 C727.63756,278.918744 727.288869,278.588643 726.830189,278.353186 C726.371508,278.117729 725.823899,278 725.187363,278 C724.307445,278 723.612403,278.214681 723.102238,278.644044 C722.592073,279.073407 722.22466,279.615882 722,280.271468 L722,280.271468 L723.053093,280.65928 C723.221588,280.132964 723.471991,279.726685 723.8043,279.440443 C724.13661,279.154201 724.58827,279.01108 725.15928,279.01108 C725.758374,279.01108 726.214714,279.17036 726.528302,279.48892 C726.84189,279.807479 726.998684,280.257618 726.998684,280.839335 L726.998684,280.839335 L726.998684,281.00554 C726.998684,281.467221 726.855931,281.921976 726.570426,282.369806 C726.28492,282.817636 725.880064,283.272392 725.355858,283.734072 L725.355858,283.734072 L722.084247,286.642659 L722.084247,287.833795 L728.627468,287.833795 Z M733.724441,288 C734.894544,288 735.758081,287.572946 736.31505,286.718837 C736.87202,285.864728 737.150505,284.625115 737.150505,283 C737.150505,281.374885 736.87202,280.135272 736.31505,279.281163 C735.758081,278.427054 734.894544,278 733.724441,278 C732.554337,278 731.6908,278.427054 731.133831,279.281163 C730.576861,280.135272 730.298376,281.374885 730.298376,283 C730.298376,284.625115 730.576861,285.864728 731.133831,286.718837 C731.6908,287.572946 732.554337,288 733.724441,288 Z M733.724441,286.98892 C732.966213,286.98892 732.409244,286.709603 732.053532,286.15097 C731.697821,285.592336 731.519965,284.805171 731.519965,283.789474 L731.519965,283.789474 L731.519965,282.210526 C731.519965,281.194829 731.697821,280.407664 732.053532,279.84903 C732.409244,279.290397 732.966213,279.01108 733.724441,279.01108 C734.482668,279.01108 735.039637,279.290397 735.395349,279.84903 C735.75106,280.407664 735.928916,281.194829 735.928916,282.210526 L735.928916,282.210526 L735.928916,283.789474 C735.928916,284.805171 735.75106,285.592336 735.395349,286.15097 C735.039637,286.709603 734.482668,286.98892 733.724441,286.98892 Z M733.724441,283.817175 C734.304812,283.817175 734.594998,283.595568 734.594998,283.152355 L734.594998,283.152355 L734.594998,282.847645 C734.594998,282.404432 734.304812,282.182825 733.724441,282.182825 C733.144069,282.182825 732.853883,282.404432 732.853883,282.847645 L732.853883,282.847645 L732.853883,283.152355 C732.853883,283.595568 733.144069,283.817175 733.724441,283.817175 Z M745.476964,287.833795 L745.476964,286.822715 L740.155331,286.822715 L742.893374,284.468144 C743.370777,284.061865 743.766272,283.674054 744.07986,283.304709 C744.393447,282.935365 744.639169,282.542936 744.817025,282.127424 C744.994881,281.711911 745.083809,281.268698 745.083809,280.797784 C745.083809,280.253001 744.964458,279.768236 744.725757,279.34349 C744.487056,278.918744 744.138365,278.588643 743.679684,278.353186 C743.221003,278.117729 742.673395,278 742.036858,278 C741.15694,278 740.461898,278.214681 739.951733,278.644044 C739.441568,279.073407 739.074155,279.615882 738.849495,280.271468 L738.849495,280.271468 L739.902589,280.65928 C740.071084,280.132964 740.321486,279.726685 740.653796,279.440443 C740.986105,279.154201 741.437765,279.01108 742.008776,279.01108 C742.607869,279.01108 743.064209,279.17036 743.377797,279.48892 C743.691385,279.807479 743.848179,280.257618 743.848179,280.839335 L743.848179,280.839335 L743.848179,281.00554 C743.848179,281.467221 743.705426,281.921976 743.419921,282.369806 C743.134416,282.817636 742.72956,283.272392 742.205353,283.734072 L742.205353,283.734072 L738.933743,286.642659 L738.933743,287.833795 L745.476964,287.833795 Z M750.573936,288 C751.74404,288 752.607576,287.572946 753.164546,286.718837 C753.721515,285.864728 754,284.625115 754,283 C754,281.374885 753.721515,280.135272 753.164546,279.281163 C752.607576,278.427054 751.74404,278 750.573936,278 C749.403832,278 748.540295,278.427054 747.983326,279.281163 C747.426357,280.135272 747.147872,281.374885 747.147872,283 C747.147872,284.625115 747.426357,285.864728 747.983326,286.718837 C748.540295,287.572946 749.403832,288 750.573936,288 Z M750.573936,286.98892 C749.815709,286.98892 749.258739,286.709603 748.903028,286.15097 C748.547316,285.592336 748.36946,284.805171 748.36946,283.789474 L748.36946,283.789474 L748.36946,282.210526 C748.36946,281.194829 748.547316,280.407664 748.903028,279.84903 C749.258739,279.290397 749.815709,279.01108 750.573936,279.01108 C751.332163,279.01108 751.889133,279.290397 752.244844,279.84903 C752.600556,280.407664 752.778412,281.194829 752.778412,282.210526 L752.778412,282.210526 L752.778412,283.789474 C752.778412,284.805171 752.600556,285.592336 752.244844,286.15097 C751.889133,286.709603 751.332163,286.98892 750.573936,286.98892 Z M750.573936,283.817175 C751.154307,283.817175 751.444493,283.595568 751.444493,283.152355 L751.444493,283.152355 L751.444493,282.847645 C751.444493,282.404432 751.154307,282.182825 750.573936,282.182825 C749.993564,282.182825 749.703379,282.404432 749.703379,282.847645 L749.703379,282.847645 L749.703379,283.152355 C749.703379,283.595568 749.993564,283.817175 750.573936,283.817175 Z" id="2020" fill="#000000" fill-rule="nonzero"></path>
    </g>
</svg>