<?xml version="1.0" encoding="UTF-8"?>
<svg width="800px" height="878px" viewBox="0 0 800 878" version="1.1" xmlns="http://www.w3.org/2000/svg" xmlns:xlink="http://www.w3.org/1999/xlink">
    <!-- Generator: Sketch 60.1 (88133) - https://sketch.com -->
    <title>Newsletter Copy 3</title>
    <desc>Created with Sketch.</desc>
    <g id="Newsletter-Copy-3" stroke="none" stroke-width="1" fill="none" fill-rule="evenodd">
        <rect id="Rectangle" stroke="#979797" x="55" y="36" width="699" height="814" rx="16"></rect>
        <rect id="Rectangle" stroke="#F5A623" fill-opacity="0.15" fill="#F5A623" x="70" y="51" width="671" height="157" rx="16"></rect>
        <rect id="Rectangle-Copy" stroke="#4A90E2" fill-opacity="0.1" fill="#4A90E2" x="70" y="232" width="671" height="188" rx="16"></rect>
        <rect id="Rectangle-Copy-2" stroke="#4A90E2" fill-opacity="0.1" fill="#4A90E2" x="70" y="432" width="671" height="188" rx="16"></rect>
        <rect id="Rectangle-Copy-3" stroke="#7ED321" fill-opacity="0.1" fill="#7ED321" x="70" y="645" width="671" height="188" rx="16"></rect>
        <path d="M345.98,91 L345.98,89.248 L337.676,89.248 L337.676,83.392 L345.692,83.392 L345.692,81.64 L337.676,81.64 L337.676,76 L345.98,76 L345.98,74.248 L335.66,74.248 L335.66,91 L345.98,91 Z M360.284,91 L360.284,89.392 L356.108,89.392 L356.108,75.856 L360.284,75.856 L360.284,74.248 L349.916,74.248 L349.916,75.856 L354.092,75.856 L354.092,89.392 L349.916,89.392 L349.916,91 L360.284,91 Z M366.044,91 L366.044,76.816 L366.212,76.816 L371.924,91 L374.78,91 L374.78,74.248 L372.956,74.248 L372.956,88.288 L372.788,88.288 L367.076,74.248 L364.22,74.248 L364.22,91 L366.044,91 Z M389.54,91 L389.54,89.248 L381.596,89.248 L381.596,74.248 L379.58,74.248 L379.58,91 L389.54,91 Z M403.58,91 L403.58,89.248 L395.276,89.248 L395.276,83.392 L403.292,83.392 L403.292,81.64 L395.276,81.64 L395.276,76 L403.58,76 L403.58,74.248 L393.26,74.248 L393.26,91 L403.58,91 Z M417.884,91 L417.884,89.392 L413.708,89.392 L413.708,75.856 L417.884,75.856 L417.884,74.248 L407.516,74.248 L407.516,75.856 L411.692,75.856 L411.692,89.392 L407.516,89.392 L407.516,91 L417.884,91 Z M428.108,91 L428.108,76 L433.7,76 L433.7,74.248 L420.5,74.248 L420.5,76 L426.092,76 L426.092,91 L428.108,91 Z M441.5,91.288 C446.06,91.288 446.78,88.792 446.78,83.824 L446.78,74.248 L444.764,74.248 L444.764,84.304 C444.764,87.544 444.644,89.536 441.5,89.536 C438.429116,89.536 438.243217,87.6355738 438.236231,84.5280123 L438.236,74.248 L436.22,74.248 L436.22,83.824 C436.22,88.792 436.94,91.288 441.5,91.288 Z M452.444,91 L452.444,76.816 L452.612,76.816 L458.324,91 L461.18,91 L461.18,74.248 L459.356,74.248 L459.356,88.288 L459.188,88.288 L453.476,74.248 L450.62,74.248 L450.62,91 L452.444,91 Z M469.844,91.288 C472.148,91.288 473.084,90.064 473.636,88.768 L473.756,88.768 L473.756,91 L475.628,91 L475.628,82.72 L470.228,82.72 L470.228,84.328 L473.756,84.328 L473.756,86.056 C473.756,88.12 472.46,89.584 470.3,89.584 C467.564,89.584 466.58,87.208 466.58,83.848 L466.58,81.256 C466.58,77.896 467.804,75.712 470.492,75.712 C472.508,75.712 473.3,76.936 473.9,78.424 L475.628,77.632 C474.908,75.808 473.564,73.96 470.42,73.96 C466.388,73.96 464.444,77.032 464.444,82.744 C464.444,88.216 466.22,91.288 469.844,91.288 Z M254.252,123 L256.772,107.976 L262.388,107.976 L262.676,106.248 L249.476,106.248 L249.188,107.976 L254.804,107.976 L252.284,123 L254.252,123 Z M268.148,123.288 C270.764,123.288 272.444,122.04 273.836,119.76 L272.516,118.944 C271.124,120.912 270.092,121.68 268.316,121.68 C265.724,121.68 265.22,120.072 265.22,118.344 L265.22056,118.255557 C265.221959,118.147102 265.226857,117.963429 265.244,117.792 C273.14,117.576 274.268,115.416 274.268,113.664 C274.268,111.504 272.492,110.328 270.068,110.328 C266.084,110.328 263.252,113.496 263.252,117.984 C263.252,121.536 265.028,123.288 268.148,123.288 Z M265.388,116.496 L265.412,116.256 C265.772,113.448 267.404,111.888 269.9,111.888 C271.7,111.888 272.348,112.728 272.348,113.736 C272.348,114.936 271.436,116.304 265.388,116.496 Z M281.108,123.288 C283.292,123.288 284.54,122.016 285.5,120.072 L285.572,120.072 L285.092,123 L286.964,123 L289.028,110.616 L287.156,110.616 L286.796,112.776 L286.724,112.776 C286.196,111.168 284.924,110.328 283.1,110.328 C278.732,110.328 277.244,115.176 277.244,118.488 C277.244,121.656 278.612,123.288 281.108,123.288 Z M281.756,121.632 C280.028,121.632 279.14,120.528 279.14,118.68 C279.14,118.368 279.164,118.032 279.236,117.6 L279.524,115.872 C279.908,113.568 281.276,111.984 283.652,111.984 C285.5,111.984 286.772,112.968 286.484,114.696 L286.028,117.432 C285.836,118.584 285.284,119.568 284.66,120.264 C283.796,121.224 282.788,121.632 281.756,121.632 Z M296.732,123.288 C300.044,123.288 302.276,121.704 302.276,119.136 C302.276,116.688 300.236,116.304 298.652,116.04 L296.9,115.752 C295.892,115.584 294.98,115.32 294.98,114.12 C294.98,112.776 296.108,111.912 298.244,111.912 C300.332,111.912 301.34,112.728 301.772,113.376 L303.092,112.224 C302.156,111.048 300.62,110.328 298.46,110.328 C295.532,110.328 293.156,111.648 293.156,114.264 C293.156,116.568 295.028,117.168 296.828,117.432 L298.628,117.696 C299.636,117.84 300.428,118.176 300.428,119.328 C300.428,120.816 299.084,121.704 296.9,121.704 C295.028,121.704 293.804,121.056 292.844,119.856 L291.452,120.96 C292.532,122.448 294.332,123.288 296.732,123.288 Z M311.348,123.288 C313.964,123.288 315.644,122.04 317.036,119.76 L315.716,118.944 C314.324,120.912 313.292,121.68 311.516,121.68 C308.924,121.68 308.42,120.072 308.42,118.344 L308.42056,118.255557 C308.421959,118.147102 308.426857,117.963429 308.444,117.792 C316.34,117.576 317.468,115.416 317.468,113.664 C317.468,111.504 315.692,110.328 313.268,110.328 C309.284,110.328 306.452,113.496 306.452,117.984 C306.452,121.536 308.228,123.288 311.348,123.288 Z M308.588,116.496 L308.612,116.256 C308.972,113.448 310.604,111.888 313.1,111.888 C314.9,111.888 315.548,112.728 315.548,113.736 C315.548,114.936 314.636,116.304 308.588,116.496 Z M325.244,123 L326.324,116.544 C326.564,115.104 327.428,114.096 327.74,113.736 C328.484,112.872 329.372,112.488 330.812,112.488 L332.924,112.488 L333.236,110.616 L331.364,110.616 C328.988,110.616 327.74,111.96 326.876,113.928 L326.756,113.928 L327.308,110.616 L321.956,110.616 L321.692,112.224 L325.172,112.224 L323.372,123 L325.244,123 Z M354.26,123.288 C357.908,123.288 360.764,120.288 360.764,115.56 C360.764,112.464 359.132,110.328 355.916,110.328 C352.292,110.328 349.436,113.328 349.436,118.056 C349.436,121.152 351.092,123.288 354.26,123.288 Z M354.356,121.656 C352.508,121.656 351.332,120.696 351.332,118.608 C351.332,118.32 351.356,117.96 351.452,117.384 L351.692,115.944 C352.1,113.496 353.516,111.96 355.844,111.96 C357.692,111.96 358.868,112.92 358.868,115.008 C358.868,115.296 358.844,115.656 358.748,116.232 L358.508,117.672 C358.1,120.12 356.684,121.656 354.356,121.656 Z M367.508,123.288 C369.692,123.288 370.94,122.016 371.9,120.072 L371.972,120.072 L371.492,123 L373.364,123 L376.34,105.24 L374.468,105.24 L373.196,112.776 L373.124,112.776 C372.596,111.168 371.324,110.328 369.5,110.328 C365.132,110.328 363.644,115.176 363.644,118.488 C363.644,121.656 365.012,123.288 367.508,123.288 Z M368.156,121.632 C366.428,121.632 365.54,120.528 365.54,118.68 C365.54,118.368 365.564,118.032 365.636,117.6 L365.924,115.872 C366.308,113.568 367.676,111.984 370.052,111.984 C371.9,111.984 373.172,112.968 372.884,114.696 L372.428,117.432 C372.236,118.584 371.684,119.568 371.06,120.264 C370.196,121.224 369.188,121.632 368.156,121.632 Z M383.348,123.288 C385.964,123.288 387.644,122.04 389.036,119.76 L387.716,118.944 C386.324,120.912 385.292,121.68 383.516,121.68 C380.924,121.68 380.42,120.072 380.42,118.344 L380.42056,118.255557 C380.421959,118.147102 380.426857,117.963429 380.444,117.792 C388.34,117.576 389.468,115.416 389.468,113.664 C389.468,111.504 387.692,110.328 385.268,110.328 C381.284,110.328 378.452,113.496 378.452,117.984 C378.452,121.536 380.228,123.288 383.348,123.288 Z M380.588,116.496 L380.612,116.256 C380.972,113.448 382.604,111.888 385.1,111.888 C386.9,111.888 387.548,112.728 387.548,113.736 C387.548,114.936 386.636,116.304 380.588,116.496 Z M397.244,123 L398.324,116.544 C398.564,115.104 399.428,114.096 399.74,113.736 C400.484,112.872 401.372,112.488 402.812,112.488 L404.924,112.488 L405.236,110.616 L403.364,110.616 C400.988,110.616 399.74,111.96 398.876,113.928 L398.756,113.928 L399.308,110.616 L393.956,110.616 L393.692,112.224 L397.172,112.224 L395.372,123 L397.244,123 Z M431.348,123 L431.636,121.272 L423.284,121.272 L424.268,115.368 L432.308,115.368 L432.596,113.64 L424.556,113.64 L425.516,107.976 L433.82,107.976 L434.108,106.248 L423.836,106.248 L421.028,123 L431.348,123 Z M442.46,107.856 C443.42,107.856 443.924,107.424 444.044,106.704 C444.092,106.416 444.14,106.2 444.14,106.008 C444.14,105.504 443.78,105.048 442.748,105.048 C441.788,105.048 441.284,105.48 441.164,106.2 C441.116,106.488 441.068,106.704 441.068,106.896 C441.068,107.4 441.428,107.856 442.46,107.856 Z M440.828,123.288 C441.908,123.288 442.796,122.712 445.052,120.624 L447.236,118.608 L446.108,117.552 L441.38,121.632 L440.828,121.416 L442.916,110.616 L436.532,110.616 L436.268,112.224 L440.732,112.224 L439.1,120.672 C439.052,120.96 438.98,121.32 438.98,121.632 C438.98,122.592 439.628,123.288 440.828,123.288 Z M451.988,123 L453.14,116.16 C453.38,114.744 454.292,113.64 454.556,113.328 C455.252,112.512 456.092,111.984 457.172,111.984 C458.564,111.984 459.236,112.896 459.236,114.36 C459.236,114.624 459.212,115.104 459.116,115.68 L457.892,123 L459.764,123 L461.012,115.512 C461.108,114.96 461.156,114.384 461.156,113.904 C461.156,111.648 459.86,110.328 457.796,110.328 C455.804,110.328 454.58,111.576 453.668,113.544 L453.572,113.544 L454.052,110.616 L452.18,110.616 L450.116,123 L451.988,123 Z M469.076,123.288 C470.036,123.288 470.9,122.88 473.228,120.768 L475.724,118.512 L474.644,117.456 L469.724,121.632 L469.124,121.44 L472.244,105.24 L465.932,105.24 L465.668,106.848 L470.036,106.848 L467.348,120.816 C467.3,121.032 467.276,121.368 467.276,121.584 C467.276,122.568 467.78,123.288 469.076,123.288 Z M484.148,123.288 C486.764,123.288 488.444,122.04 489.836,119.76 L488.516,118.944 C487.124,120.912 486.092,121.68 484.316,121.68 C481.724,121.68 481.22,120.072 481.22,118.344 L481.22056,118.255557 C481.221959,118.147102 481.226857,117.963429 481.244,117.792 C489.14,117.576 490.268,115.416 490.268,113.664 C490.268,111.504 488.492,110.328 486.068,110.328 C482.084,110.328 479.252,113.496 479.252,117.984 C479.252,121.536 481.028,123.288 484.148,123.288 Z M481.388,116.496 L481.412,116.256 C481.772,113.448 483.404,111.888 485.9,111.888 C487.7,111.888 488.348,112.728 488.348,113.736 C488.348,114.936 487.436,116.304 481.388,116.496 Z M500.06,107.856 C501.02,107.856 501.524,107.424 501.644,106.704 C501.692,106.416 501.74,106.2 501.74,106.008 C501.74,105.504 501.38,105.048 500.348,105.048 C499.388,105.048 498.884,105.48 498.764,106.2 C498.716,106.488 498.668,106.704 498.668,106.896 C498.668,107.4 499.028,107.856 500.06,107.856 Z M498.428,123.288 C499.508,123.288 500.396,122.712 502.652,120.624 L504.836,118.608 L503.708,117.552 L498.98,121.632 L498.428,121.416 L500.516,110.616 L494.132,110.616 L493.868,112.224 L498.332,112.224 L496.7,120.672 C496.652,120.96 496.58,121.32 496.58,121.632 C496.58,122.592 497.228,123.288 498.428,123.288 Z M512.036,123.288 C513.02,123.288 513.98,122.784 516.212,121.2 L518.924,119.28 L517.988,118.08 L512.588,121.68 L512.108,121.392 L513.644,112.224 L518.756,112.224 L519.02,110.616 L513.908,110.616 L514.652,106.248 L512.876,106.248 L512.324,109.488 C512.18,110.328 511.796,110.616 510.98,110.616 L508.46,110.616 L508.196,112.224 L511.772,112.224 L510.332,120.576 C510.284,120.84 510.26,121.296 510.26,121.512 C510.26,122.664 510.908,123.288 512.036,123.288 Z M526.052,123.288 C528.044,123.288 529.268,122.04 530.18,120.072 L530.276,120.072 L529.796,123 L531.668,123 L533.732,110.616 L531.86,110.616 L530.708,117.456 C530.468,118.872 529.556,119.976 529.292,120.288 C528.596,121.104 527.756,121.632 526.676,121.632 C525.284,121.632 524.612,120.72 524.612,119.256 C524.612,118.992 524.636,118.512 524.732,117.936 L525.956,110.616 L524.084,110.616 L522.836,118.104 C522.74,118.656 522.692,119.232 522.692,119.712 C522.692,121.968 523.988,123.288 526.052,123.288 Z M538.388,123 L539.54,116.16 C539.78,114.744 540.692,113.64 540.956,113.328 C541.652,112.512 542.492,111.984 543.572,111.984 C544.964,111.984 545.636,112.896 545.636,114.36 C545.636,114.624 545.612,115.104 545.516,115.68 L544.292,123 L546.164,123 L547.412,115.512 C547.508,114.96 547.556,114.384 547.556,113.904 C547.556,111.648 546.26,110.328 544.196,110.328 C542.204,110.328 540.98,111.576 540.068,113.544 L539.972,113.544 L540.452,110.616 L538.58,110.616 L536.516,123 L538.388,123 Z M554.588,128.088 C557.684,128.088 559.94,126.648 560.564,123 L562.628,110.616 L560.756,110.616 L560.396,112.776 L560.324,112.776 C559.796,111.168 558.524,110.328 556.7,110.328 C552.428,110.328 550.868,114.984 550.868,118.176 C550.868,121.2 552.212,122.88 554.756,122.88 C556.94,122.88 558.236,121.656 559.172,119.664 L559.268,119.664 L558.764,122.64 C558.308,125.376 556.964,126.432 554.708,126.432 C553.196,126.432 552.188,125.952 551.54,125.136 L550.244,126.384 C551.132,127.488 552.596,128.088 554.588,128.088 Z M555.404,121.224 C553.676,121.224 552.788,120.144 552.788,118.176 C552.788,117.84 552.836,117.552 552.908,117.12 L553.124,115.824 C553.508,113.52 554.924,111.984 557.252,111.984 C559.1,111.984 560.372,112.968 560.084,114.696 L559.7,117.048 C559.484,118.392 558.788,119.352 558.332,119.856 C557.444,120.84 556.436,121.224 555.404,121.224 Z M306.596,155 L308.804,150.224 L314.708,150.224 L315.308,155 L317.372,155 L315.044,138.248 L312.404,138.248 L304.484,155 L306.596,155 Z M314.516,148.472 L309.548,148.472 L313.268,140.264 L313.484,140.264 L314.516,148.472 Z M326.3,155.288 C330.668,155.288 332.156,150.44 332.156,147.128 C332.156,143.96 330.788,142.328 328.292,142.328 C326.108,142.328 324.86,143.6 323.9,145.544 L323.828,145.544 L325.22,137.24 L323.348,137.24 L320.372,155 L322.244,155 L322.604,152.84 L322.676,152.84 C323.204,154.448 324.476,155.288 326.3,155.288 Z M325.724,153.632 C323.876,153.632 322.628,152.648 322.916,150.92 L323.372,148.184 C323.564,147.032 324.116,146.048 324.74,145.352 C325.604,144.392 326.612,143.984 327.644,143.984 C329.372,143.984 330.26,145.088 330.26,146.936 C330.26,147.248 330.236,147.584 330.164,148.016 L329.876,149.744 C329.492,152.048 328.1,153.632 325.724,153.632 Z M339.932,155.288 C343.244,155.288 345.476,153.704 345.476,151.136 C345.476,148.688 343.436,148.304 341.852,148.04 L340.1,147.752 C339.092,147.584 338.18,147.32 338.18,146.12 C338.18,144.776 339.308,143.912 341.444,143.912 C343.532,143.912 344.54,144.728 344.972,145.376 L346.292,144.224 C345.356,143.048 343.82,142.328 341.66,142.328 C338.732,142.328 336.356,143.648 336.356,146.264 C336.356,148.568 338.228,149.168 340.028,149.432 L341.828,149.696 C342.836,149.84 343.628,150.176 343.628,151.328 C343.628,152.816 342.284,153.704 340.1,153.704 C338.228,153.704 337.004,153.056 336.044,151.856 L334.652,152.96 C335.732,154.448 337.532,155.288 339.932,155.288 Z M354.548,155.288 C357.164,155.288 358.844,154.04 360.236,151.76 L358.916,150.944 C357.524,152.912 356.492,153.68 354.716,153.68 C352.124,153.68 351.62,152.072 351.62,150.344 L351.62056,150.255557 C351.621959,150.147102 351.626857,149.963429 351.644,149.792 C359.54,149.576 360.668,147.416 360.668,145.664 C360.668,143.504 358.892,142.328 356.468,142.328 C352.484,142.328 349.652,145.496 349.652,149.984 C349.652,153.536 351.428,155.288 354.548,155.288 Z M351.788,148.496 L351.812,148.256 C352.172,145.448 353.804,143.888 356.3,143.888 C358.1,143.888 358.748,144.728 358.748,145.736 C358.748,146.936 357.836,148.304 351.788,148.496 Z M365.588,155 L366.74,148.16 C366.98,146.744 367.892,145.64 368.156,145.328 C368.852,144.512 369.692,143.984 370.772,143.984 C372.164,143.984 372.836,144.896 372.836,146.36 C372.836,146.624 372.812,147.104 372.716,147.68 L371.492,155 L373.364,155 L374.612,147.512 C374.708,146.96 374.756,146.384 374.756,145.904 C374.756,143.648 373.46,142.328 371.396,142.328 C369.404,142.328 368.18,143.576 367.268,145.544 L367.172,145.544 L367.652,142.616 L365.78,142.616 L363.716,155 L365.588,155 Z M381.908,155.288 C384.092,155.288 385.34,154.016 386.3,152.072 L386.372,152.072 L385.892,155 L387.764,155 L390.74,137.24 L388.868,137.24 L387.596,144.776 L387.524,144.776 C386.996,143.168 385.724,142.328 383.9,142.328 C379.532,142.328 378.044,147.176 378.044,150.488 C378.044,153.656 379.412,155.288 381.908,155.288 Z M382.556,153.632 C380.828,153.632 379.94,152.528 379.94,150.68 C379.94,150.368 379.964,150.032 380.036,149.6 L380.324,147.872 C380.708,145.568 382.076,143.984 384.452,143.984 C386.3,143.984 387.572,144.968 387.284,146.696 L386.828,149.432 C386.636,150.584 386.084,151.568 385.46,152.264 C384.596,153.224 383.588,153.632 382.556,153.632 Z M397.748,155.288 C400.364,155.288 402.044,154.04 403.436,151.76 L402.116,150.944 C400.724,152.912 399.692,153.68 397.916,153.68 C395.324,153.68 394.82,152.072 394.82,150.344 L394.82056,150.255557 C394.821959,150.147102 394.826857,149.963429 394.844,149.792 C402.74,149.576 403.868,147.416 403.868,145.664 C403.868,143.504 402.092,142.328 399.668,142.328 C395.684,142.328 392.852,145.496 392.852,149.984 C392.852,153.536 394.628,155.288 397.748,155.288 Z M394.988,148.496 L395.012,148.256 C395.372,145.448 397.004,143.888 399.5,143.888 C401.3,143.888 401.948,144.728 401.948,145.736 C401.948,146.936 401.036,148.304 394.988,148.496 Z M411.644,155 L412.724,148.544 C412.964,147.104 413.828,146.096 414.14,145.736 C414.884,144.872 415.772,144.488 417.212,144.488 L419.324,144.488 L419.636,142.616 L417.764,142.616 C415.388,142.616 414.14,143.96 413.276,145.928 L413.156,145.928 L413.708,142.616 L408.356,142.616 L408.092,144.224 L411.572,144.224 L409.772,155 L411.644,155 Z M444.596,158.312 C442.508,156.536 440.9,153.68 440.9,150.32 C440.9,149.744 440.948,149.12 441.044,148.544 L441.38,146.504 C442.052,142.472 444.956,138.944 448.172,136.76 L446.132,136.76 C442.628,139.088 439.244,144.272 439.244,149.816 C439.244,153.536 440.78,156.632 442.748,158.312 L444.596,158.312 Z M456.86,139.856 C457.82,139.856 458.324,139.424 458.444,138.704 C458.492,138.416 458.54,138.2 458.54,138.008 C458.54,137.504 458.18,137.048 457.148,137.048 C456.188,137.048 455.684,137.48 455.564,138.2 C455.516,138.488 455.468,138.704 455.468,138.896 C455.468,139.4 455.828,139.856 456.86,139.856 Z M455.228,155.288 C456.308,155.288 457.196,154.712 459.452,152.624 L461.636,150.608 L460.508,149.552 L455.78,153.632 L455.228,153.416 L457.316,142.616 L450.932,142.616 L450.668,144.224 L455.132,144.224 L453.5,152.672 C453.452,152.96 453.38,153.32 453.38,153.632 C453.38,154.592 454.028,155.288 455.228,155.288 Z M469.58,155.288 C472.172,155.288 473.732,153.944 475.292,151.424 L473.948,150.632 C471.98,153.344 470.924,153.656 469.82,153.656 C468.02,153.656 466.796,152.672 466.796,150.56 C466.796,150.248 466.82,149.984 466.916,149.408 L467.156,147.968 C467.588,145.376 468.956,143.96 471.068,143.96 C472.604,143.96 473.516,144.416 473.996,145.928 L475.604,145.304 C475.172,143.672 473.9,142.328 471.284,142.328 C467.756,142.328 464.9,145.328 464.9,150.056 C464.9,153.152 466.508,155.288 469.58,155.288 Z M480.788,155 L481.94,148.16 C482.18,146.744 483.092,145.64 483.356,145.328 C484.052,144.512 484.892,143.984 485.972,143.984 C487.364,143.984 488.036,144.896 488.036,146.36 C488.036,146.624 488.012,147.104 487.916,147.68 L486.692,155 L488.564,155 L489.812,147.512 C489.908,146.96 489.956,146.384 489.956,145.904 C489.956,143.648 488.66,142.328 486.596,142.328 C484.604,142.328 483.38,143.576 482.468,145.544 L482.372,145.544 L483.764,137.24 L481.892,137.24 L478.916,155 L480.788,155 Z M494.924,158.312 C498.428,155.984 501.812,150.8 501.812,145.256 C501.812,141.536 500.276,138.44 498.308,136.76 L496.46,136.76 C498.548,138.536 500.156,141.392 500.156,144.752 C500.156,145.328 500.108,145.952 500.012,146.528 L499.676,148.568 C499.004,152.6 496.1,156.128 492.884,158.312 L494.924,158.312 Z M343.796,187 L344.996,179.872 L349.22,179.872 C352.724,179.872 354.716,177.736 354.716,174.184 C354.716,171.856 353.42,170.248 350.612,170.248 L344.636,170.248 L341.828,187 L343.796,187 Z M349.412,178.144 L345.284,178.144 L346.316,171.976 L350.372,171.976 C351.836,171.976 352.7,172.648 352.7,173.968 C352.7,174.28 352.676,174.616 352.628,174.904 L352.484,175.768 C352.244,177.208 351.212,178.144 349.412,178.144 Z M361.268,187.216 C362.492,187.216 363.068,186.664 363.212,185.8 C363.26,185.512 363.308,185.224 363.308,185.032 C363.308,184.432 362.876,183.952 361.748,183.952 C360.524,183.952 359.948,184.504 359.804,185.368 C359.756,185.656 359.708,185.944 359.708,186.136 C359.708,186.736 360.14,187.216 361.268,187.216 Z M375.884,187.288 C379.796,187.288 382.268,185.08 382.268,181.912 C382.268,179.872 381.26,178.48 378.476,177.832 L376.724,177.424 C374.948,177.016 374.012,176.344 374.012,174.808 C374.012,172.864 375.5,171.64 377.924,171.64 C379.82,171.64 381.116,172.384 382.052,173.776 L383.492,172.72 C382.628,171.208 380.924,169.96 378.02,169.96 C374.444,169.96 371.996,171.856 371.996,174.952 C371.996,177.112 373.172,178.456 375.812,179.056 L377.612,179.464 C379.556,179.896 380.252,180.712 380.252,182.08 C380.252,184.216 378.596,185.584 375.98,185.584 C373.964,185.584 372.62,184.768 371.588,183.16 L370.1,184.336 C371.084,186.064 372.98,187.288 375.884,187.288 Z M390.068,187.216 C391.292,187.216 391.868,186.664 392.012,185.8 C392.06,185.512 392.108,185.224 392.108,185.032 C392.108,184.432 391.676,183.952 390.548,183.952 C389.324,183.952 388.748,184.504 388.604,185.368 C388.556,185.656 388.508,185.944 388.508,186.136 C388.508,186.736 388.94,187.216 390.068,187.216 Z M408.932,180.688 L409.268,178.72 L402.404,178.72 L402.068,180.688 L408.932,180.688 Z M424.484,187 L424.772,185.272 L416.828,185.272 L419.324,170.248 L417.38,170.248 L414.572,187 L424.484,187 Z M435.26,171.856 C436.22,171.856 436.724,171.424 436.844,170.704 C436.892,170.416 436.94,170.2 436.94,170.008 C436.94,169.504 436.58,169.048 435.548,169.048 C434.588,169.048 434.084,169.48 433.964,170.2 C433.916,170.488 433.868,170.704 433.868,170.896 C433.868,171.4 434.228,171.856 435.26,171.856 Z M433.628,187.288 C434.708,187.288 435.596,186.712 437.852,184.624 L440.036,182.608 L438.908,181.552 L434.18,185.632 L433.628,185.416 L435.716,174.616 L429.332,174.616 L429.068,176.224 L433.532,176.224 L431.9,184.672 C431.852,184.96 431.78,185.32 431.78,185.632 C431.78,186.592 432.428,187.288 433.628,187.288 Z M444.788,187 L445.94,180.16 C446.18,178.744 447.092,177.64 447.356,177.328 C448.052,176.512 448.892,175.984 449.972,175.984 C451.364,175.984 452.036,176.896 452.036,178.36 C452.036,178.624 452.012,179.104 451.916,179.68 L450.692,187 L452.564,187 L453.812,179.512 C453.908,178.96 453.956,178.384 453.956,177.904 C453.956,175.648 452.66,174.328 450.596,174.328 C448.604,174.328 447.38,175.576 446.468,177.544 L446.372,177.544 L446.852,174.616 L444.98,174.616 L442.916,187 L444.788,187 Z M464.996,187.288 C465.908,187.288 466.628,186.76 467.876,185.512 L469.58,183.808 L468.548,182.728 L465.356,185.656 L465.044,185.608 L463.34,181.888 C467.54,180.856 468.356,178.864 468.356,177.376 C468.356,175.528 467.084,174.328 465.116,174.328 C463.052,174.328 461.756,175.648 460.868,177.544 L460.772,177.544 L462.164,169.24 L460.292,169.24 L457.316,187 L459.188,187 L460.34,180.16 C460.508,179.128 461.012,178.216 461.708,177.352 C462.38,176.536 463.196,175.936 464.42,175.936 C465.716,175.936 466.436,176.608 466.436,177.736 C466.436,179.2 465.212,180.568 461.204,181.552 L463.148,185.776 C463.652,186.88 464.18,187.288 464.996,187.288 Z" id="EINLEITUNGTeaseroderEinleitungAbsender(ich)P.S.-Link" fill="#000000" fill-rule="nonzero"></path>
        <path d="M352.008,303 L352.008,288 L357.6,288 L357.6,286.248 L344.4,286.248 L344.4,288 L349.992,288 L349.992,303 L352.008,303 Z M362.136,303 L362.136,295.392 L368.664,295.392 L368.664,303 L370.68,303 L370.68,286.248 L368.664,286.248 L368.664,293.64 L362.136,293.64 L362.136,286.248 L360.12,286.248 L360.12,303 L362.136,303 Z M385.08,303 L385.08,301.248 L376.776,301.248 L376.776,295.392 L384.792,295.392 L384.792,293.64 L376.776,293.64 L376.776,288 L385.08,288 L385.08,286.248 L374.76,286.248 L374.76,303 L385.08,303 Z M391.848,303 L391.848,288.912 L392.448,288.912 L393.864,291.696 L397.848,298.992 L401.856,291.696 L403.272,288.888 L403.872,288.888 L403.872,303 L405.84,303 L405.84,286.248 L402.72,286.248 L397.896,295.272 L397.8,295.272 L393,286.248 L389.88,286.248 L389.88,303 L391.848,303 Z M411.432,303 L412.848,298.224 L418.728,298.224 L420.144,303 L422.28,303 L417.144,286.248 L414.48,286.248 L409.344,303 L411.432,303 Z M418.248,296.472 L413.328,296.472 L415.68,288.384 L415.896,288.384 L418.248,296.472 Z M444.6,303.288 C448.68,303.288 450.456,300.096 450.456,294.624 C450.456,289.152 448.68,285.96 444.6,285.96 C440.52,285.96 438.744,289.152 438.744,294.624 C438.744,300.096 440.52,303.288 444.6,303.288 Z M444.6,301.536 C441.912,301.536 440.832,299.352 440.832,295.992 L440.832,293.256 C440.832,289.896 441.912,287.712 444.6,287.712 C447.288,287.712 448.368,289.896 448.368,293.256 L448.368,295.992 C448.368,299.352 447.288,301.536 444.6,301.536 Z M444.6,296.04 C445.704,296.04 446.088,295.536 446.088,294.888 L446.088,294.36 C446.088,293.712 445.704,293.208 444.6,293.208 C443.496,293.208 443.112,293.712 443.112,294.36 L443.112,294.888 C443.112,295.536 443.496,296.04 444.6,296.04 Z M465.072,303 L465.072,301.248 L460.656,301.248 L460.656,286.248 L458.448,286.248 L452.976,289.344 L453.768,290.88 L458.64,288.072 L458.64,301.248 L453.84,301.248 L453.84,303 L465.072,303 Z M111.84,367 L115.704,358.312 L118.32,352.456 L118.44,352.456 L118.68,358.192 L119.112,367 L121.344,367 L128.856,350.248 L126.84,350.248 L123.24,358.624 L120.696,364.552 L120.6,364.552 L120.264,357.328 L119.904,350.248 L117.6,350.248 L114.576,357.016 L111.288,364.576 L111.192,364.576 L111.048,358.744 L110.832,350.248 L108.888,350.248 L109.584,367 L111.84,367 Z M133.008,367.288 C135.192,367.288 136.44,366.016 137.4,364.072 L137.472,364.072 L136.992,367 L138.864,367 L140.928,354.616 L139.056,354.616 L138.696,356.776 L138.624,356.776 C138.096,355.168 136.824,354.328 135,354.328 C130.632,354.328 129.144,359.176 129.144,362.488 C129.144,365.656 130.512,367.288 133.008,367.288 Z M133.656,365.632 C131.928,365.632 131.04,364.528 131.04,362.68 C131.04,362.368 131.064,362.032 131.136,361.6 L131.424,359.872 C131.808,357.568 133.176,355.984 135.552,355.984 C137.4,355.984 138.672,356.968 138.384,358.696 L137.928,361.432 C137.736,362.584 137.184,363.568 136.56,364.264 C135.696,365.224 134.688,365.632 133.656,365.632 Z M148.632,367.288 C151.944,367.288 154.176,365.704 154.176,363.136 C154.176,360.688 152.136,360.304 150.552,360.04 L148.8,359.752 C147.792,359.584 146.88,359.32 146.88,358.12 C146.88,356.776 148.008,355.912 150.144,355.912 C152.232,355.912 153.24,356.728 153.672,357.376 L154.992,356.224 C154.056,355.048 152.52,354.328 150.36,354.328 C147.432,354.328 145.056,355.648 145.056,358.264 C145.056,360.568 146.928,361.168 148.728,361.432 L150.528,361.696 C151.536,361.84 152.328,362.176 152.328,363.328 C152.328,364.816 150.984,365.704 148.8,365.704 C146.928,365.704 145.704,365.056 144.744,363.856 L143.352,364.96 C144.432,366.448 146.232,367.288 148.632,367.288 Z M175.704,372.088 C177.144,372.088 177.792,370.912 178.008,369.568 L180.24,356.224 L185.256,356.224 L185.52,354.616 L180.504,354.616 L181.128,350.848 L186.12,350.848 L186.384,349.24 L182.232,349.24 C180.384,349.24 179.328,350.416 179.064,352.048 L178.632,354.616 L174.216,354.616 L173.952,356.224 L178.368,356.224 L176.016,370.312 L175.584,370.408 L171.888,366.472 L170.616,367.624 L172.08,369.232 C174,371.32 174.696,372.088 175.704,372.088 Z M193.56,351.856 C194.52,351.856 195.024,351.424 195.144,350.704 C195.192,350.416 195.24,350.2 195.24,350.008 C195.24,349.504 194.88,349.048 193.848,349.048 C192.888,349.048 192.384,349.48 192.264,350.2 C192.216,350.488 192.168,350.704 192.168,350.896 C192.168,351.4 192.528,351.856 193.56,351.856 Z M191.928,367.288 C193.008,367.288 193.896,366.712 196.152,364.624 L198.336,362.608 L197.208,361.552 L192.48,365.632 L191.928,365.416 L194.016,354.616 L187.632,354.616 L187.368,356.224 L191.832,356.224 L190.2,364.672 C190.152,364.96 190.08,365.32 190.08,365.632 C190.08,366.592 190.728,367.288 191.928,367.288 Z M203.088,367 L204.24,360.16 C204.48,358.744 205.392,357.64 205.656,357.328 C206.352,356.512 207.192,355.984 208.272,355.984 C209.664,355.984 210.336,356.896 210.336,358.36 C210.336,358.624 210.312,359.104 210.216,359.68 L208.992,367 L210.864,367 L212.112,359.512 C212.208,358.96 212.256,358.384 212.256,357.904 C212.256,355.648 210.96,354.328 208.896,354.328 C206.904,354.328 205.68,355.576 204.768,357.544 L204.672,357.544 L205.152,354.616 L203.28,354.616 L201.216,367 L203.088,367 Z M219.408,367.288 C221.592,367.288 222.84,366.016 223.8,364.072 L223.872,364.072 L223.392,367 L225.264,367 L228.24,349.24 L226.368,349.24 L225.096,356.776 L225.024,356.776 C224.496,355.168 223.224,354.328 221.4,354.328 C217.032,354.328 215.544,359.176 215.544,362.488 C215.544,365.656 216.912,367.288 219.408,367.288 Z M220.056,365.632 C218.328,365.632 217.44,364.528 217.44,362.68 C217.44,362.368 217.464,362.032 217.536,361.6 L217.824,359.872 C218.208,357.568 219.576,355.984 221.952,355.984 C223.8,355.984 225.072,356.968 224.784,358.696 L224.328,361.432 C224.136,362.584 223.584,363.568 222.96,364.264 C222.096,365.224 221.088,365.632 220.056,365.632 Z M235.248,367.288 C237.864,367.288 239.544,366.04 240.936,363.76 L239.616,362.944 C238.224,364.912 237.192,365.68 235.416,365.68 C232.824,365.68 232.32,364.072 232.32,362.344 C232.32,362.296 232.32,362.032 232.344,361.792 C240.24,361.576 241.368,359.416 241.368,357.664 C241.368,355.504 239.592,354.328 237.168,354.328 C233.184,354.328 230.352,357.496 230.352,361.984 C230.352,365.536 232.128,367.288 235.248,367.288 Z M232.488,360.496 L232.512,360.256 C232.872,357.448 234.504,355.888 237,355.888 C238.8,355.888 239.448,356.728 239.448,357.736 C239.448,358.936 238.536,360.304 232.488,360.496 Z M265.56,351.856 C266.52,351.856 267.024,351.424 267.144,350.704 C267.192,350.416 267.24,350.2 267.24,350.008 C267.24,349.504 266.88,349.048 265.848,349.048 C264.888,349.048 264.384,349.48 264.264,350.2 C264.216,350.488 264.168,350.704 264.168,350.896 C264.168,351.4 264.528,351.856 265.56,351.856 Z M263.928,367.288 C265.008,367.288 265.896,366.712 268.152,364.624 L270.336,362.608 L269.208,361.552 L264.48,365.632 L263.928,365.416 L266.016,354.616 L259.632,354.616 L259.368,356.224 L263.832,356.224 L262.2,364.672 C262.152,364.96 262.08,365.32 262.08,365.632 C262.08,366.592 262.728,367.288 263.928,367.288 Z M278.28,367.288 C280.872,367.288 282.432,365.944 283.992,363.424 L282.648,362.632 C280.68,365.344 279.624,365.656 278.52,365.656 C276.72,365.656 275.496,364.672 275.496,362.56 C275.496,362.248 275.52,361.984 275.616,361.408 L275.856,359.968 C276.288,357.376 277.656,355.96 279.768,355.96 C281.304,355.96 282.216,356.416 282.696,357.928 L284.304,357.304 C283.872,355.672 282.6,354.328 279.984,354.328 C276.456,354.328 273.6,357.328 273.6,362.056 C273.6,365.152 275.208,367.288 278.28,367.288 Z M289.488,367 L290.64,360.16 C290.88,358.744 291.792,357.64 292.056,357.328 C292.752,356.512 293.592,355.984 294.672,355.984 C296.064,355.984 296.736,356.896 296.736,358.36 C296.736,358.624 296.712,359.104 296.616,359.68 L295.392,367 L297.264,367 L298.512,359.512 C298.608,358.96 298.656,358.384 298.656,357.904 C298.656,355.648 297.36,354.328 295.296,354.328 C293.304,354.328 292.08,355.576 291.168,357.544 L291.072,357.544 L292.464,349.24 L290.592,349.24 L287.616,367 L289.488,367 Z M320.088,372.088 C323.184,372.088 325.44,370.648 326.064,367 L328.128,354.616 L326.256,354.616 L325.896,356.776 L325.824,356.776 C325.296,355.168 324.024,354.328 322.2,354.328 C317.928,354.328 316.368,358.984 316.368,362.176 C316.368,365.2 317.712,366.88 320.256,366.88 C322.44,366.88 323.736,365.656 324.672,363.664 L324.768,363.664 L324.264,366.64 C323.808,369.376 322.464,370.432 320.208,370.432 C318.696,370.432 317.688,369.952 317.04,369.136 L315.744,370.384 C316.632,371.488 318.096,372.088 320.088,372.088 Z M320.904,365.224 C319.176,365.224 318.288,364.144 318.288,362.176 C318.288,361.84 318.336,361.552 318.408,361.12 L318.624,359.824 C319.008,357.52 320.424,355.984 322.752,355.984 C324.6,355.984 325.872,356.968 325.584,358.696 L325.2,361.048 C324.984,362.392 324.288,363.352 323.832,363.856 C322.944,364.84 321.936,365.224 320.904,365.224 Z M336.048,367.288 C338.664,367.288 340.344,366.04 341.736,363.76 L340.416,362.944 C339.024,364.912 337.992,365.68 336.216,365.68 C333.624,365.68 333.12,364.072 333.12,362.344 C333.12,362.296 333.12,362.032 333.144,361.792 C341.04,361.576 342.168,359.416 342.168,357.664 C342.168,355.504 340.392,354.328 337.968,354.328 C333.984,354.328 331.152,357.496 331.152,361.984 C331.152,365.536 332.928,367.288 336.048,367.288 Z M333.288,360.496 L333.312,360.256 C333.672,357.448 335.304,355.888 337.8,355.888 C339.6,355.888 340.248,356.728 340.248,357.736 C340.248,358.936 339.336,360.304 333.288,360.496 Z M349.944,367 L351.024,360.544 C351.264,359.104 352.128,358.096 352.44,357.736 C353.184,356.872 354.072,356.488 355.512,356.488 L357.624,356.488 L357.936,354.616 L356.064,354.616 C353.688,354.616 352.44,355.96 351.576,357.928 L351.456,357.928 L352.008,354.616 L346.656,354.616 L346.392,356.224 L349.872,356.224 L348.072,367 L349.944,367 Z M363.408,367.288 C365.592,367.288 366.84,366.016 367.8,364.072 L367.872,364.072 L367.392,367 L369.264,367 L371.328,354.616 L369.456,354.616 L369.096,356.776 L369.024,356.776 C368.496,355.168 367.224,354.328 365.4,354.328 C361.032,354.328 359.544,359.176 359.544,362.488 C359.544,365.656 360.912,367.288 363.408,367.288 Z M364.056,365.632 C362.328,365.632 361.44,364.528 361.44,362.68 C361.44,362.368 361.464,362.032 361.536,361.6 L361.824,359.872 C362.208,357.568 363.576,355.984 365.952,355.984 C367.8,355.984 369.072,356.968 368.784,358.696 L368.328,361.432 C368.136,362.584 367.584,363.568 366.96,364.264 C366.096,365.224 365.088,365.632 364.056,365.632 Z M377.808,367.288 C379.992,367.288 381.24,366.016 382.2,364.072 L382.272,364.072 L381.792,367 L383.664,367 L386.64,349.24 L384.768,349.24 L383.496,356.776 L383.424,356.776 C382.896,355.168 381.624,354.328 379.8,354.328 C375.432,354.328 373.944,359.176 373.944,362.488 C373.944,365.656 375.312,367.288 377.808,367.288 Z M378.456,365.632 C376.728,365.632 375.84,364.528 375.84,362.68 C375.84,362.368 375.864,362.032 375.936,361.6 L376.224,359.872 C376.608,357.568 377.976,355.984 380.352,355.984 C382.2,355.984 383.472,356.968 383.184,358.696 L382.728,361.432 C382.536,362.584 381.984,363.568 381.36,364.264 C380.496,365.224 379.488,365.632 378.456,365.632 Z M393.648,367.288 C396.264,367.288 397.944,366.04 399.336,363.76 L398.016,362.944 C396.624,364.912 395.592,365.68 393.816,365.68 C391.224,365.68 390.72,364.072 390.72,362.344 C390.72,362.296 390.72,362.032 390.744,361.792 C398.64,361.576 399.768,359.416 399.768,357.664 C399.768,355.504 397.992,354.328 395.568,354.328 C391.584,354.328 388.752,357.496 388.752,361.984 C388.752,365.536 390.528,367.288 393.648,367.288 Z M390.888,360.496 L390.912,360.256 C391.272,357.448 392.904,355.888 395.4,355.888 C397.2,355.888 397.848,356.728 397.848,357.736 C397.848,358.936 396.936,360.304 390.888,360.496 Z M422.232,367.288 C425.544,367.288 427.776,365.704 427.776,363.136 C427.776,360.688 425.736,360.304 424.152,360.04 L422.4,359.752 C421.392,359.584 420.48,359.32 420.48,358.12 C420.48,356.776 421.608,355.912 423.744,355.912 C425.832,355.912 426.84,356.728 427.272,357.376 L428.592,356.224 C427.656,355.048 426.12,354.328 423.96,354.328 C421.032,354.328 418.656,355.648 418.656,358.264 C418.656,360.568 420.528,361.168 422.328,361.432 L424.128,361.696 C425.136,361.84 425.928,362.176 425.928,363.328 C425.928,364.816 424.584,365.704 422.4,365.704 C420.528,365.704 419.304,365.056 418.344,363.856 L416.952,364.96 C418.032,366.448 419.832,367.288 422.232,367.288 Z M432.528,371.8 L433.704,364.84 L433.776,364.84 C434.304,366.448 435.576,367.288 437.4,367.288 C441.768,367.288 443.256,362.44 443.256,359.128 C443.256,355.96 441.888,354.328 439.392,354.328 C437.208,354.328 435.96,355.6 435,357.544 L434.928,357.544 L435.408,354.616 L433.536,354.616 L430.656,371.8 L432.528,371.8 Z M436.848,365.632 C435,365.632 433.728,364.648 434.016,362.92 L434.472,360.184 C434.664,359.032 435.216,358.048 435.84,357.352 C436.704,356.392 437.712,355.984 438.744,355.984 C440.472,355.984 441.36,357.088 441.36,358.936 C441.36,359.248 441.336,359.584 441.264,360.016 L440.976,361.744 C440.592,364.048 439.224,365.632 436.848,365.632 Z M449.808,367.288 C451.992,367.288 453.24,366.016 454.2,364.072 L454.272,364.072 L453.792,367 L455.664,367 L457.728,354.616 L455.856,354.616 L455.496,356.776 L455.424,356.776 C454.896,355.168 453.624,354.328 451.8,354.328 C447.432,354.328 445.944,359.176 445.944,362.488 C445.944,365.656 447.312,367.288 449.808,367.288 Z M450.456,365.632 C448.728,365.632 447.84,364.528 447.84,362.68 C447.84,362.368 447.864,362.032 447.936,361.6 L448.224,359.872 C448.608,357.568 449.976,355.984 452.352,355.984 C454.2,355.984 455.472,356.968 455.184,358.696 L454.728,361.432 C454.536,362.584 453.984,363.568 453.36,364.264 C452.496,365.224 451.488,365.632 450.456,365.632 Z M462.288,367 L463.44,360.16 C463.68,358.744 464.592,357.64 464.856,357.328 C465.552,356.512 466.392,355.984 467.472,355.984 C468.864,355.984 469.536,356.896 469.536,358.36 C469.536,358.624 469.512,359.104 469.416,359.68 L468.192,367 L470.064,367 L471.312,359.512 C471.408,358.96 471.456,358.384 471.456,357.904 C471.456,355.648 470.16,354.328 468.096,354.328 C466.104,354.328 464.88,355.576 463.968,357.544 L463.872,357.544 L464.352,354.616 L462.48,354.616 L460.416,367 L462.288,367 Z M480.048,367.288 C482.664,367.288 484.344,366.04 485.736,363.76 L484.416,362.944 C483.024,364.912 481.992,365.68 480.216,365.68 C477.624,365.68 477.12,364.072 477.12,362.344 C477.12,362.296 477.12,362.032 477.144,361.792 C485.04,361.576 486.168,359.416 486.168,357.664 C486.168,355.504 484.392,354.328 481.968,354.328 C477.984,354.328 475.152,357.496 475.152,361.984 C475.152,365.536 476.928,367.288 480.048,367.288 Z M477.288,360.496 L477.312,360.256 C477.672,357.448 479.304,355.888 481.8,355.888 C483.6,355.888 484.248,356.728 484.248,357.736 C484.248,358.936 483.336,360.304 477.288,360.496 Z M491.088,367 L492.24,360.16 C492.48,358.744 493.392,357.64 493.656,357.328 C494.352,356.512 495.192,355.984 496.272,355.984 C497.664,355.984 498.336,356.896 498.336,358.36 C498.336,358.624 498.312,359.104 498.216,359.68 L496.992,367 L498.864,367 L500.112,359.512 C500.208,358.96 500.256,358.384 500.256,357.904 C500.256,355.648 498.96,354.328 496.896,354.328 C494.904,354.328 493.68,355.576 492.768,357.544 L492.672,357.544 L493.152,354.616 L491.28,354.616 L489.216,367 L491.088,367 Z M505.488,367 L506.64,360.16 C506.88,358.744 507.792,357.64 508.056,357.328 C508.752,356.512 509.592,355.984 510.672,355.984 C512.064,355.984 512.736,356.896 512.736,358.36 C512.736,358.624 512.712,359.104 512.616,359.68 L511.392,367 L513.264,367 L514.512,359.512 C514.608,358.96 514.656,358.384 514.656,357.904 C514.656,355.648 513.36,354.328 511.296,354.328 C509.304,354.328 508.08,355.576 507.168,357.544 L507.072,357.544 L507.552,354.616 L505.68,354.616 L503.616,367 L505.488,367 Z M521.808,367.288 C523.992,367.288 525.24,366.016 526.2,364.072 L526.272,364.072 L525.792,367 L527.664,367 L530.64,349.24 L528.768,349.24 L527.496,356.776 L527.424,356.776 C526.896,355.168 525.624,354.328 523.8,354.328 C519.432,354.328 517.944,359.176 517.944,362.488 C517.944,365.656 519.312,367.288 521.808,367.288 Z M522.456,365.632 C520.728,365.632 519.84,364.528 519.84,362.68 C519.84,362.368 519.864,362.032 519.936,361.6 L520.224,359.872 C520.608,357.568 521.976,355.984 524.352,355.984 C526.2,355.984 527.472,356.968 527.184,358.696 L526.728,361.432 C526.536,362.584 525.984,363.568 525.36,364.264 C524.496,365.224 523.488,365.632 522.456,365.632 Z M550.752,367.288 C552.744,367.288 553.968,366.04 554.88,364.072 L554.976,364.072 L554.496,367 L556.368,367 L558.432,354.616 L556.56,354.616 L555.408,361.456 C555.168,362.872 554.256,363.976 553.992,364.288 C553.296,365.104 552.456,365.632 551.376,365.632 C549.984,365.632 549.312,364.72 549.312,363.256 C549.312,362.992 549.336,362.512 549.432,361.936 L550.656,354.616 L548.784,354.616 L547.536,362.104 C547.44,362.656 547.392,363.232 547.392,363.712 C547.392,365.968 548.688,367.288 550.752,367.288 Z M563.088,367 L564.24,360.16 C564.48,358.744 565.392,357.64 565.656,357.328 C566.352,356.512 567.192,355.984 568.272,355.984 C569.664,355.984 570.336,356.896 570.336,358.36 C570.336,358.624 570.312,359.104 570.216,359.68 L568.992,367 L570.864,367 L572.112,359.512 C572.208,358.96 572.256,358.384 572.256,357.904 C572.256,355.648 570.96,354.328 568.896,354.328 C566.904,354.328 565.68,355.576 564.768,357.544 L564.672,357.544 L565.152,354.616 L563.28,354.616 L561.216,367 L563.088,367 Z M579.408,367.288 C581.592,367.288 582.84,366.016 583.8,364.072 L583.872,364.072 L583.392,367 L585.264,367 L588.24,349.24 L586.368,349.24 L585.096,356.776 L585.024,356.776 C584.496,355.168 583.224,354.328 581.4,354.328 C577.032,354.328 575.544,359.176 575.544,362.488 C575.544,365.656 576.912,367.288 579.408,367.288 Z M580.056,365.632 C578.328,365.632 577.44,364.528 577.44,362.68 C577.44,362.368 577.464,362.032 577.536,361.6 L577.824,359.872 C578.208,357.568 579.576,355.984 581.952,355.984 C583.8,355.984 585.072,356.968 584.784,358.696 L584.328,361.432 C584.136,362.584 583.584,363.568 582.96,364.264 C582.096,365.224 581.088,365.632 580.056,365.632 Z M608.976,367 L614.064,357.136 L614.184,357.136 L615.432,367 L617.664,367 L623.784,354.616 L621.984,354.616 L616.872,365.128 L616.752,365.128 L615.456,354.616 L613.656,354.616 L608.208,365.224 L608.088,365.224 L607.728,354.616 L605.952,354.616 L606.624,367 L608.976,367 Z M629.808,367.288 C631.992,367.288 633.24,366.016 634.2,364.072 L634.272,364.072 L633.792,367 L635.664,367 L637.728,354.616 L635.856,354.616 L635.496,356.776 L635.424,356.776 C634.896,355.168 633.624,354.328 631.8,354.328 C627.432,354.328 625.944,359.176 625.944,362.488 C625.944,365.656 627.312,367.288 629.808,367.288 Z M630.456,365.632 C628.728,365.632 627.84,364.528 627.84,362.68 C627.84,362.368 627.864,362.032 627.936,361.6 L628.224,359.872 C628.608,357.568 629.976,355.984 632.352,355.984 C634.2,355.984 635.472,356.968 635.184,358.696 L634.728,361.432 C634.536,362.584 633.984,363.568 633.36,364.264 C632.496,365.224 631.488,365.632 630.456,365.632 Z M645.144,367 L646.224,360.544 C646.464,359.104 647.328,358.096 647.64,357.736 C648.384,356.872 649.272,356.488 650.712,356.488 L652.824,356.488 L653.136,354.616 L651.264,354.616 C648.888,354.616 647.64,355.96 646.776,357.928 L646.656,357.928 L647.208,354.616 L641.856,354.616 L641.592,356.224 L645.072,356.224 L643.272,367 L645.144,367 Z M658.752,367.288 C660.744,367.288 661.968,366.04 662.88,364.072 L662.976,364.072 L662.496,367 L664.368,367 L666.432,354.616 L664.56,354.616 L663.408,361.456 C663.168,362.872 662.256,363.976 661.992,364.288 C661.296,365.104 660.456,365.632 659.376,365.632 C657.984,365.632 657.312,364.72 657.312,363.256 C657.312,362.992 657.336,362.512 657.432,361.936 L658.656,354.616 L656.784,354.616 L655.536,362.104 C655.44,362.656 655.392,363.232 655.392,363.712 C655.392,365.968 656.688,367.288 658.752,367.288 Z M671.136,367 L672.528,360.088 C672.72,359.128 673.32,357.856 674.208,356.968 C674.784,356.392 675.504,356.008 676.344,356.008 C677.52,356.008 678.072,356.704 678.072,357.976 C678.072,358.384 678.024,358.888 677.928,359.368 L676.392,367 L678.24,367 L679.632,360.088 C679.824,359.08 680.376,357.784 681.168,356.992 C681.84,356.32 682.488,356.008 683.256,356.008 C684.576,356.008 685.152,356.704 685.152,358.024 C685.152,358.408 685.104,358.864 685.008,359.344 L683.856,365.08 C683.808,365.32 683.784,365.464 683.784,365.632 C683.784,366.568 684.408,367 685.368,367 L687.096,367 L687.408,365.368 L685.656,365.368 L686.856,359.344 C686.976,358.744 687.024,358.216 687.024,357.736 C687.024,355.576 685.968,354.328 683.904,354.328 C682.08,354.328 680.88,355.216 680.04,357.064 L679.896,357.064 C679.704,355.36 678.744,354.328 677.016,354.328 C675.216,354.328 674.112,355.216 673.248,357.064 L673.128,357.064 L673.632,354.616 L671.784,354.616 L669.288,367 L671.136,367 Z M696.84,361.84 L697.248,359.44 C700.296,359.008 702.72,357.208 702.72,353.968 C702.72,351.544 700.992,349.96 698.112,349.96 C694.992,349.96 693.24,351.784 692.472,353.8 L694.176,354.52 C694.8,352.864 695.904,351.664 697.944,351.664 C699.6,351.664 700.68,352.552 700.68,353.944 L700.67925,354.0325 C700.677,354.1675 700.668,354.424 700.632,354.64 C700.272,356.8 699,357.64 695.616,358.072 L694.992,361.84 L696.84,361.84 Z M695.136,367.216 C696.36,367.216 696.936,366.664 697.08,365.8 C697.128,365.512 697.176,365.224 697.176,365.032 C697.176,364.432 696.744,363.952 695.616,363.952 C694.392,363.952 693.816,364.504 693.672,365.368 C693.624,365.656 693.576,365.944 693.576,366.136 C693.576,366.736 694.008,367.216 695.136,367.216 Z" id="THEMA01Wasfindeichgeradespanenndundwarum?" fill="#000000" fill-rule="nonzero"></path>
        <path d="M352.008,503 L352.008,488 L357.6,488 L357.6,486.248 L344.4,486.248 L344.4,488 L349.992,488 L349.992,503 L352.008,503 Z M362.136,503 L362.136,495.392 L368.664,495.392 L368.664,503 L370.68,503 L370.68,486.248 L368.664,486.248 L368.664,493.64 L362.136,493.64 L362.136,486.248 L360.12,486.248 L360.12,503 L362.136,503 Z M385.08,503 L385.08,501.248 L376.776,501.248 L376.776,495.392 L384.792,495.392 L384.792,493.64 L376.776,493.64 L376.776,488 L385.08,488 L385.08,486.248 L374.76,486.248 L374.76,503 L385.08,503 Z M391.848,503 L391.848,488.912 L392.448,488.912 L393.864,491.696 L397.848,498.992 L401.856,491.696 L403.272,488.888 L403.872,488.888 L403.872,503 L405.84,503 L405.84,486.248 L402.72,486.248 L397.896,495.272 L397.8,495.272 L393,486.248 L389.88,486.248 L389.88,503 L391.848,503 Z M411.432,503 L412.848,498.224 L418.728,498.224 L420.144,503 L422.28,503 L417.144,486.248 L414.48,486.248 L409.344,503 L411.432,503 Z M418.248,496.472 L413.328,496.472 L415.68,488.384 L415.896,488.384 L418.248,496.472 Z M444.6,503.288 C448.68,503.288 450.456,500.096 450.456,494.624 C450.456,489.152 448.68,485.96 444.6,485.96 C440.52,485.96 438.744,489.152 438.744,494.624 C438.744,500.096 440.52,503.288 444.6,503.288 Z M444.6,501.536 C441.912,501.536 440.832,499.352 440.832,495.992 L440.832,493.256 C440.832,489.896 441.912,487.712 444.6,487.712 C447.288,487.712 448.368,489.896 448.368,493.256 L448.368,495.992 C448.368,499.352 447.288,501.536 444.6,501.536 Z M444.6,496.04 C445.704,496.04 446.088,495.536 446.088,494.888 L446.088,494.36 C446.088,493.712 445.704,493.208 444.6,493.208 C443.496,493.208 443.112,493.712 443.112,494.36 L443.112,494.888 C443.112,495.536 443.496,496.04 444.6,496.04 Z M464.688,503 L464.688,501.248 L455.592,501.248 L460.272,497.168 C462.504,495.224 464.016,493.352 464.016,490.808 C464.016,487.976 462.144,485.96 458.808,485.96 C455.52,485.96 454.008,487.928 453.36,489.896 L455.16,490.568 C455.688,488.84 456.72,487.712 458.76,487.712 C460.824,487.712 461.904,488.864 461.904,490.88 L461.904,491.168 C461.904,492.872 460.728,494.432 459.096,495.896 L453.504,500.936 L453.504,503 L464.688,503 Z M111.84,567 L115.704,558.312 L118.32,552.456 L118.44,552.456 L118.68,558.192 L119.112,567 L121.344,567 L128.856,550.248 L126.84,550.248 L123.24,558.624 L120.696,564.552 L120.6,564.552 L120.264,557.328 L119.904,550.248 L117.6,550.248 L114.576,557.016 L111.288,564.576 L111.192,564.576 L111.048,558.744 L110.832,550.248 L108.888,550.248 L109.584,567 L111.84,567 Z M133.008,567.288 C135.192,567.288 136.44,566.016 137.4,564.072 L137.472,564.072 L136.992,567 L138.864,567 L140.928,554.616 L139.056,554.616 L138.696,556.776 L138.624,556.776 C138.096,555.168 136.824,554.328 135,554.328 C130.632,554.328 129.144,559.176 129.144,562.488 C129.144,565.656 130.512,567.288 133.008,567.288 Z M133.656,565.632 C131.928,565.632 131.04,564.528 131.04,562.68 C131.04,562.368 131.064,562.032 131.136,561.6 L131.424,559.872 C131.808,557.568 133.176,555.984 135.552,555.984 C137.4,555.984 138.672,556.968 138.384,558.696 L137.928,561.432 C137.736,562.584 137.184,563.568 136.56,564.264 C135.696,565.224 134.688,565.632 133.656,565.632 Z M148.632,567.288 C151.944,567.288 154.176,565.704 154.176,563.136 C154.176,560.688 152.136,560.304 150.552,560.04 L148.8,559.752 C147.792,559.584 146.88,559.32 146.88,558.12 C146.88,556.776 148.008,555.912 150.144,555.912 C152.232,555.912 153.24,556.728 153.672,557.376 L154.992,556.224 C154.056,555.048 152.52,554.328 150.36,554.328 C147.432,554.328 145.056,555.648 145.056,558.264 C145.056,560.568 146.928,561.168 148.728,561.432 L150.528,561.696 C151.536,561.84 152.328,562.176 152.328,563.328 C152.328,564.816 150.984,565.704 148.8,565.704 C146.928,565.704 145.704,565.056 144.744,563.856 L143.352,564.96 C144.432,566.448 146.232,567.288 148.632,567.288 Z M175.704,572.088 C177.144,572.088 177.792,570.912 178.008,569.568 L180.24,556.224 L185.256,556.224 L185.52,554.616 L180.504,554.616 L181.128,550.848 L186.12,550.848 L186.384,549.24 L182.232,549.24 C180.384,549.24 179.328,550.416 179.064,552.048 L178.632,554.616 L174.216,554.616 L173.952,556.224 L178.368,556.224 L176.016,570.312 L175.584,570.408 L171.888,566.472 L170.616,567.624 L172.08,569.232 C174,571.32 174.696,572.088 175.704,572.088 Z M193.56,551.856 C194.52,551.856 195.024,551.424 195.144,550.704 C195.192,550.416 195.24,550.2 195.24,550.008 C195.24,549.504 194.88,549.048 193.848,549.048 C192.888,549.048 192.384,549.48 192.264,550.2 C192.216,550.488 192.168,550.704 192.168,550.896 C192.168,551.4 192.528,551.856 193.56,551.856 Z M191.928,567.288 C193.008,567.288 193.896,566.712 196.152,564.624 L198.336,562.608 L197.208,561.552 L192.48,565.632 L191.928,565.416 L194.016,554.616 L187.632,554.616 L187.368,556.224 L191.832,556.224 L190.2,564.672 C190.152,564.96 190.08,565.32 190.08,565.632 C190.08,566.592 190.728,567.288 191.928,567.288 Z M203.088,567 L204.24,560.16 C204.48,558.744 205.392,557.64 205.656,557.328 C206.352,556.512 207.192,555.984 208.272,555.984 C209.664,555.984 210.336,556.896 210.336,558.36 C210.336,558.624 210.312,559.104 210.216,559.68 L208.992,567 L210.864,567 L212.112,559.512 C212.208,558.96 212.256,558.384 212.256,557.904 C212.256,555.648 210.96,554.328 208.896,554.328 C206.904,554.328 205.68,555.576 204.768,557.544 L204.672,557.544 L205.152,554.616 L203.28,554.616 L201.216,567 L203.088,567 Z M219.408,567.288 C221.592,567.288 222.84,566.016 223.8,564.072 L223.872,564.072 L223.392,567 L225.264,567 L228.24,549.24 L226.368,549.24 L225.096,556.776 L225.024,556.776 C224.496,555.168 223.224,554.328 221.4,554.328 C217.032,554.328 215.544,559.176 215.544,562.488 C215.544,565.656 216.912,567.288 219.408,567.288 Z M220.056,565.632 C218.328,565.632 217.44,564.528 217.44,562.68 C217.44,562.368 217.464,562.032 217.536,561.6 L217.824,559.872 C218.208,557.568 219.576,555.984 221.952,555.984 C223.8,555.984 225.072,556.968 224.784,558.696 L224.328,561.432 C224.136,562.584 223.584,563.568 222.96,564.264 C222.096,565.224 221.088,565.632 220.056,565.632 Z M235.248,567.288 C237.864,567.288 239.544,566.04 240.936,563.76 L239.616,562.944 C238.224,564.912 237.192,565.68 235.416,565.68 C232.824,565.68 232.32,564.072 232.32,562.344 C232.32,562.296 232.32,562.032 232.344,561.792 C240.24,561.576 241.368,559.416 241.368,557.664 C241.368,555.504 239.592,554.328 237.168,554.328 C233.184,554.328 230.352,557.496 230.352,561.984 C230.352,565.536 232.128,567.288 235.248,567.288 Z M232.488,560.496 L232.512,560.256 C232.872,557.448 234.504,555.888 237,555.888 C238.8,555.888 239.448,556.728 239.448,557.736 C239.448,558.936 238.536,560.304 232.488,560.496 Z M265.56,551.856 C266.52,551.856 267.024,551.424 267.144,550.704 C267.192,550.416 267.24,550.2 267.24,550.008 C267.24,549.504 266.88,549.048 265.848,549.048 C264.888,549.048 264.384,549.48 264.264,550.2 C264.216,550.488 264.168,550.704 264.168,550.896 C264.168,551.4 264.528,551.856 265.56,551.856 Z M263.928,567.288 C265.008,567.288 265.896,566.712 268.152,564.624 L270.336,562.608 L269.208,561.552 L264.48,565.632 L263.928,565.416 L266.016,554.616 L259.632,554.616 L259.368,556.224 L263.832,556.224 L262.2,564.672 C262.152,564.96 262.08,565.32 262.08,565.632 C262.08,566.592 262.728,567.288 263.928,567.288 Z M278.28,567.288 C280.872,567.288 282.432,565.944 283.992,563.424 L282.648,562.632 C280.68,565.344 279.624,565.656 278.52,565.656 C276.72,565.656 275.496,564.672 275.496,562.56 C275.496,562.248 275.52,561.984 275.616,561.408 L275.856,559.968 C276.288,557.376 277.656,555.96 279.768,555.96 C281.304,555.96 282.216,556.416 282.696,557.928 L284.304,557.304 C283.872,555.672 282.6,554.328 279.984,554.328 C276.456,554.328 273.6,557.328 273.6,562.056 C273.6,565.152 275.208,567.288 278.28,567.288 Z M289.488,567 L290.64,560.16 C290.88,558.744 291.792,557.64 292.056,557.328 C292.752,556.512 293.592,555.984 294.672,555.984 C296.064,555.984 296.736,556.896 296.736,558.36 C296.736,558.624 296.712,559.104 296.616,559.68 L295.392,567 L297.264,567 L298.512,559.512 C298.608,558.96 298.656,558.384 298.656,557.904 C298.656,555.648 297.36,554.328 295.296,554.328 C293.304,554.328 292.08,555.576 291.168,557.544 L291.072,557.544 L292.464,549.24 L290.592,549.24 L287.616,567 L289.488,567 Z M320.088,572.088 C323.184,572.088 325.44,570.648 326.064,567 L328.128,554.616 L326.256,554.616 L325.896,556.776 L325.824,556.776 C325.296,555.168 324.024,554.328 322.2,554.328 C317.928,554.328 316.368,558.984 316.368,562.176 C316.368,565.2 317.712,566.88 320.256,566.88 C322.44,566.88 323.736,565.656 324.672,563.664 L324.768,563.664 L324.264,566.64 C323.808,569.376 322.464,570.432 320.208,570.432 C318.696,570.432 317.688,569.952 317.04,569.136 L315.744,570.384 C316.632,571.488 318.096,572.088 320.088,572.088 Z M320.904,565.224 C319.176,565.224 318.288,564.144 318.288,562.176 C318.288,561.84 318.336,561.552 318.408,561.12 L318.624,559.824 C319.008,557.52 320.424,555.984 322.752,555.984 C324.6,555.984 325.872,556.968 325.584,558.696 L325.2,561.048 C324.984,562.392 324.288,563.352 323.832,563.856 C322.944,564.84 321.936,565.224 320.904,565.224 Z M336.048,567.288 C338.664,567.288 340.344,566.04 341.736,563.76 L340.416,562.944 C339.024,564.912 337.992,565.68 336.216,565.68 C333.624,565.68 333.12,564.072 333.12,562.344 C333.12,562.296 333.12,562.032 333.144,561.792 C341.04,561.576 342.168,559.416 342.168,557.664 C342.168,555.504 340.392,554.328 337.968,554.328 C333.984,554.328 331.152,557.496 331.152,561.984 C331.152,565.536 332.928,567.288 336.048,567.288 Z M333.288,560.496 L333.312,560.256 C333.672,557.448 335.304,555.888 337.8,555.888 C339.6,555.888 340.248,556.728 340.248,557.736 C340.248,558.936 339.336,560.304 333.288,560.496 Z M349.944,567 L351.024,560.544 C351.264,559.104 352.128,558.096 352.44,557.736 C353.184,556.872 354.072,556.488 355.512,556.488 L357.624,556.488 L357.936,554.616 L356.064,554.616 C353.688,554.616 352.44,555.96 351.576,557.928 L351.456,557.928 L352.008,554.616 L346.656,554.616 L346.392,556.224 L349.872,556.224 L348.072,567 L349.944,567 Z M363.408,567.288 C365.592,567.288 366.84,566.016 367.8,564.072 L367.872,564.072 L367.392,567 L369.264,567 L371.328,554.616 L369.456,554.616 L369.096,556.776 L369.024,556.776 C368.496,555.168 367.224,554.328 365.4,554.328 C361.032,554.328 359.544,559.176 359.544,562.488 C359.544,565.656 360.912,567.288 363.408,567.288 Z M364.056,565.632 C362.328,565.632 361.44,564.528 361.44,562.68 C361.44,562.368 361.464,562.032 361.536,561.6 L361.824,559.872 C362.208,557.568 363.576,555.984 365.952,555.984 C367.8,555.984 369.072,556.968 368.784,558.696 L368.328,561.432 C368.136,562.584 367.584,563.568 366.96,564.264 C366.096,565.224 365.088,565.632 364.056,565.632 Z M377.808,567.288 C379.992,567.288 381.24,566.016 382.2,564.072 L382.272,564.072 L381.792,567 L383.664,567 L386.64,549.24 L384.768,549.24 L383.496,556.776 L383.424,556.776 C382.896,555.168 381.624,554.328 379.8,554.328 C375.432,554.328 373.944,559.176 373.944,562.488 C373.944,565.656 375.312,567.288 377.808,567.288 Z M378.456,565.632 C376.728,565.632 375.84,564.528 375.84,562.68 C375.84,562.368 375.864,562.032 375.936,561.6 L376.224,559.872 C376.608,557.568 377.976,555.984 380.352,555.984 C382.2,555.984 383.472,556.968 383.184,558.696 L382.728,561.432 C382.536,562.584 381.984,563.568 381.36,564.264 C380.496,565.224 379.488,565.632 378.456,565.632 Z M393.648,567.288 C396.264,567.288 397.944,566.04 399.336,563.76 L398.016,562.944 C396.624,564.912 395.592,565.68 393.816,565.68 C391.224,565.68 390.72,564.072 390.72,562.344 C390.72,562.296 390.72,562.032 390.744,561.792 C398.64,561.576 399.768,559.416 399.768,557.664 C399.768,555.504 397.992,554.328 395.568,554.328 C391.584,554.328 388.752,557.496 388.752,561.984 C388.752,565.536 390.528,567.288 393.648,567.288 Z M390.888,560.496 L390.912,560.256 C391.272,557.448 392.904,555.888 395.4,555.888 C397.2,555.888 397.848,556.728 397.848,557.736 C397.848,558.936 396.936,560.304 390.888,560.496 Z M422.232,567.288 C425.544,567.288 427.776,565.704 427.776,563.136 C427.776,560.688 425.736,560.304 424.152,560.04 L422.4,559.752 C421.392,559.584 420.48,559.32 420.48,558.12 C420.48,556.776 421.608,555.912 423.744,555.912 C425.832,555.912 426.84,556.728 427.272,557.376 L428.592,556.224 C427.656,555.048 426.12,554.328 423.96,554.328 C421.032,554.328 418.656,555.648 418.656,558.264 C418.656,560.568 420.528,561.168 422.328,561.432 L424.128,561.696 C425.136,561.84 425.928,562.176 425.928,563.328 C425.928,564.816 424.584,565.704 422.4,565.704 C420.528,565.704 419.304,565.056 418.344,563.856 L416.952,564.96 C418.032,566.448 419.832,567.288 422.232,567.288 Z M432.528,571.8 L433.704,564.84 L433.776,564.84 C434.304,566.448 435.576,567.288 437.4,567.288 C441.768,567.288 443.256,562.44 443.256,559.128 C443.256,555.96 441.888,554.328 439.392,554.328 C437.208,554.328 435.96,555.6 435,557.544 L434.928,557.544 L435.408,554.616 L433.536,554.616 L430.656,571.8 L432.528,571.8 Z M436.848,565.632 C435,565.632 433.728,564.648 434.016,562.92 L434.472,560.184 C434.664,559.032 435.216,558.048 435.84,557.352 C436.704,556.392 437.712,555.984 438.744,555.984 C440.472,555.984 441.36,557.088 441.36,558.936 C441.36,559.248 441.336,559.584 441.264,560.016 L440.976,561.744 C440.592,564.048 439.224,565.632 436.848,565.632 Z M449.808,567.288 C451.992,567.288 453.24,566.016 454.2,564.072 L454.272,564.072 L453.792,567 L455.664,567 L457.728,554.616 L455.856,554.616 L455.496,556.776 L455.424,556.776 C454.896,555.168 453.624,554.328 451.8,554.328 C447.432,554.328 445.944,559.176 445.944,562.488 C445.944,565.656 447.312,567.288 449.808,567.288 Z M450.456,565.632 C448.728,565.632 447.84,564.528 447.84,562.68 C447.84,562.368 447.864,562.032 447.936,561.6 L448.224,559.872 C448.608,557.568 449.976,555.984 452.352,555.984 C454.2,555.984 455.472,556.968 455.184,558.696 L454.728,561.432 C454.536,562.584 453.984,563.568 453.36,564.264 C452.496,565.224 451.488,565.632 450.456,565.632 Z M462.288,567 L463.44,560.16 C463.68,558.744 464.592,557.64 464.856,557.328 C465.552,556.512 466.392,555.984 467.472,555.984 C468.864,555.984 469.536,556.896 469.536,558.36 C469.536,558.624 469.512,559.104 469.416,559.68 L468.192,567 L470.064,567 L471.312,559.512 C471.408,558.96 471.456,558.384 471.456,557.904 C471.456,555.648 470.16,554.328 468.096,554.328 C466.104,554.328 464.88,555.576 463.968,557.544 L463.872,557.544 L464.352,554.616 L462.48,554.616 L460.416,567 L462.288,567 Z M480.048,567.288 C482.664,567.288 484.344,566.04 485.736,563.76 L484.416,562.944 C483.024,564.912 481.992,565.68 480.216,565.68 C477.624,565.68 477.12,564.072 477.12,562.344 C477.12,562.296 477.12,562.032 477.144,561.792 C485.04,561.576 486.168,559.416 486.168,557.664 C486.168,555.504 484.392,554.328 481.968,554.328 C477.984,554.328 475.152,557.496 475.152,561.984 C475.152,565.536 476.928,567.288 480.048,567.288 Z M477.288,560.496 L477.312,560.256 C477.672,557.448 479.304,555.888 481.8,555.888 C483.6,555.888 484.248,556.728 484.248,557.736 C484.248,558.936 483.336,560.304 477.288,560.496 Z M491.088,567 L492.24,560.16 C492.48,558.744 493.392,557.64 493.656,557.328 C494.352,556.512 495.192,555.984 496.272,555.984 C497.664,555.984 498.336,556.896 498.336,558.36 C498.336,558.624 498.312,559.104 498.216,559.68 L496.992,567 L498.864,567 L500.112,559.512 C500.208,558.96 500.256,558.384 500.256,557.904 C500.256,555.648 498.96,554.328 496.896,554.328 C494.904,554.328 493.68,555.576 492.768,557.544 L492.672,557.544 L493.152,554.616 L491.28,554.616 L489.216,567 L491.088,567 Z M505.488,567 L506.64,560.16 C506.88,558.744 507.792,557.64 508.056,557.328 C508.752,556.512 509.592,555.984 510.672,555.984 C512.064,555.984 512.736,556.896 512.736,558.36 C512.736,558.624 512.712,559.104 512.616,559.68 L511.392,567 L513.264,567 L514.512,559.512 C514.608,558.96 514.656,558.384 514.656,557.904 C514.656,555.648 513.36,554.328 511.296,554.328 C509.304,554.328 508.08,555.576 507.168,557.544 L507.072,557.544 L507.552,554.616 L505.68,554.616 L503.616,567 L505.488,567 Z M521.808,567.288 C523.992,567.288 525.24,566.016 526.2,564.072 L526.272,564.072 L525.792,567 L527.664,567 L530.64,549.24 L528.768,549.24 L527.496,556.776 L527.424,556.776 C526.896,555.168 525.624,554.328 523.8,554.328 C519.432,554.328 517.944,559.176 517.944,562.488 C517.944,565.656 519.312,567.288 521.808,567.288 Z M522.456,565.632 C520.728,565.632 519.84,564.528 519.84,562.68 C519.84,562.368 519.864,562.032 519.936,561.6 L520.224,559.872 C520.608,557.568 521.976,555.984 524.352,555.984 C526.2,555.984 527.472,556.968 527.184,558.696 L526.728,561.432 C526.536,562.584 525.984,563.568 525.36,564.264 C524.496,565.224 523.488,565.632 522.456,565.632 Z M550.752,567.288 C552.744,567.288 553.968,566.04 554.88,564.072 L554.976,564.072 L554.496,567 L556.368,567 L558.432,554.616 L556.56,554.616 L555.408,561.456 C555.168,562.872 554.256,563.976 553.992,564.288 C553.296,565.104 552.456,565.632 551.376,565.632 C549.984,565.632 549.312,564.72 549.312,563.256 C549.312,562.992 549.336,562.512 549.432,561.936 L550.656,554.616 L548.784,554.616 L547.536,562.104 C547.44,562.656 547.392,563.232 547.392,563.712 C547.392,565.968 548.688,567.288 550.752,567.288 Z M563.088,567 L564.24,560.16 C564.48,558.744 565.392,557.64 565.656,557.328 C566.352,556.512 567.192,555.984 568.272,555.984 C569.664,555.984 570.336,556.896 570.336,558.36 C570.336,558.624 570.312,559.104 570.216,559.68 L568.992,567 L570.864,567 L572.112,559.512 C572.208,558.96 572.256,558.384 572.256,557.904 C572.256,555.648 570.96,554.328 568.896,554.328 C566.904,554.328 565.68,555.576 564.768,557.544 L564.672,557.544 L565.152,554.616 L563.28,554.616 L561.216,567 L563.088,567 Z M579.408,567.288 C581.592,567.288 582.84,566.016 583.8,564.072 L583.872,564.072 L583.392,567 L585.264,567 L588.24,549.24 L586.368,549.24 L585.096,556.776 L585.024,556.776 C584.496,555.168 583.224,554.328 581.4,554.328 C577.032,554.328 575.544,559.176 575.544,562.488 C575.544,565.656 576.912,567.288 579.408,567.288 Z M580.056,565.632 C578.328,565.632 577.44,564.528 577.44,562.68 C577.44,562.368 577.464,562.032 577.536,561.6 L577.824,559.872 C578.208,557.568 579.576,555.984 581.952,555.984 C583.8,555.984 585.072,556.968 584.784,558.696 L584.328,561.432 C584.136,562.584 583.584,563.568 582.96,564.264 C582.096,565.224 581.088,565.632 580.056,565.632 Z M608.976,567 L614.064,557.136 L614.184,557.136 L615.432,567 L617.664,567 L623.784,554.616 L621.984,554.616 L616.872,565.128 L616.752,565.128 L615.456,554.616 L613.656,554.616 L608.208,565.224 L608.088,565.224 L607.728,554.616 L605.952,554.616 L606.624,567 L608.976,567 Z M629.808,567.288 C631.992,567.288 633.24,566.016 634.2,564.072 L634.272,564.072 L633.792,567 L635.664,567 L637.728,554.616 L635.856,554.616 L635.496,556.776 L635.424,556.776 C634.896,555.168 633.624,554.328 631.8,554.328 C627.432,554.328 625.944,559.176 625.944,562.488 C625.944,565.656 627.312,567.288 629.808,567.288 Z M630.456,565.632 C628.728,565.632 627.84,564.528 627.84,562.68 C627.84,562.368 627.864,562.032 627.936,561.6 L628.224,559.872 C628.608,557.568 629.976,555.984 632.352,555.984 C634.2,555.984 635.472,556.968 635.184,558.696 L634.728,561.432 C634.536,562.584 633.984,563.568 633.36,564.264 C632.496,565.224 631.488,565.632 630.456,565.632 Z M645.144,567 L646.224,560.544 C646.464,559.104 647.328,558.096 647.64,557.736 C648.384,556.872 649.272,556.488 650.712,556.488 L652.824,556.488 L653.136,554.616 L651.264,554.616 C648.888,554.616 647.64,555.96 646.776,557.928 L646.656,557.928 L647.208,554.616 L641.856,554.616 L641.592,556.224 L645.072,556.224 L643.272,567 L645.144,567 Z M658.752,567.288 C660.744,567.288 661.968,566.04 662.88,564.072 L662.976,564.072 L662.496,567 L664.368,567 L666.432,554.616 L664.56,554.616 L663.408,561.456 C663.168,562.872 662.256,563.976 661.992,564.288 C661.296,565.104 660.456,565.632 659.376,565.632 C657.984,565.632 657.312,564.72 657.312,563.256 C657.312,562.992 657.336,562.512 657.432,561.936 L658.656,554.616 L656.784,554.616 L655.536,562.104 C655.44,562.656 655.392,563.232 655.392,563.712 C655.392,565.968 656.688,567.288 658.752,567.288 Z M671.136,567 L672.528,560.088 C672.72,559.128 673.32,557.856 674.208,556.968 C674.784,556.392 675.504,556.008 676.344,556.008 C677.52,556.008 678.072,556.704 678.072,557.976 C678.072,558.384 678.024,558.888 677.928,559.368 L676.392,567 L678.24,567 L679.632,560.088 C679.824,559.08 680.376,557.784 681.168,556.992 C681.84,556.32 682.488,556.008 683.256,556.008 C684.576,556.008 685.152,556.704 685.152,558.024 C685.152,558.408 685.104,558.864 685.008,559.344 L683.856,565.08 C683.808,565.32 683.784,565.464 683.784,565.632 C683.784,566.568 684.408,567 685.368,567 L687.096,567 L687.408,565.368 L685.656,565.368 L686.856,559.344 C686.976,558.744 687.024,558.216 687.024,557.736 C687.024,555.576 685.968,554.328 683.904,554.328 C682.08,554.328 680.88,555.216 680.04,557.064 L679.896,557.064 C679.704,555.36 678.744,554.328 677.016,554.328 C675.216,554.328 674.112,555.216 673.248,557.064 L673.128,557.064 L673.632,554.616 L671.784,554.616 L669.288,567 L671.136,567 Z M696.84,561.84 L697.248,559.44 C700.296,559.008 702.72,557.208 702.72,553.968 C702.72,551.544 700.992,549.96 698.112,549.96 C694.992,549.96 693.24,551.784 692.472,553.8 L694.176,554.52 C694.8,552.864 695.904,551.664 697.944,551.664 C699.6,551.664 700.68,552.552 700.68,553.944 L700.67925,554.0325 C700.677,554.1675 700.668,554.424 700.632,554.64 C700.272,556.8 699,557.64 695.616,558.072 L694.992,561.84 L696.84,561.84 Z M695.136,567.216 C696.36,567.216 696.936,566.664 697.08,565.8 C697.128,565.512 697.176,565.224 697.176,565.032 C697.176,564.432 696.744,563.952 695.616,563.952 C694.392,563.952 693.816,564.504 693.672,565.368 C693.624,565.656 693.576,565.944 693.576,566.136 C693.576,566.736 694.008,567.216 695.136,567.216 Z" id="THEMA02Wasfindeichgeradespanenndundwarum?" fill="#000000" fill-rule="nonzero"></path>
        <path d="M244.248,700 L244.248,685.912 L244.848,685.912 L246.264,688.696 L250.248,695.992 L254.256,688.696 L255.672,685.888 L256.272,685.888 L256.272,700 L258.24,700 L258.24,683.248 L255.12,683.248 L250.296,692.272 L250.2,692.272 L245.4,683.248 L242.28,683.248 L242.28,700 L244.248,700 Z M273.48,700 L273.48,698.248 L265.176,698.248 L265.176,692.392 L273.192,692.392 L273.192,690.64 L265.176,690.64 L265.176,685 L273.48,685 L273.48,683.248 L263.16,683.248 L263.16,700 L273.48,700 Z M279.576,700 L279.576,692.848 L282.24,692.848 L286.32,700 L288.576,700 L284.304,692.752 C286.968,692.488 288.432,690.76 288.432,688.072 C288.432,685.048 286.752,683.248 283.656,683.248 L277.56,683.248 L277.56,700 L279.576,700 Z M283.608,691.144 L279.576,691.144 L279.576,685 L283.608,685 C285.288,685 286.296,685.888 286.296,687.448 L286.296,688.696 C286.296,690.256 285.288,691.144 283.608,691.144 Z M293.856,700 L293.856,694.624 L296.256,691.792 L301.32,700 L303.672,700 L297.624,690.304 L303.504,683.248 L301.08,683.248 L296.136,689.2 L293.928,691.984 L293.856,691.984 L293.856,683.248 L291.84,683.248 L291.84,700 L293.856,700 Z M311.112,700 L313.344,691.648 L314.928,685.504 L314.976,685.504 L316.512,691.648 L318.696,700 L320.928,700 L325.224,683.248 L323.16,683.248 L321.264,691.312 L319.824,697.552 L319.752,697.552 L318.192,691.312 L316.152,683.248 L313.848,683.248 L311.736,691.312 L310.176,697.576 L310.128,697.576 L308.736,691.312 L306.936,683.248 L304.8,683.248 L308.88,700 L311.112,700 Z M330.768,681.088 C331.752,681.088 332.136,680.608 332.136,679.984 L332.136,679.648 C332.136,679.024 331.752,678.544 330.768,678.544 C329.784,678.544 329.4,679.024 329.4,679.648 L329.4,679.984 C329.4,680.608 329.784,681.088 330.768,681.088 Z M335.232,681.088 C336.216,681.088 336.6,680.608 336.6,679.984 L336.6,679.648 C336.6,679.024 336.216,678.544 335.232,678.544 C334.248,678.544 333.864,679.024 333.864,679.648 L333.864,679.984 C333.864,680.608 334.248,681.088 335.232,681.088 Z M333,700.288 C337.56,700.288 338.28,697.792 338.28,692.824 L338.28,683.248 L336.264,683.248 L336.264,693.304 C336.264,696.544 336.144,698.536 333,698.536 C329.929116,698.536 329.743217,696.635574 329.736231,693.528012 L329.736,683.248 L327.72,683.248 L327.72,692.824 C327.72,697.792 328.44,700.288 333,700.288 Z M344.376,700 L344.376,692.848 L347.04,692.848 L351.12,700 L353.376,700 L349.104,692.752 C351.768,692.488 353.232,690.76 353.232,688.072 C353.232,685.048 351.552,683.248 348.456,683.248 L342.36,683.248 L342.36,700 L344.376,700 Z M348.408,691.144 L344.376,691.144 L344.376,685 L348.408,685 C350.088,685 351.096,685.888 351.096,687.448 L351.096,688.696 C351.096,690.256 350.088,691.144 348.408,691.144 Z M361.56,700 C365.64,700 367.656,697.12 367.656,691.624 C367.656,686.128 365.64,683.248 361.56,683.248 L356.88,683.248 L356.88,700 L361.56,700 Z M361.464,698.248 L358.896,698.248 L358.896,685 L361.464,685 C364.128,685 365.52,686.968 365.52,690.328 L365.52,692.92 C365.52,696.28 364.128,698.248 361.464,698.248 Z M381.384,700 L381.384,698.392 L377.208,698.392 L377.208,684.856 L381.384,684.856 L381.384,683.248 L371.016,683.248 L371.016,684.856 L375.192,684.856 L375.192,698.392 L371.016,698.392 L371.016,700 L381.384,700 Z M390.144,700.288 C392.448,700.288 393.384,699.064 393.936,697.768 L394.056,697.768 L394.056,700 L395.928,700 L395.928,691.72 L390.528,691.72 L390.528,693.328 L394.056,693.328 L394.056,695.056 C394.056,697.12 392.76,698.584 390.6,698.584 C387.864,698.584 386.88,696.208 386.88,692.848 L386.88,690.256 C386.88,686.896 388.104,684.712 390.792,684.712 C392.808,684.712 393.6,685.936 394.2,687.424 L395.928,686.632 C395.208,684.808 393.864,682.96 390.72,682.96 C386.688,682.96 384.744,686.032 384.744,691.744 C384.744,697.216 386.52,700.288 390.144,700.288 Z M410.28,700 L410.28,698.248 L401.976,698.248 L401.976,692.392 L409.992,692.392 L409.992,690.64 L401.976,690.64 L401.976,685 L410.28,685 L410.28,683.248 L399.96,683.248 L399.96,700 L410.28,700 Z M419.352,700.288 C423.072,700.288 425.208,698.416 425.208,695.32 C425.208,693.136 424.128,691.312 420.84,690.736 L419.04,690.424 C416.664,690.016 415.896,689.056 415.896,687.568 C415.896,685.672 417.168,684.688 419.424,684.688 C421.512,684.688 422.712,685.528 423.648,686.752 L425.064,685.528 C423.936,683.92 422.112,682.96 419.448,682.96 C416.04,682.96 413.856,684.544 413.856,687.616 C413.856,689.728 414.888,691.624 418.176,692.176 L420.048,692.488 C422.328,692.872 423.168,693.736 423.168,695.368 C423.168,697.384 421.848,698.56 419.424,698.56 C417.408,698.56 416.04,697.768 414.744,696.136 L413.28,697.336 C414.528,699.064 416.352,700.288 419.352,700.288 Z M446.208,700.288 C448.368,700.288 449.784,699.184 450.24,697.528 L450.36,697.528 L452.448,700 L454.728,700 L451.8,696.544 C452.352,695.056 452.448,694 452.664,692.464 L454.464,692.464 L454.464,690.856 L451.08,690.856 C451.008,692.392 450.984,694.096 450.768,695.344 L450.648,695.344 L448.896,693.184 L446.736,690.52 C445.512,688.984 445.032,688.144 445.032,687.136 L445.032,686.944 C445.032,685.576 445.944,684.592 447.384,684.592 C448.632,684.592 449.472,685.336 449.88,686.32 L451.464,685.504 C451.008,684.28 449.616,682.96 447.48,682.96 C445.104,682.96 443.136,684.592 443.136,687.016 C443.136,688.432 443.808,689.632 444.696,690.784 C442.296,692.008 441.6,693.976 441.6,695.656 C441.6,698.224 443.28,700.288 446.208,700.288 Z M446.712,698.584 C444.864,698.584 443.592,697.48 443.592,695.752 L443.592,695.392 C443.592,694.024 444.144,692.824 445.608,691.912 L449.784,696.952 C449.184,697.984 448.08,698.584 446.712,698.584 Z M472.632,700 L474.048,695.224 L479.928,695.224 L481.344,700 L483.48,700 L478.344,683.248 L475.68,683.248 L470.544,700 L472.632,700 Z M479.448,693.472 L474.528,693.472 L476.88,685.384 L477.096,685.384 L479.448,693.472 Z M487.944,700 L487.944,685.816 L488.112,685.816 L493.824,700 L496.68,700 L496.68,683.248 L494.856,683.248 L494.856,697.288 L494.688,697.288 L488.976,683.248 L486.12,683.248 L486.12,700 L487.944,700 Z M505.56,700 C509.64,700 511.656,697.12 511.656,691.624 C511.656,686.128 509.64,683.248 505.56,683.248 L500.88,683.248 L500.88,700 L505.56,700 Z M505.464,698.248 L502.896,698.248 L502.896,685 L505.464,685 C508.128,685 509.52,686.968 509.52,690.328 L509.52,692.92 C509.52,696.28 508.128,698.248 505.464,698.248 Z M525.48,700 L525.48,698.248 L517.176,698.248 L517.176,692.392 L525.192,692.392 L525.192,690.64 L517.176,690.64 L517.176,685 L525.48,685 L525.48,683.248 L515.16,683.248 L515.16,700 L525.48,700 Z M531.576,700 L531.576,692.848 L534.24,692.848 L538.32,700 L540.576,700 L536.304,692.752 C538.968,692.488 540.432,690.76 540.432,688.072 C540.432,685.048 538.752,683.248 535.656,683.248 L529.56,683.248 L529.56,700 L531.576,700 Z M535.608,691.144 L531.576,691.144 L531.576,685 L535.608,685 C537.288,685 538.296,685.888 538.296,687.448 L538.296,688.696 C538.296,690.256 537.288,691.144 535.608,691.144 Z M554.28,700 L554.28,698.248 L545.976,698.248 L545.976,692.392 L553.992,692.392 L553.992,690.64 L545.976,690.64 L545.976,685 L554.28,685 L554.28,683.248 L543.96,683.248 L543.96,700 L554.28,700 Z M563.352,700.288 C567.072,700.288 569.208,698.416 569.208,695.32 C569.208,693.136 568.128,691.312 564.84,690.736 L563.04,690.424 C560.664,690.016 559.896,689.056 559.896,687.568 C559.896,685.672 561.168,684.688 563.424,684.688 C565.512,684.688 566.712,685.528 567.648,686.752 L569.064,685.528 C567.936,683.92 566.112,682.96 563.448,682.96 C560.04,682.96 557.856,684.544 557.856,687.616 C557.856,689.728 558.888,691.624 562.176,692.176 L564.048,692.488 C566.328,692.872 567.168,693.736 567.168,695.368 C567.168,697.384 565.848,698.56 563.424,698.56 C561.408,698.56 560.04,697.768 558.744,696.136 L557.28,697.336 C558.528,699.064 560.352,700.288 563.352,700.288 Z M255.216,764 L255.504,762.272 L251.064,762.272 L253.584,747.248 L251.448,747.248 L245.4,750.344 L246.072,751.832 L251.304,749.12 L249.096,762.272 L244.296,762.272 L244.008,764 L255.216,764 Z M268.032,757.688 L268.368,755.72 L261.504,755.72 L261.168,757.688 L268.032,757.688 Z M283.632,764 L283.92,762.296 L274.968,762.296 L280.416,758.12 C283.344,755.888 285.024,753.896 285.024,751.232 C285.024,748.712 283.224,746.96 280.224,746.96 C277.08,746.96 275.328,748.712 274.368,750.872 L276.096,751.544 C276.84,749.96 277.968,748.664 280.008,748.664 C281.88,748.664 282.96,749.72 282.96,751.256 C282.96,751.496 282.936,751.736 282.888,752.024 C282.576,753.896 281.952,754.784 279.264,756.896 L272.832,761.96 L272.496,764 L283.632,764 Z M302.496,764 L304.704,759.224 L310.608,759.224 L311.208,764 L313.272,764 L310.944,747.248 L308.304,747.248 L300.384,764 L302.496,764 Z M310.416,757.472 L305.448,757.472 L309.168,749.264 L309.384,749.264 L310.416,757.472 Z M318.288,764 L319.44,757.16 C319.68,755.744 320.592,754.64 320.856,754.328 C321.552,753.512 322.392,752.984 323.472,752.984 C324.864,752.984 325.536,753.896 325.536,755.36 C325.536,755.624 325.512,756.104 325.416,756.68 L324.192,764 L326.064,764 L327.312,756.512 C327.408,755.96 327.456,755.384 327.456,754.904 C327.456,752.648 326.16,751.328 324.096,751.328 C322.104,751.328 320.88,752.576 319.968,754.544 L319.872,754.544 L320.352,751.616 L318.48,751.616 L316.416,764 L318.288,764 Z M334.488,769.088 C337.584,769.088 339.84,767.648 340.464,764 L342.528,751.616 L340.656,751.616 L340.296,753.776 L340.224,753.776 C339.696,752.168 338.424,751.328 336.6,751.328 C332.328,751.328 330.768,755.984 330.768,759.176 C330.768,762.2 332.112,763.88 334.656,763.88 C336.84,763.88 338.136,762.656 339.072,760.664 L339.168,760.664 L338.664,763.64 C338.208,766.376 336.864,767.432 334.608,767.432 C333.096,767.432 332.088,766.952 331.44,766.136 L330.144,767.384 C331.032,768.488 332.496,769.088 334.488,769.088 Z M335.304,762.224 C333.576,762.224 332.688,761.144 332.688,759.176 C332.688,758.84 332.736,758.552 332.808,758.12 L333.024,756.824 C333.408,754.52 334.824,752.984 337.152,752.984 C339,752.984 340.272,753.968 339.984,755.696 L339.6,758.048 C339.384,759.392 338.688,760.352 338.232,760.856 C337.344,761.84 336.336,762.224 335.304,762.224 Z M350.448,764.288 C353.064,764.288 354.744,763.04 356.136,760.76 L354.816,759.944 C353.424,761.912 352.392,762.68 350.616,762.68 C348.024,762.68 347.52,761.072 347.52,759.344 L347.52056,759.255557 C347.521959,759.147102 347.526857,758.963429 347.544,758.792 C355.44,758.576 356.568,756.416 356.568,754.664 C356.568,752.504 354.792,751.328 352.368,751.328 C348.384,751.328 345.552,754.496 345.552,758.984 C345.552,762.536 347.328,764.288 350.448,764.288 Z M347.688,757.496 L347.712,757.256 C348.072,754.448 349.704,752.888 352.2,752.888 C354,752.888 354.648,753.728 354.648,754.736 C354.648,755.936 353.736,757.304 347.688,757.496 Z M364.344,764 L365.424,757.544 C365.664,756.104 366.528,755.096 366.84,754.736 C367.584,753.872 368.472,753.488 369.912,753.488 L372.024,753.488 L372.336,751.616 L370.464,751.616 C368.088,751.616 366.84,752.96 365.976,754.928 L365.856,754.928 L366.408,751.616 L361.056,751.616 L360.792,753.224 L364.272,753.224 L362.472,764 L364.344,764 Z M380.76,748.856 C381.72,748.856 382.224,748.424 382.344,747.704 C382.392,747.416 382.44,747.2 382.44,747.008 C382.44,746.504 382.08,746.048 381.048,746.048 C380.088,746.048 379.584,746.48 379.464,747.2 C379.416,747.488 379.368,747.704 379.368,747.896 C379.368,748.4 379.728,748.856 380.76,748.856 Z M379.128,764.288 C380.208,764.288 381.096,763.712 383.352,761.624 L385.536,759.608 L384.408,758.552 L379.68,762.632 L379.128,762.416 L381.216,751.616 L374.832,751.616 L374.568,753.224 L379.032,753.224 L377.4,761.672 C377.352,761.96 377.28,762.32 377.28,762.632 C377.28,763.592 377.928,764.288 379.128,764.288 Z M393.432,764.288 C396.744,764.288 398.976,762.704 398.976,760.136 C398.976,757.688 396.936,757.304 395.352,757.04 L393.6,756.752 C392.592,756.584 391.68,756.32 391.68,755.12 C391.68,753.776 392.808,752.912 394.944,752.912 C397.032,752.912 398.04,753.728 398.472,754.376 L399.792,753.224 C398.856,752.048 397.32,751.328 395.16,751.328 C392.232,751.328 389.856,752.648 389.856,755.264 C389.856,757.568 391.728,758.168 393.528,758.432 L395.328,758.696 C396.336,758.84 397.128,759.176 397.128,760.328 C397.128,761.816 395.784,762.704 393.6,762.704 C391.728,762.704 390.504,762.056 389.544,760.856 L388.152,761.96 C389.232,763.448 391.032,764.288 393.432,764.288 Z M407.832,764.288 C411.144,764.288 413.376,762.704 413.376,760.136 C413.376,757.688 411.336,757.304 409.752,757.04 L408,756.752 C406.992,756.584 406.08,756.32 406.08,755.12 C406.08,753.776 407.208,752.912 409.344,752.912 C411.432,752.912 412.44,753.728 412.872,754.376 L414.192,753.224 C413.256,752.048 411.72,751.328 409.56,751.328 C406.632,751.328 404.256,752.648 404.256,755.264 C404.256,757.568 406.128,758.168 407.928,758.432 L409.728,758.696 C410.736,758.84 411.528,759.176 411.528,760.328 C411.528,761.816 410.184,762.704 408,762.704 C406.128,762.704 404.904,762.056 403.944,760.856 L402.552,761.96 C403.632,763.448 405.432,764.288 407.832,764.288 Z M422.448,764.288 C425.064,764.288 426.744,763.04 428.136,760.76 L426.816,759.944 C425.424,761.912 424.392,762.68 422.616,762.68 C420.024,762.68 419.52,761.072 419.52,759.344 L419.52056,759.255557 C419.521959,759.147102 419.526857,758.963429 419.544,758.792 C427.44,758.576 428.568,756.416 428.568,754.664 C428.568,752.504 426.792,751.328 424.368,751.328 C420.384,751.328 417.552,754.496 417.552,758.984 C417.552,762.536 419.328,764.288 422.448,764.288 Z M419.688,757.496 L419.712,757.256 C420.072,754.448 421.704,752.888 424.2,752.888 C426,752.888 426.648,753.728 426.648,754.736 C426.648,755.936 425.736,757.304 419.688,757.496 Z M433.488,764 L434.64,757.16 C434.88,755.744 435.792,754.64 436.056,754.328 C436.752,753.512 437.592,752.984 438.672,752.984 C440.064,752.984 440.736,753.896 440.736,755.36 C440.736,755.624 440.712,756.104 440.616,756.68 L439.392,764 L441.264,764 L442.512,756.512 C442.608,755.96 442.656,755.384 442.656,754.904 C442.656,752.648 441.36,751.328 439.296,751.328 C437.304,751.328 436.08,752.576 435.168,754.544 L435.072,754.544 L435.552,751.616 L433.68,751.616 L431.616,764 L433.488,764 Z M451.248,764.288 C453.864,764.288 455.544,763.04 456.936,760.76 L455.616,759.944 C454.224,761.912 453.192,762.68 451.416,762.68 C448.824,762.68 448.32,761.072 448.32,759.344 L448.32056,759.255557 C448.321959,759.147102 448.326857,758.963429 448.344,758.792 C456.24,758.576 457.368,756.416 457.368,754.664 C457.368,752.504 455.592,751.328 453.168,751.328 C449.184,751.328 446.352,754.496 446.352,758.984 C446.352,762.536 448.128,764.288 451.248,764.288 Z M448.488,757.496 L448.512,757.256 C448.872,754.448 450.504,752.888 453,752.888 C454.8,752.888 455.448,753.728 455.448,754.736 C455.448,755.936 454.536,757.304 448.488,757.496 Z M480.552,764 L483.072,748.976 L488.688,748.976 L488.976,747.248 L475.776,747.248 L475.488,748.976 L481.104,748.976 L478.584,764 L480.552,764 Z M491.088,764 L492.24,757.16 C492.48,755.744 493.392,754.64 493.656,754.328 C494.352,753.512 495.192,752.984 496.272,752.984 C497.664,752.984 498.336,753.896 498.336,755.36 C498.336,755.624 498.312,756.104 498.216,756.68 L496.992,764 L498.864,764 L500.112,756.512 C500.208,755.96 500.256,755.384 500.256,754.904 C500.256,752.648 498.96,751.328 496.896,751.328 C494.904,751.328 493.68,752.576 492.768,754.544 L492.672,754.544 L494.064,746.24 L492.192,746.24 L489.216,764 L491.088,764 Z M508.848,764.288 C511.464,764.288 513.144,763.04 514.536,760.76 L513.216,759.944 C511.824,761.912 510.792,762.68 509.016,762.68 C506.424,762.68 505.92,761.072 505.92,759.344 L505.92056,759.255557 C505.921959,759.147102 505.926857,758.963429 505.944,758.792 C513.84,758.576 514.968,756.416 514.968,754.664 C514.968,752.504 513.192,751.328 510.768,751.328 C506.784,751.328 503.952,754.496 503.952,758.984 C503.952,762.536 505.728,764.288 508.848,764.288 Z M506.088,757.496 L506.112,757.256 C506.472,754.448 508.104,752.888 510.6,752.888 C512.4,752.888 513.048,753.728 513.048,754.736 C513.048,755.936 512.136,757.304 506.088,757.496 Z M519.936,764 L521.328,757.088 C521.52,756.128 522.12,754.856 523.008,753.968 C523.584,753.392 524.304,753.008 525.144,753.008 C526.32,753.008 526.872,753.704 526.872,754.976 C526.872,755.384 526.824,755.888 526.728,756.368 L525.192,764 L527.04,764 L528.432,757.088 C528.624,756.08 529.176,754.784 529.968,753.992 C530.64,753.32 531.288,753.008 532.056,753.008 C533.376,753.008 533.952,753.704 533.952,755.024 C533.952,755.408 533.904,755.864 533.808,756.344 L532.656,762.08 C532.608,762.32 532.584,762.464 532.584,762.632 C532.584,763.568 533.208,764 534.168,764 L535.896,764 L536.208,762.368 L534.456,762.368 L535.656,756.344 C535.776,755.744 535.824,755.216 535.824,754.736 C535.824,752.576 534.768,751.328 532.704,751.328 C530.88,751.328 529.68,752.216 528.84,754.064 L528.696,754.064 C528.504,752.36 527.544,751.328 525.816,751.328 C524.016,751.328 522.912,752.216 522.048,754.064 L521.928,754.064 L522.432,751.616 L520.584,751.616 L518.088,764 L519.936,764 Z M544.848,764.288 C547.464,764.288 549.144,763.04 550.536,760.76 L549.216,759.944 C547.824,761.912 546.792,762.68 545.016,762.68 C542.424,762.68 541.92,761.072 541.92,759.344 L541.92056,759.255557 C541.921959,759.147102 541.926857,758.963429 541.944,758.792 C549.84,758.576 550.968,756.416 550.968,754.664 C550.968,752.504 549.192,751.328 546.768,751.328 C542.784,751.328 539.952,754.496 539.952,758.984 C539.952,762.536 541.728,764.288 544.848,764.288 Z M542.088,757.496 L542.112,757.256 C542.472,754.448 544.104,752.888 546.6,752.888 C548.4,752.888 549.048,753.728 549.048,754.736 C549.048,755.936 548.136,757.304 542.088,757.496 Z M555.888,764 L557.04,757.16 C557.28,755.744 558.192,754.64 558.456,754.328 C559.152,753.512 559.992,752.984 561.072,752.984 C562.464,752.984 563.136,753.896 563.136,755.36 C563.136,755.624 563.112,756.104 563.016,756.68 L561.792,764 L563.664,764 L564.912,756.512 C565.008,755.96 565.056,755.384 565.056,754.904 C565.056,752.648 563.76,751.328 561.696,751.328 C559.704,751.328 558.48,752.576 557.568,754.544 L557.472,754.544 L557.952,751.616 L556.08,751.616 L554.016,764 L555.888,764 Z M261.984,796 L262.272,794.272 L254.328,794.272 L256.824,779.248 L254.88,779.248 L252.072,796 L261.984,796 Z M272.76,780.856 C273.72,780.856 274.224,780.424 274.344,779.704 C274.392,779.416 274.44,779.2 274.44,779.008 C274.44,778.504 274.08,778.048 273.048,778.048 C272.088,778.048 271.584,778.48 271.464,779.2 C271.416,779.488 271.368,779.704 271.368,779.896 C271.368,780.4 271.728,780.856 272.76,780.856 Z M271.128,796.288 C272.208,796.288 273.096,795.712 275.352,793.624 L277.536,791.608 L276.408,790.552 L271.68,794.632 L271.128,794.416 L273.216,783.616 L266.832,783.616 L266.568,785.224 L271.032,785.224 L269.4,793.672 C269.352,793.96 269.28,794.32 269.28,794.632 C269.28,795.592 269.928,796.288 271.128,796.288 Z M282.288,796 L283.44,789.16 C283.68,787.744 284.592,786.64 284.856,786.328 C285.552,785.512 286.392,784.984 287.472,784.984 C288.864,784.984 289.536,785.896 289.536,787.36 C289.536,787.624 289.512,788.104 289.416,788.68 L288.192,796 L290.064,796 L291.312,788.512 C291.408,787.96 291.456,787.384 291.456,786.904 C291.456,784.648 290.16,783.328 288.096,783.328 C286.104,783.328 284.88,784.576 283.968,786.544 L283.872,786.544 L284.352,783.616 L282.48,783.616 L280.416,796 L282.288,796 Z M302.496,796.288 C303.408,796.288 304.128,795.76 305.376,794.512 L307.08,792.808 L306.048,791.728 L302.856,794.656 L302.544,794.608 L300.84,790.888 C305.04,789.856 305.856,787.864 305.856,786.376 C305.856,784.528 304.584,783.328 302.616,783.328 C300.552,783.328 299.256,784.648 298.368,786.544 L298.272,786.544 L299.664,778.24 L297.792,778.24 L294.816,796 L296.688,796 L297.84,789.16 C298.008,788.128 298.512,787.216 299.208,786.352 C299.88,785.536 300.696,784.936 301.92,784.936 C303.216,784.936 303.936,785.608 303.936,786.736 C303.936,788.2 302.712,789.568 298.704,790.552 L300.648,794.776 C301.152,795.88 301.68,796.288 302.496,796.288 Z M313.776,796.288 C314.736,796.288 315.6,795.88 317.928,793.768 L320.424,791.512 L319.344,790.456 L314.424,794.632 L313.824,794.44 L316.944,778.24 L310.632,778.24 L310.368,779.848 L314.736,779.848 L312.048,793.816 C312,794.032 311.976,794.368 311.976,794.584 C311.976,795.568 312.48,796.288 313.776,796.288 Z M330.36,780.856 C331.32,780.856 331.824,780.424 331.944,779.704 C331.992,779.416 332.04,779.2 332.04,779.008 C332.04,778.504 331.68,778.048 330.648,778.048 C329.688,778.048 329.184,778.48 329.064,779.2 C329.016,779.488 328.968,779.704 328.968,779.896 C328.968,780.4 329.328,780.856 330.36,780.856 Z M328.728,796.288 C329.808,796.288 330.696,795.712 332.952,793.624 L335.136,791.608 L334.008,790.552 L329.28,794.632 L328.728,794.416 L330.816,783.616 L324.432,783.616 L324.168,785.224 L328.632,785.224 L327,793.672 C326.952,793.96 326.88,794.32 326.88,794.632 C326.88,795.592 327.528,796.288 328.728,796.288 Z M343.032,796.288 C346.344,796.288 348.576,794.704 348.576,792.136 C348.576,789.688 346.536,789.304 344.952,789.04 L343.2,788.752 C342.192,788.584 341.28,788.32 341.28,787.12 C341.28,785.776 342.408,784.912 344.544,784.912 C346.632,784.912 347.64,785.728 348.072,786.376 L349.392,785.224 C348.456,784.048 346.92,783.328 344.76,783.328 C341.832,783.328 339.456,784.648 339.456,787.264 C339.456,789.568 341.328,790.168 343.128,790.432 L344.928,790.696 C345.936,790.84 346.728,791.176 346.728,792.328 C346.728,793.816 345.384,794.704 343.2,794.704 C341.328,794.704 340.104,794.056 339.144,792.856 L337.752,793.96 C338.832,795.448 340.632,796.288 343.032,796.288 Z M356.736,796.288 C357.72,796.288 358.68,795.784 360.912,794.2 L363.624,792.28 L362.688,791.08 L357.288,794.68 L356.808,794.392 L358.344,785.224 L363.456,785.224 L363.72,783.616 L358.608,783.616 L359.352,779.248 L357.576,779.248 L357.024,782.488 C356.88,783.328 356.496,783.616 355.68,783.616 L353.16,783.616 L352.896,785.224 L356.472,785.224 L355.032,793.576 C354.984,793.84 354.96,794.296 354.96,794.512 C354.96,795.664 355.608,796.288 356.736,796.288 Z M372.048,796.288 C374.664,796.288 376.344,795.04 377.736,792.76 L376.416,791.944 C375.024,793.912 373.992,794.68 372.216,794.68 C369.624,794.68 369.12,793.072 369.12,791.344 L369.12056,791.255557 C369.121959,791.147102 369.126857,790.963429 369.144,790.792 C377.04,790.576 378.168,788.416 378.168,786.664 C378.168,784.504 376.392,783.328 373.968,783.328 C369.984,783.328 367.152,786.496 367.152,790.984 C367.152,794.536 368.928,796.288 372.048,796.288 Z M369.288,789.496 L369.312,789.256 C369.672,786.448 371.304,784.888 373.8,784.888 C375.6,784.888 376.248,785.728 376.248,786.736 C376.248,787.936 375.336,789.304 369.288,789.496 Z M397.536,796 L398.928,789.088 C399.12,788.128 399.72,786.856 400.608,785.968 C401.184,785.392 401.904,785.008 402.744,785.008 C403.92,785.008 404.472,785.704 404.472,786.976 C404.472,787.384 404.424,787.888 404.328,788.368 L402.792,796 L404.64,796 L406.032,789.088 C406.224,788.08 406.776,786.784 407.568,785.992 C408.24,785.32 408.888,785.008 409.656,785.008 C410.976,785.008 411.552,785.704 411.552,787.024 C411.552,787.408 411.504,787.864 411.408,788.344 L410.256,794.08 C410.208,794.32 410.184,794.464 410.184,794.632 C410.184,795.568 410.808,796 411.768,796 L413.496,796 L413.808,794.368 L412.056,794.368 L413.256,788.344 C413.376,787.744 413.424,787.216 413.424,786.736 C413.424,784.576 412.368,783.328 410.304,783.328 C408.48,783.328 407.28,784.216 406.44,786.064 L406.296,786.064 C406.104,784.36 405.144,783.328 403.416,783.328 C401.616,783.328 400.512,784.216 399.648,786.064 L399.528,786.064 L400.032,783.616 L398.184,783.616 L395.688,796 L397.536,796 Z M423.96,780.856 C424.92,780.856 425.424,780.424 425.544,779.704 C425.592,779.416 425.64,779.2 425.64,779.008 C425.64,778.504 425.28,778.048 424.248,778.048 C423.288,778.048 422.784,778.48 422.664,779.2 C422.616,779.488 422.568,779.704 422.568,779.896 C422.568,780.4 422.928,780.856 423.96,780.856 Z M422.328,796.288 C423.408,796.288 424.296,795.712 426.552,793.624 L428.736,791.608 L427.608,790.552 L422.88,794.632 L422.328,794.416 L424.416,783.616 L418.032,783.616 L417.768,785.224 L422.232,785.224 L420.6,793.672 C420.552,793.96 420.48,794.32 420.48,794.632 C420.48,795.592 421.128,796.288 422.328,796.288 Z M435.936,796.288 C436.92,796.288 437.88,795.784 440.112,794.2 L442.824,792.28 L441.888,791.08 L436.488,794.68 L436.008,794.392 L437.544,785.224 L442.656,785.224 L442.92,783.616 L437.808,783.616 L438.552,779.248 L436.776,779.248 L436.224,782.488 C436.08,783.328 435.696,783.616 434.88,783.616 L432.36,783.616 L432.096,785.224 L435.672,785.224 L434.232,793.576 C434.184,793.84 434.16,794.296 434.16,794.512 C434.16,795.664 434.808,796.288 435.936,796.288 Z M466.152,796 L468.672,780.976 L474.288,780.976 L474.576,779.248 L461.376,779.248 L461.088,780.976 L466.704,780.976 L464.184,796 L466.152,796 Z M480.048,796.288 C482.664,796.288 484.344,795.04 485.736,792.76 L484.416,791.944 C483.024,793.912 481.992,794.68 480.216,794.68 C477.624,794.68 477.12,793.072 477.12,791.344 L477.12056,791.255557 C477.121959,791.147102 477.126857,790.963429 477.144,790.792 C485.04,790.576 486.168,788.416 486.168,786.664 C486.168,784.504 484.392,783.328 481.968,783.328 C477.984,783.328 475.152,786.496 475.152,790.984 C475.152,794.536 476.928,796.288 480.048,796.288 Z M477.288,789.496 L477.312,789.256 C477.672,786.448 479.304,784.888 481.8,784.888 C483.6,784.888 484.248,785.728 484.248,786.736 C484.248,787.936 483.336,789.304 477.288,789.496 Z M493.008,796.288 C495.192,796.288 496.44,795.016 497.4,793.072 L497.472,793.072 L496.992,796 L498.864,796 L500.928,783.616 L499.056,783.616 L498.696,785.776 L498.624,785.776 C498.096,784.168 496.824,783.328 495,783.328 C490.632,783.328 489.144,788.176 489.144,791.488 C489.144,794.656 490.512,796.288 493.008,796.288 Z M493.656,794.632 C491.928,794.632 491.04,793.528 491.04,791.68 C491.04,791.368 491.064,791.032 491.136,790.6 L491.424,788.872 C491.808,786.568 493.176,784.984 495.552,784.984 C497.4,784.984 498.672,785.968 498.384,787.696 L497.928,790.432 C497.736,791.584 497.184,792.568 496.56,793.264 C495.696,794.224 494.688,794.632 493.656,794.632 Z M508.632,796.288 C511.944,796.288 514.176,794.704 514.176,792.136 C514.176,789.688 512.136,789.304 510.552,789.04 L508.8,788.752 C507.792,788.584 506.88,788.32 506.88,787.12 C506.88,785.776 508.008,784.912 510.144,784.912 C512.232,784.912 513.24,785.728 513.672,786.376 L514.992,785.224 C514.056,784.048 512.52,783.328 510.36,783.328 C507.432,783.328 505.056,784.648 505.056,787.264 C505.056,789.568 506.928,790.168 508.728,790.432 L510.528,790.696 C511.536,790.84 512.328,791.176 512.328,792.328 C512.328,793.816 510.984,794.704 508.8,794.704 C506.928,794.704 505.704,794.056 504.744,792.856 L503.352,793.96 C504.432,795.448 506.232,796.288 508.632,796.288 Z M523.248,796.288 C525.864,796.288 527.544,795.04 528.936,792.76 L527.616,791.944 C526.224,793.912 525.192,794.68 523.416,794.68 C520.824,794.68 520.32,793.072 520.32,791.344 L520.32056,791.255557 C520.321959,791.147102 520.326857,790.963429 520.344,790.792 C528.24,790.576 529.368,788.416 529.368,786.664 C529.368,784.504 527.592,783.328 525.168,783.328 C521.184,783.328 518.352,786.496 518.352,790.984 C518.352,794.536 520.128,796.288 523.248,796.288 Z M520.488,789.496 L520.512,789.256 C520.872,786.448 522.504,784.888 525,784.888 C526.8,784.888 527.448,785.728 527.448,786.736 C527.448,787.936 526.536,789.304 520.488,789.496 Z M537.144,796 L538.224,789.544 C538.464,788.104 539.328,787.096 539.64,786.736 C540.384,785.872 541.272,785.488 542.712,785.488 L544.824,785.488 L545.136,783.616 L543.264,783.616 C540.888,783.616 539.64,784.96 538.776,786.928 L538.656,786.928 L539.208,783.616 L533.856,783.616 L533.592,785.224 L537.072,785.224 L535.272,796 L537.144,796 Z M548.688,796 L549.84,789.16 C550.08,787.744 550.992,786.64 551.256,786.328 C551.952,785.512 552.792,784.984 553.872,784.984 C555.264,784.984 555.936,785.896 555.936,787.36 C555.936,787.624 555.912,788.104 555.816,788.68 L554.592,796 L556.464,796 L557.712,788.512 C557.808,787.96 557.856,787.384 557.856,786.904 C557.856,784.648 556.56,783.328 554.496,783.328 C552.504,783.328 551.28,784.576 550.368,786.544 L550.272,786.544 L550.752,783.616 L548.88,783.616 L546.816,796 L548.688,796 Z" id="MERKWRDIGES&amp;ANDERES1-2AngerisseneThemenLinklistemitTeasern" fill="#000000" fill-rule="nonzero"></path>
        <line x1="69.5" y1="220.5" x2="740.5" y2="220.5" id="Line-Copy" stroke="#979797" stroke-linecap="square"></line>
        <line x1="69.5" y1="632.5" x2="740.5" y2="632.5" id="Line" stroke="#979797" stroke-linecap="square"></line>
    </g>
</svg>