<?xml version="1.0" encoding="UTF-8"?>
<svg width="800px" height="500px" viewBox="0 0 800 500" version="1.1" xmlns="http://www.w3.org/2000/svg" xmlns:xlink="http://www.w3.org/1999/xlink">
    <!-- Generator: Sketch 60.1 (88133) - https://sketch.com -->
    <title>Newsletter</title>
    <desc>Created with Sketch.</desc>
    <g id="Newsletter" stroke="none" stroke-width="1" fill="none" fill-rule="evenodd">
        <g id="Group" transform="translate(166.000000, 25.000000)" stroke="#979797">
            <circle id="Oval" cx="138" cy="138" r="138"></circle>
            <circle id="Oval-Copy" cx="330.9375" cy="138" r="138"></circle>
            <circle id="Oval-Copy-2" cx="234" cy="312" r="138"></circle>
        </g>
        <path d="M231.152,156 L233.672,140.976 L239.288,140.976 L239.576,139.248 L226.376,139.248 L226.088,140.976 L231.704,140.976 L229.184,156 L231.152,156 Z M245.048,156.288 C247.664,156.288 249.344,155.04 250.736,152.76 L249.416,151.944 C248.024,153.912 246.992,154.68 245.216,154.68 C242.624,154.68 242.12,153.072 242.12,151.344 L242.12056,151.255557 C242.121959,151.147102 242.126857,150.963429 242.144,150.792 C250.04,150.576 251.168,148.416 251.168,146.664 C251.168,144.504 249.392,143.328 246.968,143.328 C242.984,143.328 240.152,146.496 240.152,150.984 C240.152,154.536 241.928,156.288 245.048,156.288 Z M242.288,149.496 L242.312,149.256 C242.672,146.448 244.304,144.888 246.8,144.888 C248.6,144.888 249.248,145.728 249.248,146.736 C249.248,147.936 248.336,149.304 242.288,149.496 Z M259.28,156.288 C261.872,156.288 263.432,154.944 264.992,152.424 L263.648,151.632 C261.68,154.344 260.624,154.656 259.52,154.656 C257.72,154.656 256.496,153.672 256.496,151.56 C256.496,151.248 256.52,150.984 256.616,150.408 L256.856,148.968 C257.288,146.376 258.656,144.96 260.768,144.96 C262.304,144.96 263.216,145.416 263.696,146.928 L265.304,146.304 C264.872,144.672 263.6,143.328 260.984,143.328 C257.456,143.328 254.6,146.328 254.6,151.056 C254.6,154.152 256.208,156.288 259.28,156.288 Z M270.488,156 L271.64,149.16 C271.88,147.744 272.792,146.64 273.056,146.328 C273.752,145.512 274.592,144.984 275.672,144.984 C277.064,144.984 277.736,145.896 277.736,147.36 C277.736,147.624 277.712,148.104 277.616,148.68 L276.392,156 L278.264,156 L279.512,148.512 C279.608,147.96 279.656,147.384 279.656,146.904 C279.656,144.648 278.36,143.328 276.296,143.328 C274.304,143.328 273.08,144.576 272.168,146.544 L272.072,146.544 L273.464,138.24 L271.592,138.24 L268.616,156 L270.488,156 Z" id="Tech" fill="#FD675E" fill-rule="nonzero"></path>
        <path d="M486.16,174 L488.968,159.96 L489.088,159.96 L490.12,162.744 L492.592,170.016 L497.92,162.744 L499.984,159.936 L500.104,159.936 L497.248,174 L499.168,174 L502.528,157.248 L499.816,157.248 L493.264,166.344 L493.192,166.344 L490.12,157.248 L487.6,157.248 L484.24,174 L486.16,174 Z M510.448,174.288 C513.064,174.288 514.744,173.04 516.136,170.76 L514.816,169.944 C513.424,171.912 512.392,172.68 510.616,172.68 C508.024,172.68 507.52,171.072 507.52,169.344 C507.52,169.296 507.52,169.032 507.544,168.792 C515.44,168.576 516.568,166.416 516.568,164.664 C516.568,162.504 514.792,161.328 512.368,161.328 C508.384,161.328 505.552,164.496 505.552,168.984 C505.552,172.536 507.328,174.288 510.448,174.288 Z M507.688,167.496 L507.712,167.256 C508.072,164.448 509.704,162.888 512.2,162.888 C514,162.888 514.648,163.728 514.648,164.736 C514.648,165.936 513.736,167.304 507.688,167.496 Z M523.408,174.288 C525.592,174.288 526.84,173.016 527.8,171.072 L527.872,171.072 L527.392,174 L529.264,174 L532.24,156.24 L530.368,156.24 L529.096,163.776 L529.024,163.776 C528.496,162.168 527.224,161.328 525.4,161.328 C521.032,161.328 519.544,166.176 519.544,169.488 C519.544,172.656 520.912,174.288 523.408,174.288 Z M524.056,172.632 C522.328,172.632 521.44,171.528 521.44,169.68 C521.44,169.368 521.464,169.032 521.536,168.6 L521.824,166.872 C522.208,164.568 523.576,162.984 525.952,162.984 C527.8,162.984 529.072,163.968 528.784,165.696 L528.328,168.432 C528.136,169.584 527.584,170.568 526.96,171.264 C526.096,172.224 525.088,172.632 524.056,172.632 Z M540.76,158.856 C541.72,158.856 542.224,158.424 542.344,157.704 C542.392,157.416 542.44,157.2 542.44,157.008 C542.44,156.504 542.08,156.048 541.048,156.048 C540.088,156.048 539.584,156.48 539.464,157.2 C539.416,157.488 539.368,157.704 539.368,157.896 C539.368,158.4 539.728,158.856 540.76,158.856 Z M539.128,174.288 C540.208,174.288 541.096,173.712 543.352,171.624 L545.536,169.608 L544.408,168.552 L539.68,172.632 L539.128,172.416 L541.216,161.616 L534.832,161.616 L534.568,163.224 L539.032,163.224 L537.4,171.672 C537.352,171.96 537.28,172.32 537.28,172.632 C537.28,173.592 537.928,174.288 539.128,174.288 Z M553.648,174.288 C556.264,174.288 557.944,173.04 559.336,170.76 L558.016,169.944 C556.624,171.912 555.592,172.68 553.816,172.68 C551.224,172.68 550.72,171.072 550.72,169.344 L550.72056,169.255557 C550.721959,169.147102 550.726857,168.963429 550.744,168.792 C558.64,168.576 559.768,166.416 559.768,164.664 C559.768,162.504 557.992,161.328 555.568,161.328 C551.584,161.328 548.752,164.496 548.752,168.984 C548.752,172.536 550.528,174.288 553.648,174.288 Z M550.888,167.496 L550.912,167.256 C551.272,164.448 552.904,162.888 555.4,162.888 C557.2,162.888 557.848,163.728 557.848,164.736 C557.848,165.936 556.936,167.304 550.888,167.496 Z M564.688,174 L565.84,167.16 C566.08,165.744 566.992,164.64 567.256,164.328 C567.952,163.512 568.792,162.984 569.872,162.984 C571.264,162.984 571.936,163.896 571.936,165.36 C571.936,165.624 571.912,166.104 571.816,166.68 L570.592,174 L572.464,174 L573.712,166.512 C573.808,165.96 573.856,165.384 573.856,164.904 C573.856,162.648 572.56,161.328 570.496,161.328 C568.504,161.328 567.28,162.576 566.368,164.544 L566.272,164.544 L566.752,161.616 L564.88,161.616 L562.816,174 L564.688,174 Z" id="Medien" fill="#FD675E" fill-rule="nonzero"></path>
        <path d="M309.92,375.952 L312.728,361.912 L312.848,361.912 L313.88,364.696 L316.352,371.968 L321.68,364.696 L323.744,361.888 L323.864,361.888 L321.008,375.952 L322.928,375.952 L326.288,359.2 L323.576,359.2 L317.024,368.296 L316.952,368.296 L313.88,359.2 L311.36,359.2 L308,375.952 L309.92,375.952 Z M334.208,376.24 C336.824,376.24 338.504,374.992 339.896,372.712 L338.576,371.896 C337.184,373.864 336.152,374.632 334.376,374.632 C331.784,374.632 331.28,373.024 331.28,371.296 C331.28,371.248 331.28,370.984 331.304,370.744 C339.2,370.528 340.328,368.368 340.328,366.616 C340.328,364.456 338.552,363.28 336.128,363.28 C332.144,363.28 329.312,366.448 329.312,370.936 C329.312,374.488 331.088,376.24 334.208,376.24 Z M331.448,369.448 L331.472,369.208 C331.832,366.4 333.464,364.84 335.96,364.84 C337.76,364.84 338.408,365.68 338.408,366.688 C338.408,367.888 337.496,369.256 331.448,369.448 Z M348.104,375.952 L349.184,369.496 C349.424,368.056 350.288,367.048 350.6,366.688 C351.344,365.824 352.232,365.44 353.672,365.44 L355.784,365.44 L356.096,363.568 L354.224,363.568 C351.848,363.568 350.6,364.912 349.736,366.88 L349.616,366.88 L350.168,363.568 L344.816,363.568 L344.552,365.176 L348.032,365.176 L346.232,375.952 L348.104,375.952 Z M365.456,376.24 C366.368,376.24 367.088,375.712 368.336,374.464 L370.04,372.76 L369.008,371.68 L365.816,374.608 L365.504,374.56 L363.8,370.84 C368,369.808 368.816,367.816 368.816,366.328 C368.816,364.48 367.544,363.28 365.576,363.28 C363.512,363.28 362.216,364.6 361.328,366.496 L361.232,366.496 L362.624,358.192 L360.752,358.192 L357.776,375.952 L359.648,375.952 L360.8,369.112 C360.968,368.08 361.472,367.168 362.168,366.304 C362.84,365.488 363.656,364.888 364.88,364.888 C366.176,364.888 366.896,365.56 366.896,366.688 C366.896,368.152 365.672,369.52 361.664,370.504 L363.608,374.728 C364.112,375.832 364.64,376.24 365.456,376.24 Z M376.736,375.952 L381.824,366.088 L381.944,366.088 L383.192,375.952 L385.424,375.952 L391.544,363.568 L389.744,363.568 L384.632,374.08 L384.512,374.08 L383.216,363.568 L381.416,363.568 L375.968,374.176 L375.848,374.176 L375.488,363.568 L373.712,363.568 L374.384,375.952 L376.736,375.952 Z M398.744,361.096 C399.704,361.096 400.016,360.688 400.16,360.064 C400.208,359.848 400.256,359.632 400.256,359.464 C400.256,359.008 399.944,358.6 399.008,358.6 C398.048,358.6 397.736,359.008 397.592,359.632 C397.544,359.848 397.496,360.064 397.496,360.232 C397.496,360.688 397.808,361.096 398.744,361.096 Z M403.208,361.096 C404.168,361.096 404.48,360.688 404.624,360.064 C404.672,359.848 404.72,359.632 404.72,359.464 C404.72,359.008 404.408,358.6 403.472,358.6 C402.512,358.6 402.2,359.008 402.056,359.632 C402.008,359.848 401.96,360.064 401.96,360.232 C401.96,360.688 402.272,361.096 403.208,361.096 Z M397.712,376.24 C399.704,376.24 400.928,374.992 401.84,373.024 L401.936,373.024 L401.456,375.952 L403.328,375.952 L405.392,363.568 L403.52,363.568 L402.368,370.408 C402.128,371.824 401.216,372.928 400.952,373.24 C400.256,374.056 399.416,374.584 398.336,374.584 C396.944,374.584 396.272,373.672 396.272,372.208 C396.272,371.944 396.296,371.464 396.392,370.888 L397.616,363.568 L395.744,363.568 L394.496,371.056 C394.4,371.608 394.352,372.184 394.352,372.664 C394.352,374.92 395.648,376.24 397.712,376.24 Z M412.904,375.952 L413.984,369.496 C414.224,368.056 415.088,367.048 415.4,366.688 C416.144,365.824 417.032,365.44 418.472,365.44 L420.584,365.44 L420.896,363.568 L419.024,363.568 C416.648,363.568 415.4,364.912 414.536,366.88 L414.416,366.88 L414.968,363.568 L409.616,363.568 L409.352,365.176 L412.832,365.176 L411.032,375.952 L412.904,375.952 Z M426.368,376.24 C428.552,376.24 429.8,374.968 430.76,373.024 L430.832,373.024 L430.352,375.952 L432.224,375.952 L435.2,358.192 L433.328,358.192 L432.056,365.728 L431.984,365.728 C431.456,364.12 430.184,363.28 428.36,363.28 C423.992,363.28 422.504,368.128 422.504,371.44 C422.504,374.608 423.872,376.24 426.368,376.24 Z M427.016,374.584 C425.288,374.584 424.4,373.48 424.4,371.632 C424.4,371.32 424.424,370.984 424.496,370.552 L424.784,368.824 C425.168,366.52 426.536,364.936 428.912,364.936 C430.76,364.936 432.032,365.92 431.744,367.648 L431.288,370.384 C431.096,371.536 430.544,372.52 429.92,373.216 C429.056,374.176 428.048,374.584 427.016,374.584 Z M443.72,360.808 C444.68,360.808 445.184,360.376 445.304,359.656 C445.352,359.368 445.4,359.152 445.4,358.96 C445.4,358.456 445.04,358 444.008,358 C443.048,358 442.544,358.432 442.424,359.152 C442.376,359.44 442.328,359.656 442.328,359.848 C442.328,360.352 442.688,360.808 443.72,360.808 Z M442.088,376.24 C443.168,376.24 444.056,375.664 446.312,373.576 L448.496,371.56 L447.368,370.504 L442.64,374.584 L442.088,374.368 L444.176,363.568 L437.792,363.568 L437.528,365.176 L441.992,365.176 L440.36,373.624 C440.312,373.912 440.24,374.272 440.24,374.584 C440.24,375.544 440.888,376.24 442.088,376.24 Z M455.048,381.04 C458.144,381.04 460.4,379.6 461.024,375.952 L463.088,363.568 L461.216,363.568 L460.856,365.728 L460.784,365.728 C460.256,364.12 458.984,363.28 457.16,363.28 C452.888,363.28 451.328,367.936 451.328,371.128 C451.328,374.152 452.672,375.832 455.216,375.832 C457.4,375.832 458.696,374.608 459.632,372.616 L459.728,372.616 L459.224,375.592 C458.768,378.328 457.424,379.384 455.168,379.384 C453.656,379.384 452.648,378.904 452,378.088 L450.704,379.336 C451.592,380.44 453.056,381.04 455.048,381.04 Z M455.864,374.176 C454.136,374.176 453.248,373.096 453.248,371.128 C453.248,370.792 453.296,370.504 453.368,370.072 L453.584,368.776 C453.968,366.472 455.384,364.936 457.712,364.936 C459.56,364.936 460.832,365.92 460.544,367.648 L460.16,370 C459.944,371.344 459.248,372.304 458.792,372.808 C457.904,373.792 456.896,374.176 455.864,374.176 Z M471.008,376.24 C473.624,376.24 475.304,374.992 476.696,372.712 L475.376,371.896 C473.984,373.864 472.952,374.632 471.176,374.632 C468.584,374.632 468.08,373.024 468.08,371.296 L468.08056,371.207557 C468.081959,371.099102 468.086857,370.915429 468.104,370.744 C476,370.528 477.128,368.368 477.128,366.616 C477.128,364.456 475.352,363.28 472.928,363.28 C468.944,363.28 466.112,366.448 466.112,370.936 C466.112,374.488 467.888,376.24 471.008,376.24 Z M468.248,369.448 L468.272,369.208 C468.632,366.4 470.264,364.84 472.76,364.84 C474.56,364.84 475.208,365.68 475.208,366.688 C475.208,367.888 474.296,369.256 468.248,369.448 Z M485.192,376.24 C488.504,376.24 490.736,374.656 490.736,372.088 C490.736,369.64 488.696,369.256 487.112,368.992 L485.36,368.704 C484.352,368.536 483.44,368.272 483.44,367.072 C483.44,365.728 484.568,364.864 486.704,364.864 C488.792,364.864 489.8,365.68 490.232,366.328 L491.552,365.176 C490.616,364 489.08,363.28 486.92,363.28 C483.992,363.28 481.616,364.6 481.616,367.216 C481.616,369.52 483.488,370.12 485.288,370.384 L487.088,370.648 C488.096,370.792 488.888,371.128 488.888,372.28 C488.888,373.768 487.544,374.656 485.36,374.656 C483.488,374.656 482.264,374.008 481.304,372.808 L479.912,373.912 C480.992,375.4 482.792,376.24 485.192,376.24 Z" id="Merkwürdiges" fill="#FD675E" fill-rule="nonzero"></path>
        <circle id="Oval" fill="#000000" cx="400" cy="224" r="8"></circle>
    </g>
</svg>