<?xml version="1.0" encoding="UTF-8"?>
<svg width="500px" height="500px" viewBox="0 0 500 500" version="1.1" xmlns="http://www.w3.org/2000/svg" xmlns:xlink="http://www.w3.org/1999/xlink">
    <!-- Generator: Sketch 60.1 (88133) - https://sketch.com -->
    <title>Artboard</title>
    <desc>Created with Sketch.</desc>
    <g id="Artboard" stroke="none" stroke-width="1" fill="none" fill-rule="evenodd">
        <g id="Group" transform="translate(13.523691, 34.000000)" fill-rule="nonzero">
            <path d="M250.846859,2 L250.846309,132.776 L343.082746,40.5408255 L392.238073,89.6961518 L299.304309,182.629 L431.476309,182.62945 L431.476309,252.37055 L299.304309,252.37 L392.238073,345.303848 L343.082746,394.459174 L250.846309,302.223 L250.846859,433 L181.105759,433 L181.105309,300.828 L87.47505,394.459174 L38.3197238,345.303848 L131.252309,252.37 L0.476309227,252.37055 L0.476309227,182.62945 L131.252309,182.629 L38.3197238,89.6961518 L87.47505,40.5408255 L181.105309,134.171 L181.105759,2 L250.846859,2 Z" id="Combined-Shape" fill="#828300"></path>
            <polygon id="1" fill="#252525" points="455.476309 45 455.476309 15 455.158202 15 442.476309 19.5535714 442.476309 23.8804945 450.365379 21.0782967 450.365379 45"></polygon>
            <path d="M450.976309,0 C438.910929,0 429.476309,13.5582107 429.476309,30 C429.476309,46.4417893 438.910929,60 450.976309,60 C463.04169,60 472.476309,46.4417893 472.476309,30 C472.476309,13.5582107 463.04169,0 450.976309,0 Z M450.976309,4.18604651 C460.360956,4.18604651 468.315019,15.6165939 468.315019,30 C468.315019,44.3834061 460.360956,55.8139535 450.976309,55.8139535 C441.591663,55.8139535 433.6376,44.3834061 433.6376,30 C433.6376,15.6165939 441.591663,4.18604651 450.976309,4.18604651 Z" id="Oval" fill="#000000"></path>
        </g>
    </g>
</svg>