<?xml version="1.0" encoding="UTF-8" standalone="no"?>
<!DOCTYPE svg PUBLIC "-//W3C//DTD SVG 1.1//EN" "http://www.w3.org/Graphics/SVG/1.1/DTD/svg11.dtd">
<svg width="100%" height="100%" viewBox="0 0 500 500" version="1.1" xmlns="http://www.w3.org/2000/svg" xmlns:xlink="http://www.w3.org/1999/xlink" xml:space="preserve" xmlns:serif="http://www.serif.com/" style="fill-rule:evenodd;clip-rule:evenodd;stroke-linejoin:round;stroke-miterlimit:2;">
    <g transform="matrix(1,0,0,1,-1.71527,0)">
        <g transform="matrix(17.6857,0,0,17.5643,-14.6923,-178.388)">
            <path d="M9.399,23.682C8.276,24.154 8.276,24.618 9.399,25.073C10.457,25.529 11.442,26.204 12.354,27.1C13.232,27.979 13.908,28.971 14.38,30.078C14.819,31.169 15.267,31.201 15.723,30.078C16.146,29.036 16.829,28.044 17.773,27.1C18.62,26.221 19.596,25.545 20.703,25.073C21.81,24.618 21.81,24.154 20.703,23.682C19.596,23.21 18.62,22.534 17.773,21.655C16.829,20.711 16.146,19.727 15.723,18.701C15.267,17.562 14.819,17.611 14.38,18.701C13.908,19.792 13.232,20.776 12.354,21.655C11.442,22.55 10.457,23.226 9.399,23.682ZM0.928,24.39C2.816,24.39 4.622,24.023 6.348,23.291C7.975,22.607 9.489,21.574 10.889,20.19C12.256,18.84 13.298,17.318 14.014,15.625C14.697,13.949 15.039,12.126 15.039,10.156C15.039,12.077 15.389,13.9 16.089,15.625C16.74,17.22 17.782,18.742 19.214,20.19C20.532,21.541 22.054,22.575 23.779,23.291C25.472,24.023 27.279,24.39 29.199,24.39C27.279,24.39 25.472,24.748 23.779,25.464C22.054,26.196 20.532,27.23 19.214,28.564C17.782,30.029 16.74,31.559 16.089,33.154C15.389,34.88 15.039,36.702 15.039,38.623C15.039,36.654 14.697,34.831 14.014,33.154C13.298,31.462 12.256,29.932 10.889,28.564C9.489,27.181 7.975,26.147 6.348,25.464C4.622,24.748 2.816,24.39 0.928,24.39Z" style="fill:rgb(0,110,129);fill-rule:nonzero;"/>
        </g>
    </g>
</svg>
