<?xml version="1.0" encoding="UTF-8"?>
<svg width="800px" height="800px" viewBox="0 0 800 800" version="1.1" xmlns="http://www.w3.org/2000/svg" xmlns:xlink="http://www.w3.org/1999/xlink">
    <!-- Generator: Sketch 60.1 (88133) - https://sketch.com -->
    <title>Artboard</title>
    <desc>Created with Sketch.</desc>
    <g id="Artboard" stroke="none" stroke-width="1" fill="none" fill-rule="evenodd">
        <polygon id="Line" fill="#000000" fill-rule="nonzero" points="393.5 743.5 393.5 741.5 399.5 741.5 399.5 62.5 393.5 62.5 393.5 60.5 407.5 60.5 407.5 62.5 401.5 62.5 401.5 741.5 407.5 741.5 407.5 743.5"></polygon>
        <polygon id="Line" fill="#000000" fill-rule="nonzero" points="393.5 743.5 393.5 741.5 399.5 741.5 399.5 62.5 393.5 62.5 393.5 60.5 407.5 60.5 407.5 62.5 401.5 62.5 401.5 741.5 407.5 741.5 407.5 743.5"></polygon>
        <polygon id="Line" fill="#000000" fill-rule="nonzero" points="393.5 743.5 393.5 741.5 399.5 741.5 399.5 62.5 393.5 62.5 393.5 60.5 407.5 60.5 407.5 62.5 401.5 62.5 401.5 741.5 407.5 741.5 407.5 743.5"></polygon>
        <polygon id="Line" fill="#000000" fill-rule="nonzero" transform="translate(400.500000, 402.000000) rotate(-90.000000) translate(-400.500000, -402.000000) " points="393.5 743.5 393.5 741.5 399.5 741.5 399.5 62.5 393.5 62.5 393.5 60.5 407.5 60.5 407.5 62.5 401.5 62.5 401.5 741.5 407.5 741.5 407.5 743.5"></polygon>
        <path d="M343.693359,42 L343.693359,36.3261719 L343.546875,30.59375 L345.958984,38.0449219 L346.994141,38.0449219 L349.621094,30.3886719 L349.474609,36.3261719 L349.474609,42 L351.232422,42 L351.232422,27.78125 L348.986328,27.78125 L346.486328,34.890625 L344.171875,27.78125 L341.935547,27.78125 L341.935547,42 L343.693359,42 Z M355.089844,42 L356.232422,38.3183594 L360.978516,38.3183594 L362.101562,42 L363.898438,42 L359.386719,27.78125 L357.873047,27.78125 L353.283203,42 L355.089844,42 Z M360.5,36.7460938 L356.720703,36.7460938 L358.625,30.5742188 L360.5,36.7460938 Z M367.716797,42 L367.746094,31.375 L373.263672,42 L375.099609,42 L375.099609,27.78125 L373.273438,27.78125 L373.244141,38.3867188 L367.726562,27.78125 L365.890625,27.78125 L365.890625,42 L367.716797,42 Z M379.09375,42 L380.236328,38.3183594 L384.982422,38.3183594 L386.105469,42 L387.902344,42 L383.390625,27.78125 L381.876953,27.78125 L377.287109,42 L379.09375,42 Z M384.503906,36.7460938 L380.724609,36.7460938 L382.628906,30.5742188 L384.503906,36.7460938 Z M394.787109,42.1953125 C395.711589,42.2018229 396.561198,42.0358073 397.335938,41.6972656 C398.110677,41.358724 398.797526,40.8378906 399.396484,40.1347656 L399.396484,40.1347656 L399.367188,34.9199219 L394.757812,34.9199219 L394.757812,36.4433594 L397.648438,36.4433594 L397.628906,39.6367188 C397.479167,39.8515625 397.29362,40.0257161 397.072266,40.1591797 C396.850911,40.2926432 396.613281,40.3984375 396.359375,40.4765625 C396.105469,40.5546875 395.843424,40.6067708 395.573242,40.6328125 C395.30306,40.6588542 395.044271,40.6686198 394.796875,40.6621094 C394.367188,40.655599 393.983073,40.5791016 393.644531,40.4326172 C393.30599,40.2861328 393.008138,40.0891927 392.750977,39.8417969 C392.493815,39.594401 392.274089,39.3079427 392.091797,38.9824219 C391.909505,38.656901 391.759766,38.311849 391.642578,37.9472656 C391.525391,37.5826823 391.439128,37.2099609 391.383789,36.8291016 C391.328451,36.4482422 391.297526,36.078776 391.291016,35.7207031 L391.291016,35.7207031 L391.291016,34.0507812 C391.291016,33.6992188 391.313802,33.3346354 391.359375,32.9570312 C391.404948,32.5794271 391.479818,32.2083333 391.583984,31.84375 C391.688151,31.4791667 391.821615,31.132487 391.984375,30.8037109 C392.147135,30.4749349 392.352214,30.186849 392.599609,29.9394531 C392.847005,29.6920573 393.136719,29.4951172 393.46875,29.3486328 C393.800781,29.2021484 394.181641,29.1289062 394.611328,29.1289062 C395.060547,29.1289062 395.454427,29.1988932 395.792969,29.3388672 C396.13151,29.4788411 396.422852,29.672526 396.666992,29.9199219 C396.911133,30.1673177 397.108073,30.4651693 397.257812,30.8134766 C397.407552,31.1617839 397.518229,31.5410156 397.589844,31.9511719 L397.589844,31.9511719 L399.376953,31.9511719 C399.318359,31.2871094 399.162109,30.6865234 398.908203,30.1494141 C398.654297,29.6123047 398.31901,29.1533203 397.902344,28.7724609 C397.485677,28.3916016 396.997396,28.0986328 396.4375,27.8935547 C395.877604,27.6884766 395.265625,27.5859375 394.601562,27.5859375 C394.002604,27.5859375 393.46224,27.6738281 392.980469,27.8496094 C392.498698,28.0253906 392.067383,28.2646484 391.686523,28.5673828 C391.305664,28.8701172 390.978516,29.2281901 390.705078,29.6416016 C390.431641,30.055013 390.203776,30.5026042 390.021484,30.984375 C389.839193,31.4661458 389.704102,31.9690755 389.616211,32.4931641 C389.52832,33.0172526 389.48112,33.5429688 389.474609,34.0703125 L389.474609,34.0703125 L389.474609,35.7207031 C389.48112,36.2545573 389.534831,36.7835286 389.635742,37.3076172 C389.736654,37.8317057 389.886393,38.3330078 390.084961,38.8115234 C390.283529,39.2900391 390.529297,39.734375 390.822266,40.1445312 C391.115234,40.5546875 391.457031,40.9111328 391.847656,41.2138672 C392.238281,41.5166016 392.679362,41.7542318 393.170898,41.9267578 C393.662435,42.0992839 394.201172,42.1888021 394.787109,42.1953125 Z M411.007812,42 L411.007812,40.4667969 L404.083984,40.4667969 L404.083984,35.4277344 L410.021484,35.4277344 L410.021484,33.8945312 L404.083984,33.8945312 L404.083984,29.3242188 L410.919922,29.3242188 L410.919922,27.78125 L402.277344,27.78125 L402.277344,42 L411.007812,42 Z M415.705078,42 L415.705078,36.3261719 L415.558594,30.59375 L417.970703,38.0449219 L419.005859,38.0449219 L421.632812,30.3886719 L421.486328,36.3261719 L421.486328,42 L423.244141,42 L423.244141,27.78125 L420.998047,27.78125 L418.498047,34.890625 L416.183594,27.78125 L413.947266,27.78125 L413.947266,42 L415.705078,42 Z M435.011719,42 L435.011719,40.4667969 L428.087891,40.4667969 L428.087891,35.4277344 L434.025391,35.4277344 L434.025391,33.8945312 L428.087891,33.8945312 L428.087891,29.3242188 L434.923828,29.3242188 L434.923828,27.78125 L426.28125,27.78125 L426.28125,42 L435.011719,42 Z M439.728516,42 L439.757812,31.375 L445.275391,42 L447.111328,42 L447.111328,27.78125 L445.285156,27.78125 L445.255859,38.3867188 L439.738281,27.78125 L437.902344,27.78125 L437.902344,42 L439.728516,42 Z M455.402344,42 L455.402344,29.3242188 L459.796875,29.3242188 L459.796875,27.78125 L449.25,27.78125 L449.25,29.3242188 L453.644531,29.3242188 L453.644531,42 L455.402344,42 Z" id="MANAGEMENT" fill="#FD675E" fill-rule="nonzero"></path>
        <path d="M381.188477,778 L381.188477,776.466797 L374.235352,776.466797 L374.235352,763.78125 L372.428711,763.78125 L372.428711,778 L381.188477,778 Z M385.094727,778 L386.237305,774.318359 L390.983398,774.318359 L392.106445,778 L393.90332,778 L389.391602,763.78125 L387.87793,763.78125 L383.288086,778 L385.094727,778 Z M390.504883,772.746094 L386.725586,772.746094 L388.629883,766.574219 L390.504883,772.746094 Z M400.729492,778 C401.334961,777.99349 401.922526,777.899089 402.492188,777.716797 C403.061849,777.534505 403.564779,777.272461 404.000977,776.930664 C404.437174,776.588867 404.785482,776.164062 405.045898,775.65625 C405.306315,775.148438 405.433268,774.5625 405.426758,773.898438 C405.426758,773.47526 405.363281,773.08138 405.236328,772.716797 C405.109375,772.352214 404.931966,772.025065 404.704102,771.735352 C404.476237,771.445638 404.204427,771.198242 403.888672,770.993164 C403.572917,770.788086 403.226237,770.630208 402.848633,770.519531 C403.148112,770.389323 403.431315,770.233073 403.698242,770.050781 C403.965169,769.86849 404.197917,769.655273 404.396484,769.411133 C404.595052,769.166992 404.751302,768.891927 404.865234,768.585938 C404.979167,768.279948 405.039388,767.941406 405.045898,767.570312 C405.052409,766.90625 404.925456,766.336589 404.665039,765.861328 C404.404622,765.386068 404.056315,764.995443 403.620117,764.689453 C403.183919,764.383464 402.685872,764.157227 402.125977,764.010742 C401.566081,763.864258 400.993164,763.78776 400.407227,763.78125 L400.407227,763.78125 L396.178711,763.78125 L396.178711,778 L400.729492,778 Z M400.514648,769.845703 L397.995117,769.845703 L397.995117,765.324219 L400.46582,765.324219 C400.817383,765.330729 401.160807,765.376302 401.496094,765.460938 C401.83138,765.545573 402.127604,765.677409 402.384766,765.856445 C402.641927,766.035482 402.847005,766.264974 403,766.544922 C403.152995,766.82487 403.229492,767.163411 403.229492,767.560547 C403.229492,767.931641 403.151367,768.257161 402.995117,768.537109 C402.838867,768.817057 402.633789,769.05306 402.379883,769.245117 C402.125977,769.437174 401.836263,769.583659 401.510742,769.68457 C401.185221,769.785482 400.85319,769.839193 400.514648,769.845703 L400.514648,769.845703 Z M400.77832,776.466797 L397.995117,776.466797 L397.995117,771.349609 L400.875977,771.349609 C401.260091,771.36263 401.618164,771.427734 401.950195,771.544922 C402.282227,771.662109 402.57194,771.829753 402.819336,772.047852 C403.066732,772.265951 403.260417,772.53125 403.400391,772.84375 C403.540365,773.15625 403.607096,773.514323 403.600586,773.917969 C403.600586,774.315104 403.524089,774.669922 403.371094,774.982422 C403.218099,775.294922 403.011393,775.558594 402.750977,775.773438 C402.49056,775.988281 402.191081,776.155924 401.852539,776.276367 C401.513997,776.39681 401.155924,776.460286 400.77832,776.466797 L400.77832,776.466797 Z M412.506836,778.195312 C413.092773,778.195312 413.621745,778.105794 414.09375,777.926758 C414.565755,777.747721 414.984049,777.501953 415.348633,777.189453 C415.713216,776.876953 416.027344,776.51237 416.291016,776.095703 C416.554688,775.679036 416.771159,775.229818 416.94043,774.748047 C417.109701,774.266276 417.235026,773.766602 417.316406,773.249023 C417.397786,772.731445 417.441732,772.21875 417.448242,771.710938 L417.448242,771.710938 L417.448242,770.089844 C417.441732,769.582031 417.397786,769.067708 417.316406,768.546875 C417.235026,768.026042 417.108073,767.52474 416.935547,767.042969 C416.763021,766.561198 416.544922,766.110352 416.28125,765.69043 C416.017578,765.270508 415.703451,764.904297 415.338867,764.591797 C414.974284,764.279297 414.554362,764.033529 414.079102,763.854492 C413.603841,763.675456 413.073242,763.585938 412.487305,763.585938 C411.901367,763.585938 411.372396,763.675456 410.900391,763.854492 C410.428385,764.033529 410.010091,764.280924 409.645508,764.59668 C409.280924,764.912435 408.966797,765.280273 408.703125,765.700195 C408.439453,766.120117 408.221354,766.570964 408.048828,767.052734 C407.876302,767.534505 407.749349,768.03418 407.667969,768.551758 C407.586589,769.069336 407.542643,769.582031 407.536133,770.089844 L407.536133,770.089844 L407.536133,771.710938 C407.542643,772.21875 407.588216,772.729818 407.672852,773.244141 C407.757487,773.758464 407.886068,774.25651 408.058594,774.738281 C408.23112,775.220052 408.450846,775.670898 408.717773,776.09082 C408.984701,776.510742 409.300456,776.876953 409.665039,777.189453 C410.029622,777.501953 410.447917,777.747721 410.919922,777.926758 C411.391927,778.105794 411.920898,778.195312 412.506836,778.195312 Z M412.506836,776.603516 C412.083659,776.603516 411.712565,776.528646 411.393555,776.378906 C411.074544,776.229167 410.797852,776.028971 410.563477,775.77832 C410.329102,775.527669 410.133789,775.236328 409.977539,774.904297 C409.821289,774.572266 409.694336,774.225586 409.59668,773.864258 C409.499023,773.50293 409.429036,773.136719 409.386719,772.765625 C409.344401,772.394531 409.319987,772.042969 409.313477,771.710938 L409.313477,771.710938 L409.313477,770.070312 C409.319987,769.738281 409.344401,769.388346 409.386719,769.020508 C409.429036,768.652669 409.497396,768.288086 409.591797,767.926758 C409.686198,767.56543 409.811523,767.220378 409.967773,766.891602 C410.124023,766.562826 410.319336,766.273112 410.553711,766.022461 C410.788086,765.77181 411.064779,765.571615 411.383789,765.421875 C411.702799,765.272135 412.070638,765.197266 412.487305,765.197266 C412.910482,765.197266 413.281576,765.270508 413.600586,765.416992 C413.919596,765.563477 414.196289,765.762044 414.430664,766.012695 C414.665039,766.263346 414.860352,766.55306 415.016602,766.881836 C415.172852,767.210612 415.298177,767.555664 415.392578,767.916992 C415.486979,768.27832 415.553711,768.642904 415.592773,769.010742 C415.631836,769.378581 415.654622,769.731771 415.661133,770.070312 L415.661133,770.070312 L415.661133,771.710938 C415.654622,772.049479 415.633464,772.404297 415.597656,772.775391 C415.561849,773.146484 415.496745,773.512695 415.402344,773.874023 C415.307943,774.235352 415.184245,774.580404 415.03125,774.90918 C414.878255,775.237956 414.686198,775.527669 414.455078,775.77832 C414.223958,776.028971 413.947266,776.229167 413.625,776.378906 C413.302734,776.528646 412.930013,776.603516 412.506836,776.603516 Z M422.067383,778 L422.067383,772.199219 L424.90918,772.199219 L427.702148,778 L429.606445,778 L429.616211,777.882812 L426.598633,771.808594 C426.989258,771.639323 427.347331,771.434245 427.672852,771.193359 C427.998372,770.952474 428.27832,770.675781 428.512695,770.363281 C428.74707,770.050781 428.93099,769.702474 429.064453,769.318359 C429.197917,768.934245 429.264648,768.511068 429.264648,768.048828 C429.264648,767.332682 429.139323,766.70931 428.888672,766.178711 C428.638021,765.648112 428.292969,765.207031 427.853516,764.855469 C427.414062,764.503906 426.901367,764.240234 426.31543,764.064453 C425.729492,763.888672 425.104492,763.794271 424.44043,763.78125 L424.44043,763.78125 L420.270508,763.78125 L420.270508,778 L422.067383,778 Z M424.489258,770.714844 L422.067383,770.714844 L422.067383,765.265625 L424.44043,765.265625 C424.876628,765.272135 425.278646,765.333984 425.646484,765.451172 C426.014323,765.568359 426.331706,765.742513 426.598633,765.973633 C426.86556,766.204753 427.073893,766.491211 427.223633,766.833008 C427.373372,767.174805 427.448242,767.573568 427.448242,768.029297 C427.448242,768.458984 427.370117,768.838216 427.213867,769.166992 C427.057617,769.495768 426.844401,769.774089 426.574219,770.001953 C426.304036,770.229818 425.989909,770.403971 425.631836,770.524414 C425.273763,770.644857 424.892904,770.708333 424.489258,770.714844 L424.489258,770.714844 Z" id="LABOR" fill="#FD675E" fill-rule="nonzero"></path>
        <path d="M-36.9140625,410 L-35.7714844,406.318359 L-31.0253906,406.318359 L-29.9023438,410 L-28.1054688,410 L-32.6171875,395.78125 L-34.1308594,395.78125 L-38.7207031,410 L-36.9140625,410 Z M-31.5039062,404.746094 L-35.2832031,404.746094 L-33.3789062,398.574219 L-31.5039062,404.746094 Z M-21.5136719,410.195312 C-20.8365885,410.195312 -20.2148438,410.069987 -19.6484375,409.819336 C-19.0820312,409.568685 -18.59375,409.226888 -18.1835938,408.793945 C-17.7734375,408.361003 -17.4544271,407.854818 -17.2265625,407.275391 C-16.9986979,406.695964 -16.8782552,406.074219 -16.8652344,405.410156 L-16.8652344,405.410156 L-16.8847656,395.78125 L-18.6328125,395.78125 L-18.6621094,405.410156 C-18.6751302,405.833333 -18.7434896,406.240234 -18.8671875,406.630859 C-18.9908854,407.021484 -19.1715495,407.368164 -19.4091797,407.670898 C-19.6468099,407.973633 -19.9414062,408.214518 -20.2929688,408.393555 C-20.6445312,408.572591 -21.0514323,408.662109 -21.5136719,408.662109 C-21.9759115,408.662109 -22.3844401,408.570964 -22.7392578,408.388672 C-23.0940755,408.20638 -23.3902995,407.965495 -23.6279297,407.666016 C-23.8655599,407.366536 -24.0478516,407.021484 -24.1748047,406.630859 C-24.3017578,406.240234 -24.3684896,405.833333 -24.375,405.410156 L-24.375,405.410156 L-24.4140625,395.78125 L-26.1328125,395.78125 L-26.1523438,405.410156 C-26.1458333,406.074219 -26.0286458,406.697591 -25.8007812,407.280273 C-25.5729167,407.862956 -25.2571615,408.370768 -24.8535156,408.803711 C-24.4498698,409.236654 -23.9648438,409.576823 -23.3984375,409.824219 C-22.8320312,410.071615 -22.203776,410.195312 -21.5136719,410.195312 Z M-9.21875,410.195312 C-8.29427083,410.201823 -7.44466146,410.035807 -6.66992188,409.697266 C-5.89518229,409.358724 -5.20833333,408.837891 -4.609375,408.134766 L-4.609375,408.134766 L-4.63867188,402.919922 L-9.24804688,402.919922 L-9.24804688,404.443359 L-6.35742188,404.443359 L-6.37695312,407.636719 C-6.52669271,407.851562 -6.71223958,408.025716 -6.93359375,408.15918 C-7.15494792,408.292643 -7.39257812,408.398438 -7.64648438,408.476562 C-7.90039062,408.554688 -8.1624349,408.606771 -8.43261719,408.632812 C-8.70279948,408.658854 -8.96158854,408.66862 -9.20898438,408.662109 C-9.63867188,408.655599 -10.0227865,408.579102 -10.3613281,408.432617 C-10.6998698,408.286133 -10.9977214,408.089193 -11.2548828,407.841797 C-11.5120443,407.594401 -11.7317708,407.307943 -11.9140625,406.982422 C-12.0963542,406.656901 -12.2460938,406.311849 -12.3632812,405.947266 C-12.4804688,405.582682 -12.5667318,405.209961 -12.6220703,404.829102 C-12.6774089,404.448242 -12.7083333,404.078776 -12.7148438,403.720703 L-12.7148438,403.720703 L-12.7148438,402.050781 C-12.7148438,401.699219 -12.6920573,401.334635 -12.6464844,400.957031 C-12.6009115,400.579427 -12.5260417,400.208333 -12.421875,399.84375 C-12.3177083,399.479167 -12.1842448,399.132487 -12.0214844,398.803711 C-11.858724,398.474935 -11.6536458,398.186849 -11.40625,397.939453 C-11.1588542,397.692057 -10.8691406,397.495117 -10.5371094,397.348633 C-10.2050781,397.202148 -9.82421875,397.128906 -9.39453125,397.128906 C-8.9453125,397.128906 -8.55143229,397.198893 -8.21289062,397.338867 C-7.87434896,397.478841 -7.58300781,397.672526 -7.33886719,397.919922 C-7.09472656,398.167318 -6.89778646,398.465169 -6.74804688,398.813477 C-6.59830729,399.161784 -6.48763021,399.541016 -6.41601562,399.951172 L-6.41601562,399.951172 L-4.62890625,399.951172 C-4.6875,399.287109 -4.84375,398.686523 -5.09765625,398.149414 C-5.3515625,397.612305 -5.68684896,397.15332 -6.10351562,396.772461 C-6.52018229,396.391602 -7.00846354,396.098633 -7.56835938,395.893555 C-8.12825521,395.688477 -8.74023438,395.585938 -9.40429688,395.585938 C-10.0032552,395.585938 -10.5436198,395.673828 -11.0253906,395.849609 C-11.5071615,396.025391 -11.9384766,396.264648 -12.3193359,396.567383 C-12.7001953,396.870117 -13.0273438,397.22819 -13.3007812,397.641602 C-13.5742188,398.055013 -13.8020833,398.502604 -13.984375,398.984375 C-14.1666667,399.466146 -14.3017578,399.969076 -14.3896484,400.493164 C-14.4775391,401.017253 -14.5247396,401.542969 -14.53125,402.070312 L-14.53125,402.070312 L-14.53125,403.720703 C-14.5247396,404.254557 -14.4710286,404.783529 -14.3701172,405.307617 C-14.2692057,405.831706 -14.1194661,406.333008 -13.9208984,406.811523 C-13.7223307,407.290039 -13.4765625,407.734375 -13.1835938,408.144531 C-12.890625,408.554688 -12.5488281,408.911133 -12.1582031,409.213867 C-11.7675781,409.516602 -11.3264974,409.754232 -10.8349609,409.926758 C-10.3434245,410.099284 -9.8046875,410.188802 -9.21875,410.195312 Z M-0.302734375,410 L-0.302734375,404.326172 L-0.44921875,398.59375 L1.96289062,406.044922 L2.99804688,406.044922 L5.625,398.388672 L5.47851562,404.326172 L5.47851562,410 L7.23632812,410 L7.23632812,395.78125 L4.99023438,395.78125 L2.49023438,402.890625 L0.17578125,395.78125 L-2.06054688,395.78125 L-2.06054688,410 L-0.302734375,410 Z M19.0039062,410 L19.0039062,408.466797 L12.0800781,408.466797 L12.0800781,403.427734 L18.0175781,403.427734 L18.0175781,401.894531 L12.0800781,401.894531 L12.0800781,397.324219 L18.9160156,397.324219 L18.9160156,395.78125 L10.2734375,395.78125 L10.2734375,410 L19.0039062,410 Z M23.7207031,410 L23.75,399.375 L29.2675781,410 L31.1035156,410 L31.1035156,395.78125 L29.2773438,395.78125 L29.2480469,406.386719 L23.7304688,395.78125 L21.8945312,395.78125 L21.8945312,410 L23.7207031,410 Z M39.3945312,410 L39.3945312,397.324219 L43.7890625,397.324219 L43.7890625,395.78125 L33.2421875,395.78125 L33.2421875,397.324219 L37.6367188,397.324219 L37.6367188,410 L39.3945312,410 Z M47.0996094,410 L48.2421875,406.318359 L52.9882812,406.318359 L54.1113281,410 L55.9082031,410 L51.3964844,395.78125 L49.8828125,395.78125 L45.2929688,410 L47.0996094,410 Z M52.5097656,404.746094 L48.7304688,404.746094 L50.6347656,398.574219 L52.5097656,404.746094 Z M63.3984375,410 L63.3984375,397.324219 L67.7929688,397.324219 L67.7929688,395.78125 L57.2460938,395.78125 L57.2460938,397.324219 L61.640625,397.324219 L61.640625,410 L63.3984375,410 Z M78.7988281,410 L78.7988281,408.4375 L75.390625,408.4375 L75.390625,397.353516 L78.7988281,397.353516 L78.7988281,395.78125 L70.2050781,395.78125 L70.2050781,397.353516 L73.5351562,397.353516 L73.5351562,408.4375 L70.2050781,408.4375 L70.2050781,410 L78.7988281,410 Z M86.5136719,410.195312 C87.0996094,410.195312 87.6285807,410.105794 88.1005859,409.926758 C88.5725911,409.747721 88.9908854,409.501953 89.3554688,409.189453 C89.7200521,408.876953 90.0341797,408.51237 90.2978516,408.095703 C90.5615234,407.679036 90.7779948,407.229818 90.9472656,406.748047 C91.1165365,406.266276 91.241862,405.766602 91.3232422,405.249023 C91.4046224,404.731445 91.4485677,404.21875 91.4550781,403.710938 L91.4550781,403.710938 L91.4550781,402.089844 C91.4485677,401.582031 91.4046224,401.067708 91.3232422,400.546875 C91.241862,400.026042 91.1149089,399.52474 90.9423828,399.042969 C90.7698568,398.561198 90.5517578,398.110352 90.2880859,397.69043 C90.0244141,397.270508 89.7102865,396.904297 89.3457031,396.591797 C88.9811198,396.279297 88.5611979,396.033529 88.0859375,395.854492 C87.6106771,395.675456 87.0800781,395.585938 86.4941406,395.585938 C85.9082031,395.585938 85.3792318,395.675456 84.9072266,395.854492 C84.4352214,396.033529 84.0169271,396.280924 83.6523438,396.59668 C83.2877604,396.912435 82.9736328,397.280273 82.7099609,397.700195 C82.4462891,398.120117 82.2281901,398.570964 82.0556641,399.052734 C81.883138,399.534505 81.7561849,400.03418 81.6748047,400.551758 C81.5934245,401.069336 81.5494792,401.582031 81.5429688,402.089844 L81.5429688,402.089844 L81.5429688,403.710938 C81.5494792,404.21875 81.5950521,404.729818 81.6796875,405.244141 C81.7643229,405.758464 81.8929036,406.25651 82.0654297,406.738281 C82.2379557,407.220052 82.4576823,407.670898 82.7246094,408.09082 C82.9915365,408.510742 83.3072917,408.876953 83.671875,409.189453 C84.0364583,409.501953 84.4547526,409.747721 84.9267578,409.926758 C85.398763,410.105794 85.9277344,410.195312 86.5136719,410.195312 Z M86.5136719,408.603516 C86.0904948,408.603516 85.719401,408.528646 85.4003906,408.378906 C85.0813802,408.229167 84.8046875,408.028971 84.5703125,407.77832 C84.3359375,407.527669 84.140625,407.236328 83.984375,406.904297 C83.828125,406.572266 83.7011719,406.225586 83.6035156,405.864258 C83.5058594,405.50293 83.4358724,405.136719 83.3935547,404.765625 C83.351237,404.394531 83.3268229,404.042969 83.3203125,403.710938 L83.3203125,403.710938 L83.3203125,402.070312 C83.3268229,401.738281 83.351237,401.388346 83.3935547,401.020508 C83.4358724,400.652669 83.5042318,400.288086 83.5986328,399.926758 C83.6930339,399.56543 83.8183594,399.220378 83.9746094,398.891602 C84.1308594,398.562826 84.3261719,398.273112 84.5605469,398.022461 C84.7949219,397.77181 85.0716146,397.571615 85.390625,397.421875 C85.7096354,397.272135 86.077474,397.197266 86.4941406,397.197266 C86.9173177,397.197266 87.2884115,397.270508 87.6074219,397.416992 C87.9264323,397.563477 88.203125,397.762044 88.4375,398.012695 C88.671875,398.263346 88.8671875,398.55306 89.0234375,398.881836 C89.1796875,399.210612 89.305013,399.555664 89.3994141,399.916992 C89.4938151,400.27832 89.5605469,400.642904 89.5996094,401.010742 C89.6386719,401.378581 89.6614583,401.731771 89.6679688,402.070312 L89.6679688,402.070312 L89.6679688,403.710938 C89.6614583,404.049479 89.6402995,404.404297 89.6044922,404.775391 C89.5686849,405.146484 89.5035807,405.512695 89.4091797,405.874023 C89.3147786,406.235352 89.1910807,406.580404 89.0380859,406.90918 C88.8850911,407.237956 88.6930339,407.527669 88.4619141,407.77832 C88.2307943,408.028971 87.9541016,408.229167 87.6318359,408.378906 C87.3095703,408.528646 86.936849,408.603516 86.5136719,408.603516 Z M95.7324219,410 L95.7617188,399.375 L101.279297,410 L103.115234,410 L103.115234,395.78125 L101.289062,395.78125 L101.259766,406.386719 L95.7421875,395.78125 L93.90625,395.78125 L93.90625,410 L95.7324219,410 Z" id="AUGMENTATION" fill="#FD675E" fill-rule="nonzero" transform="translate(32.197266, 402.890717) rotate(-90.000000) translate(-32.197266, -402.890717) "></path>
        <path d="M711.087891,410 L712.230469,406.318359 L716.976562,406.318359 L718.099609,410 L719.896484,410 L715.384766,395.78125 L713.871094,395.78125 L709.28125,410 L711.087891,410 Z M716.498047,404.746094 L712.71875,404.746094 L714.623047,398.574219 L716.498047,404.746094 Z M726.488281,410.195313 C727.165365,410.195313 727.787109,410.069987 728.353516,409.819336 C728.919922,409.568685 729.408203,409.226888 729.818359,408.793945 C730.228516,408.361003 730.547526,407.854818 730.775391,407.275391 C731.003255,406.695964 731.123698,406.074219 731.136719,405.410156 L731.136719,405.410156 L731.117188,395.78125 L729.369141,395.78125 L729.339844,405.410156 C729.326823,405.833333 729.258464,406.240234 729.134766,406.630859 C729.011068,407.021484 728.830404,407.368164 728.592773,407.670898 C728.355143,407.973633 728.060547,408.214518 727.708984,408.393555 C727.357422,408.572591 726.950521,408.662109 726.488281,408.662109 C726.026042,408.662109 725.617513,408.570964 725.262695,408.388672 C724.907878,408.20638 724.611654,407.965495 724.374023,407.666016 C724.136393,407.366536 723.954102,407.021484 723.827148,406.630859 C723.700195,406.240234 723.633464,405.833333 723.626953,405.410156 L723.626953,405.410156 L723.587891,395.78125 L721.869141,395.78125 L721.849609,405.410156 C721.85612,406.074219 721.973307,406.697591 722.201172,407.280273 C722.429036,407.862956 722.744792,408.370768 723.148438,408.803711 C723.552083,409.236654 724.037109,409.576823 724.603516,409.824219 C725.169922,410.071615 725.798177,410.195313 726.488281,410.195313 Z M739.388672,410 L739.388672,397.324219 L743.783203,397.324219 L743.783203,395.78125 L733.236328,395.78125 L733.236328,397.324219 L737.630859,397.324219 L737.630859,410 L739.388672,410 Z M750.501953,410.195313 C751.087891,410.195313 751.616862,410.105794 752.088867,409.926758 C752.560872,409.747721 752.979167,409.501953 753.34375,409.189453 C753.708333,408.876953 754.022461,408.51237 754.286133,408.095703 C754.549805,407.679036 754.766276,407.229818 754.935547,406.748047 C755.104818,406.266276 755.230143,405.766602 755.311523,405.249023 C755.392904,404.731445 755.436849,404.21875 755.443359,403.710938 L755.443359,403.710938 L755.443359,402.089844 C755.436849,401.582031 755.392904,401.067708 755.311523,400.546875 C755.230143,400.026042 755.10319,399.52474 754.930664,399.042969 C754.758138,398.561198 754.540039,398.110352 754.276367,397.69043 C754.012695,397.270508 753.698568,396.904297 753.333984,396.591797 C752.969401,396.279297 752.549479,396.033529 752.074219,395.854492 C751.598958,395.675456 751.068359,395.585938 750.482422,395.585938 C749.896484,395.585938 749.367513,395.675456 748.895508,395.854492 C748.423503,396.033529 748.005208,396.280924 747.640625,396.59668 C747.276042,396.912435 746.961914,397.280273 746.698242,397.700195 C746.43457,398.120117 746.216471,398.570964 746.043945,399.052734 C745.871419,399.534505 745.744466,400.03418 745.663086,400.551758 C745.581706,401.069336 745.53776,401.582031 745.53125,402.089844 L745.53125,402.089844 L745.53125,403.710938 C745.53776,404.21875 745.583333,404.729818 745.667969,405.244141 C745.752604,405.758464 745.881185,406.25651 746.053711,406.738281 C746.226237,407.220052 746.445964,407.670898 746.712891,408.09082 C746.979818,408.510742 747.295573,408.876953 747.660156,409.189453 C748.02474,409.501953 748.443034,409.747721 748.915039,409.926758 C749.387044,410.105794 749.916016,410.195313 750.501953,410.195313 Z M750.501953,408.603516 C750.078776,408.603516 749.707682,408.528646 749.388672,408.378906 C749.069661,408.229167 748.792969,408.028971 748.558594,407.77832 C748.324219,407.527669 748.128906,407.236328 747.972656,406.904297 C747.816406,406.572266 747.689453,406.225586 747.591797,405.864258 C747.494141,405.50293 747.424154,405.136719 747.381836,404.765625 C747.339518,404.394531 747.315104,404.042969 747.308594,403.710938 L747.308594,403.710938 L747.308594,402.070313 C747.315104,401.738281 747.339518,401.388346 747.381836,401.020508 C747.424154,400.652669 747.492513,400.288086 747.586914,399.926758 C747.681315,399.56543 747.806641,399.220378 747.962891,398.891602 C748.119141,398.562826 748.314453,398.273112 748.548828,398.022461 C748.783203,397.77181 749.059896,397.571615 749.378906,397.421875 C749.697917,397.272135 750.065755,397.197266 750.482422,397.197266 C750.905599,397.197266 751.276693,397.270508 751.595703,397.416992 C751.914714,397.563477 752.191406,397.762044 752.425781,398.012695 C752.660156,398.263346 752.855469,398.55306 753.011719,398.881836 C753.167969,399.210612 753.293294,399.555664 753.387695,399.916992 C753.482096,400.27832 753.548828,400.642904 753.587891,401.010742 C753.626953,401.378581 753.64974,401.731771 753.65625,402.070313 L753.65625,402.070313 L753.65625,403.710938 C753.64974,404.049479 753.628581,404.404297 753.592773,404.775391 C753.556966,405.146484 753.491862,405.512695 753.397461,405.874023 C753.30306,406.235352 753.179362,406.580404 753.026367,406.90918 C752.873372,407.237956 752.681315,407.527669 752.450195,407.77832 C752.219076,408.028971 751.942383,408.229167 751.620117,408.378906 C751.297852,408.528646 750.92513,408.603516 750.501953,408.603516 Z M759.701172,410 L759.701172,404.326172 L759.554688,398.59375 L761.966797,406.044922 L763.001953,406.044922 L765.628906,398.388672 L765.482422,404.326172 L765.482422,410 L767.240234,410 L767.240234,395.78125 L764.994141,395.78125 L762.494141,402.890625 L760.179688,395.78125 L757.943359,395.78125 L757.943359,410 L759.701172,410 Z M771.097656,410 L772.240234,406.318359 L776.986328,406.318359 L778.109375,410 L779.90625,410 L775.394531,395.78125 L773.880859,395.78125 L769.291016,410 L771.097656,410 Z M776.507812,404.746094 L772.728516,404.746094 L774.632812,398.574219 L776.507812,404.746094 Z M787.396484,410 L787.396484,397.324219 L791.791016,397.324219 L791.791016,395.78125 L781.244141,395.78125 L781.244141,397.324219 L785.638672,397.324219 L785.638672,410 L787.396484,410 Z M802.796875,410 L802.796875,408.4375 L799.388672,408.4375 L799.388672,397.353516 L802.796875,397.353516 L802.796875,395.78125 L794.203125,395.78125 L794.203125,397.353516 L797.533203,397.353516 L797.533203,408.4375 L794.203125,408.4375 L794.203125,410 L802.796875,410 Z M810.511719,410.195313 C811.097656,410.195313 811.626628,410.105794 812.098633,409.926758 C812.570638,409.747721 812.988932,409.501953 813.353516,409.189453 C813.718099,408.876953 814.032227,408.51237 814.295898,408.095703 C814.55957,407.679036 814.776042,407.229818 814.945312,406.748047 C815.114583,406.266276 815.239909,405.766602 815.321289,405.249023 C815.402669,404.731445 815.446615,404.21875 815.453125,403.710938 L815.453125,403.710938 L815.453125,402.089844 C815.446615,401.582031 815.402669,401.067708 815.321289,400.546875 C815.239909,400.026042 815.112956,399.52474 814.94043,399.042969 C814.767904,398.561198 814.549805,398.110352 814.286133,397.69043 C814.022461,397.270508 813.708333,396.904297 813.34375,396.591797 C812.979167,396.279297 812.559245,396.033529 812.083984,395.854492 C811.608724,395.675456 811.078125,395.585938 810.492188,395.585938 C809.90625,395.585938 809.377279,395.675456 808.905273,395.854492 C808.433268,396.033529 808.014974,396.280924 807.650391,396.59668 C807.285807,396.912435 806.97168,397.280273 806.708008,397.700195 C806.444336,398.120117 806.226237,398.570964 806.053711,399.052734 C805.881185,399.534505 805.754232,400.03418 805.672852,400.551758 C805.591471,401.069336 805.547526,401.582031 805.541016,402.089844 L805.541016,402.089844 L805.541016,403.710938 C805.547526,404.21875 805.593099,404.729818 805.677734,405.244141 C805.76237,405.758464 805.890951,406.25651 806.063477,406.738281 C806.236003,407.220052 806.455729,407.670898 806.722656,408.09082 C806.989583,408.510742 807.305339,408.876953 807.669922,409.189453 C808.034505,409.501953 808.452799,409.747721 808.924805,409.926758 C809.39681,410.105794 809.925781,410.195313 810.511719,410.195313 Z M810.511719,408.603516 C810.088542,408.603516 809.717448,408.528646 809.398438,408.378906 C809.079427,408.229167 808.802734,408.028971 808.568359,407.77832 C808.333984,407.527669 808.138672,407.236328 807.982422,406.904297 C807.826172,406.572266 807.699219,406.225586 807.601562,405.864258 C807.503906,405.50293 807.433919,405.136719 807.391602,404.765625 C807.349284,404.394531 807.32487,404.042969 807.318359,403.710938 L807.318359,403.710938 L807.318359,402.070313 C807.32487,401.738281 807.349284,401.388346 807.391602,401.020508 C807.433919,400.652669 807.502279,400.288086 807.59668,399.926758 C807.691081,399.56543 807.816406,399.220378 807.972656,398.891602 C808.128906,398.562826 808.324219,398.273112 808.558594,398.022461 C808.792969,397.77181 809.069661,397.571615 809.388672,397.421875 C809.707682,397.272135 810.075521,397.197266 810.492188,397.197266 C810.915365,397.197266 811.286458,397.270508 811.605469,397.416992 C811.924479,397.563477 812.201172,397.762044 812.435547,398.012695 C812.669922,398.263346 812.865234,398.55306 813.021484,398.881836 C813.177734,399.210612 813.30306,399.555664 813.397461,399.916992 C813.491862,400.27832 813.558594,400.642904 813.597656,401.010742 C813.636719,401.378581 813.659505,401.731771 813.666016,402.070313 L813.666016,402.070313 L813.666016,403.710938 C813.659505,404.049479 813.638346,404.404297 813.602539,404.775391 C813.566732,405.146484 813.501628,405.512695 813.407227,405.874023 C813.312826,406.235352 813.189128,406.580404 813.036133,406.90918 C812.883138,407.237956 812.691081,407.527669 812.459961,407.77832 C812.228841,408.028971 811.952148,408.229167 811.629883,408.378906 C811.307617,408.528646 810.934896,408.603516 810.511719,408.603516 Z M819.730469,410 L819.759766,399.375 L825.277344,410 L827.113281,410 L827.113281,395.78125 L825.287109,395.78125 L825.257812,406.386719 L819.740234,395.78125 L817.904297,395.78125 L817.904297,410 L819.730469,410 Z" id="AUTOMATION" fill="#FD675E" fill-rule="nonzero" transform="translate(768.197266, 402.890625) rotate(90.000000) translate(-768.197266, -402.890625) "></path>
        <path d="M246.791016,259 L246.791016,257.4375 L243.382812,257.4375 L243.382812,246.353516 L246.791016,246.353516 L246.791016,244.78125 L238.197266,244.78125 L238.197266,246.353516 L241.527344,246.353516 L241.527344,257.4375 L238.197266,257.4375 L238.197266,259 L246.791016,259 Z M254.759766,259.185547 C254.994141,259.185547 255.200846,259.151367 255.379883,259.083008 C255.558919,259.014648 255.708659,258.91862 255.829102,258.794922 C255.949544,258.671224 256.04069,258.526367 256.102539,258.360352 C256.164388,258.194336 256.195312,258.016927 256.195312,257.828125 C256.195312,257.632812 256.164388,257.450521 256.102539,257.28125 C256.04069,257.111979 255.949544,256.963867 255.829102,256.836914 C255.708659,256.709961 255.558919,256.610677 255.379883,256.539062 C255.200846,256.467448 254.994141,256.431641 254.759766,256.431641 C254.525391,256.431641 254.320312,256.467448 254.144531,256.539062 C253.96875,256.610677 253.822266,256.709961 253.705078,256.836914 C253.587891,256.963867 253.498372,257.111979 253.436523,257.28125 C253.374674,257.450521 253.34375,257.632812 253.34375,257.828125 C253.34375,258.016927 253.374674,258.194336 253.436523,258.360352 C253.498372,258.526367 253.587891,258.671224 253.705078,258.794922 C253.822266,258.91862 253.96875,259.014648 254.144531,259.083008 C254.320312,259.151367 254.525391,259.185547 254.759766,259.185547 Z" id="I." fill="#FD675E" fill-rule="nonzero"></path>
        <path d="M544.790039,266 L544.790039,264.4375 L541.381836,264.4375 L541.381836,253.353516 L544.790039,253.353516 L544.790039,251.78125 L536.196289,251.78125 L536.196289,253.353516 L539.526367,253.353516 L539.526367,264.4375 L536.196289,264.4375 L536.196289,266 L544.790039,266 Z M556.791992,266 L556.791992,264.4375 L553.383789,264.4375 L553.383789,253.353516 L556.791992,253.353516 L556.791992,251.78125 L548.198242,251.78125 L548.198242,253.353516 L551.52832,253.353516 L551.52832,264.4375 L548.198242,264.4375 L548.198242,266 L556.791992,266 Z M564.760742,266.185547 C564.995117,266.185547 565.201823,266.151367 565.380859,266.083008 C565.559896,266.014648 565.709635,265.91862 565.830078,265.794922 C565.950521,265.671224 566.041667,265.526367 566.103516,265.360352 C566.165365,265.194336 566.196289,265.016927 566.196289,264.828125 C566.196289,264.632812 566.165365,264.450521 566.103516,264.28125 C566.041667,264.111979 565.950521,263.963867 565.830078,263.836914 C565.709635,263.709961 565.559896,263.610677 565.380859,263.539062 C565.201823,263.467448 564.995117,263.431641 564.760742,263.431641 C564.526367,263.431641 564.321289,263.467448 564.145508,263.539062 C563.969727,263.610677 563.823242,263.709961 563.706055,263.836914 C563.588867,263.963867 563.499349,264.111979 563.4375,264.28125 C563.375651,264.450521 563.344727,264.632812 563.344727,264.828125 C563.344727,265.016927 563.375651,265.194336 563.4375,265.360352 C563.499349,265.526367 563.588867,265.671224 563.706055,265.794922 C563.823242,265.91862 563.969727,266.014648 564.145508,266.083008 C564.321289,266.151367 564.526367,266.185547 564.760742,266.185547 Z" id="II." fill="#FD675E" fill-rule="nonzero"></path>
        <path d="M240.790039,561 L240.790039,559.4375 L237.381836,559.4375 L237.381836,548.353516 L240.790039,548.353516 L240.790039,546.78125 L232.196289,546.78125 L232.196289,548.353516 L235.526367,548.353516 L235.526367,559.4375 L232.196289,559.4375 L232.196289,561 L240.790039,561 Z M249.256836,561 L253.739258,546.78125 L251.81543,546.78125 L248.456055,558.089844 L245.125977,546.78125 L243.192383,546.78125 L247.68457,561 L249.256836,561 Z M260.760742,561.185547 C260.995117,561.185547 261.201823,561.151367 261.380859,561.083008 C261.559896,561.014648 261.709635,560.91862 261.830078,560.794922 C261.950521,560.671224 262.041667,560.526367 262.103516,560.360352 C262.165365,560.194336 262.196289,560.016927 262.196289,559.828125 C262.196289,559.632812 262.165365,559.450521 262.103516,559.28125 C262.041667,559.111979 261.950521,558.963867 261.830078,558.836914 C261.709635,558.709961 261.559896,558.610677 261.380859,558.539062 C261.201823,558.467448 260.995117,558.431641 260.760742,558.431641 C260.526367,558.431641 260.321289,558.467448 260.145508,558.539062 C259.969727,558.610677 259.823242,558.709961 259.706055,558.836914 C259.588867,558.963867 259.499349,559.111979 259.4375,559.28125 C259.375651,559.450521 259.344727,559.632812 259.344727,559.828125 C259.344727,560.016927 259.375651,560.194336 259.4375,560.360352 C259.499349,560.526367 259.588867,560.671224 259.706055,560.794922 C259.823242,560.91862 259.969727,561.014648 260.145508,561.083008 C260.321289,561.151367 260.526367,561.185547 260.760742,561.185547 Z" id="IV." fill="#FD675E" fill-rule="nonzero"></path>
        <path d="M538.789062,568 L538.789062,566.4375 L535.380859,566.4375 L535.380859,555.353516 L538.789062,555.353516 L538.789062,553.78125 L530.195312,553.78125 L530.195312,555.353516 L533.525391,555.353516 L533.525391,566.4375 L530.195312,566.4375 L530.195312,568 L538.789062,568 Z M550.791016,568 L550.791016,566.4375 L547.382812,566.4375 L547.382812,555.353516 L550.791016,555.353516 L550.791016,553.78125 L542.197266,553.78125 L542.197266,555.353516 L545.527344,555.353516 L545.527344,566.4375 L542.197266,566.4375 L542.197266,568 L550.791016,568 Z M562.792969,568 L562.792969,566.4375 L559.384766,566.4375 L559.384766,555.353516 L562.792969,555.353516 L562.792969,553.78125 L554.199219,553.78125 L554.199219,555.353516 L557.529297,555.353516 L557.529297,566.4375 L554.199219,566.4375 L554.199219,568 L562.792969,568 Z M570.761719,568.185547 C570.996094,568.185547 571.202799,568.151367 571.381836,568.083008 C571.560872,568.014648 571.710612,567.91862 571.831055,567.794922 C571.951497,567.671224 572.042643,567.526367 572.104492,567.360352 C572.166341,567.194336 572.197266,567.016927 572.197266,566.828125 C572.197266,566.632812 572.166341,566.450521 572.104492,566.28125 C572.042643,566.111979 571.951497,565.963867 571.831055,565.836914 C571.710612,565.709961 571.560872,565.610677 571.381836,565.539062 C571.202799,565.467448 570.996094,565.431641 570.761719,565.431641 C570.527344,565.431641 570.322266,565.467448 570.146484,565.539062 C569.970703,565.610677 569.824219,565.709961 569.707031,565.836914 C569.589844,565.963867 569.500326,566.111979 569.438477,566.28125 C569.376628,566.450521 569.345703,566.632812 569.345703,566.828125 C569.345703,567.016927 569.376628,567.194336 569.438477,567.360352 C569.500326,567.526367 569.589844,567.671224 569.707031,567.794922 C569.824219,567.91862 569.970703,568.014648 570.146484,568.083008 C570.322266,568.151367 570.527344,568.185547 570.761719,568.185547 Z" id="III." fill="#FD675E" fill-rule="nonzero"></path>
    </g>
</svg>